<?xml version="1.0" encoding="utf-8" standalone="yes"?>
<!DOCTYPE svg PUBLIC "-//W3C//DTD SVG 1.1//EN" "http://www.w3.org/Graphics/SVG/1.1/DTD/svg11.dtd">
<svg width="2194" height="660" viewBox="0 0 2194 660" style="fill:none;stroke:none;fill-rule:evenodd;clip-rule:evenodd;stroke-linecap:round;stroke-linejoin:round;stroke-miterlimit:1.5;" version="1.1" xmlns="http://www.w3.org/2000/svg" xmlns:xlink="http://www.w3.org/1999/xlink"><style class="text-font-style fontImports" data-font-family="Roboto">@import url('https://fonts.googleapis.com/css2?family=Roboto:wght@400;700&amp;display=block');</style><g id="items" style="isolation: isolate"><g id="blend" style="mix-blend-mode: normal"><g id="g-root-cp_0_g-0_8whxlen3em83-fill" data-item-order="-702083" transform="translate(38.21098327636719, 287.3662109375)"></g><g id="g-root-cp_1_g-1_1_1um5h76n3enlx-fill" data-item-order="-702066" transform="translate(32, 230.3662109375)"></g><g id="g-root-cp_2_g-2_1hbbfwyn3em13-fill" data-item-order="-702054" transform="translate(200, 305.3662109375)"></g><g id="g-root-cp_3_g-3_1_zknwian3el8h-fill" data-item-order="-702042" transform="translate(368, 230.3662109375)"></g><g id="g-root-cp_4_g-4_m97e4yn3emtf-fill" data-item-order="-702030" transform="translate(536, 305.3662109375)"></g><g id="g-root-cp_5_g-5_1_8ydcuqn3el8l-fill" data-item-order="-702018" transform="translate(704, 230.3662109375)"></g><g id="g-root-cp_6_g-6_1cy0sz6pb766m-fill" data-item-order="-702006" transform="translate(872, 305.3662109375)"></g><g id="g-root-cp_6_g-6_1uo0wgin3emmf-fill" data-item-order="-701994" transform="translate(1040, 230.3662109375)"></g><g id="g-root-cp_-1_line_1hd6v6an3el1l-fill" data-item-order="-701981" transform="translate(122, 248.3662109375)"></g><g id="g-root-cp_-1_line_1_1cxdd1un3eltv-fill" data-item-order="-701977" transform="translate(458, 248.3662109375)"></g><g id="g-root-cp_-1_line_2_141qcsyn3emml-fill" data-item-order="-701973" transform="translate(794, 248.3662109375)"></g><g id="g-root-cp_-1_line_3_qqwbiqn3el1r-fill" data-item-order="-701969" transform="translate(1130, 248.3662109375)"></g><g id="g-root-cp_-1_line_4_mb2tean3elu1-fill" data-item-order="-701965" transform="translate(290, 437.3662109375)"></g><g id="g-root-cp_-1_line_5_hv9b9un3emmb-fill" data-item-order="-701961" transform="translate(626, 437.3662109375)"></g><g id="g-root-cp_-1_line_6_1hgyoj6pb76kv-fill" data-item-order="-701957" transform="translate(962, 437.3662109375)"></g><g id="g-root-tx_neweleme_hxs6gipb8jd6-fill" data-item-order="0" transform="translate(830, 563.3662109375)"><g id="tx_neweleme_hxs6gipb8jd6-fill" stroke="none" fill="#484848"><g><text style="font: 15px &quot;Roboto&quot;, sans-serif; white-space: pre;" font-size="15px" font-family="'Roboto', sans-serif"><tspan x="19.98" y="28" dominant-baseline="ideographic">Backpropagate the newly calculated </tspan><tspan x="25.02" y="46" dominant-baseline="ideographic">EFE values through the search tree</tspan></text></g></g></g><g id="g-root-tx_sampleac_4mx9hun3687h-fill" data-item-order="0" transform="translate(1052, 143.3662109375)"><g id="tx_sampleac_4mx9hun3687h-fill" stroke="none" fill="#484848"><g><text style="font: bold 20px &quot;Roboto&quot;, sans-serif; white-space: pre;" font-weight="bold" font-size="20px" font-family="'Roboto', sans-serif"><tspan x="17.33" y="34.33" dominant-baseline="ideographic">Sample Actions</tspan></text></g></g></g><g id="g-root-tx_calculat_4osllen3enm2-fill" data-item-order="0" transform="translate(728, 143.3662109375)"><g id="tx_calculat_4osllen3enm2-fill" stroke="none" fill="#484848"><g><text style="font: bold 20px &quot;Roboto&quot;, sans-serif; white-space: pre;" font-weight="bold" font-size="20px" font-family="'Roboto', sans-serif"><tspan x="11.87" y="34.33" dominant-baseline="ideographic">Calculate UCB</tspan></text></g></g></g><g id="g-root-tx_applymct_me76tun3en0g-fill" data-item-order="0" transform="translate(398, 143.3662109375)"><g id="tx_applymct_me76tun3en0g-fill" stroke="none" fill="#484848"><g><text style="font: bold 20px &quot;Roboto&quot;, sans-serif; white-space: pre;" font-weight="bold" font-size="20px" font-family="'Roboto', sans-serif"><tspan x="14.59" y="34.33" dominant-baseline="ideographic">Apply MCTS</tspan></text></g></g></g><g id="g-root-tx_agentcho_zns9xun3emfa-fill" data-item-order="0" transform="translate(20, 143.3662109375)"><g id="tx_agentcho_zns9xun3emfa-fill" stroke="none" fill="#484848"><g><text style="font: bold 20px &quot;Roboto&quot;, sans-serif; white-space: pre;" font-weight="bold" font-size="20px" font-family="'Roboto', sans-serif"><tspan x="11.91" y="34.33" dominant-baseline="ideographic">Agent Chooses Action</tspan></text></g></g></g><g id="g-root-ic_rota_1um5h76n3g1sc-fill" data-item-order="0" transform="translate(92, 341.3662109375)"></g><g id="g-root-ic_redi_3cwuqn2z7k8-fill" data-item-order="0" transform="translate(260, 341.3662109375)"></g><g id="g-root-ic_1_18i6f6an30kr0-fill" data-item-order="0" transform="translate(428, 341.3662109375)"></g><g id="g-root-ic_2_zknzo2n320p1-fill" data-item-order="0" transform="translate(596, 341.3662109375)"></g><g id="g-root-ic_chip_1lr5176n33ev5-fill" data-item-order="0" transform="translate(764, 341.3662109375)"></g><g id="g-root-ic_chip_hxrkcymjfevb-fill" data-item-order="0" transform="translate(932, 341.3662109375)"></g><g id="g-root-ic_up_4ijxw2n34s91-fill" data-item-order="0" transform="translate(1100, 341.3662109375)"></g><g id="g-root-tx_agentsel_1lw4qqan3elfz-fill" data-item-order="0" transform="translate(14, 179.3662109375)"><g id="tx_agentsel_1lw4qqan3elfz-fill" stroke="none" fill="#484848"><g><text style="font: 15px &quot;Roboto&quot;, sans-serif; white-space: pre;" font-size="15px" font-family="'Roboto', sans-serif"><tspan x="15.65" y="28" dominant-baseline="ideographic">Agent selects action based on </tspan><tspan x="103.47" y="46" dominant-baseline="ideographic">EFE</tspan></text></g></g></g><g id="g-root-tx_usemctst_1hi6nv6n3el8h-fill" data-item-order="0" transform="translate(362, 179.3662109375)"><g id="tx_usemctst_1hi6nv6n3el8h-fill" stroke="none" fill="#484848"><g><text style="font: 15px &quot;Roboto&quot;, sans-serif; white-space: pre;" font-size="15px" font-family="'Roboto', sans-serif"><tspan x="17.72" y="28" dominant-baseline="ideographic">Use MCTS to refine action </tspan><tspan x="73.88" y="46" dominant-baseline="ideographic">selection</tspan></text></g></g></g><g id="g-root-tx_computeu_18efhhun3fzlv-fill" data-item-order="0" transform="translate(716, 179.3662109375)"><g id="tx_computeu_18efhhun3fzlv-fill" stroke="none" fill="#484848"><g><text style="font: 15px &quot;Roboto&quot;, sans-serif; white-space: pre;" font-size="15px" font-family="'Roboto', sans-serif"><tspan x="13.54" y="28" dominant-baseline="ideographic">Compute UCB for EFE </tspan><tspan x="50.66" y="46" dominant-baseline="ideographic">estimation</tspan></text></g></g></g><g id="g-root-tx_generate_1hefwian366tn-fill" data-item-order="0" transform="translate(524, 527.3662109375)"><g id="tx_generate_1hefwian366tn-fill" stroke="none" fill="#484848"><g><text style="font: bold 20px &quot;Roboto&quot;, sans-serif; white-space: pre;" font-weight="bold" font-size="20px" font-family="'Roboto', sans-serif"><tspan x="14.66" y="34.33" dominant-baseline="ideographic">Generate Search Tree</tspan></text></g></g></g><g id="g-root-tx_neweleme_1hapxo2pb8j5t-fill" data-item-order="0" transform="translate(878, 527.3662109375)"><g id="tx_neweleme_1hapxo2pb8j5t-fill" stroke="none" fill="#484848"><g><text style="font: bold 20px &quot;Roboto&quot;, sans-serif; white-space: pre;" font-weight="bold" font-size="20px" font-family="'Roboto', sans-serif"><tspan x="17.62" y="34.33" dominant-baseline="ideographic">Backpropagation</tspan></text></g></g></g><g id="g-root-tx_computee_18hjy36n36682-fill" data-item-order="0" transform="translate(200, 563.3662109375)"><g id="tx_computee_18hjy36n36682-fill" stroke="none" fill="#484848"><g><text style="font: 15px &quot;Roboto&quot;, sans-serif; white-space: pre;" font-size="15px" font-family="'Roboto', sans-serif"><tspan x="11.9" y="28" dominant-baseline="ideographic">Compute EFE for possible </tspan><tspan x="72.42" y="46" dominant-baseline="ideographic">policies</tspan></text></g></g></g><g id="g-root-tx_createaw_1lvicsyn3687g-fill" data-item-order="0" transform="translate(518, 563.3662109375)"><g id="tx_createaw_1lvicsyn3687g-fill" stroke="none" fill="#484848"><g><text style="font: 15px &quot;Roboto&quot;, sans-serif; white-space: pre;" font-size="15px" font-family="'Roboto', sans-serif"><tspan x="17.01" y="28" dominant-baseline="ideographic">Create a weighted search tree </tspan><tspan x="84.21" y="46" dominant-baseline="ideographic">iteratively</tspan></text></g></g></g><g id="g-root-tx_sampleac_zqwqj6n366fi-fill" data-item-order="0" transform="translate(1022, 179.3662109375)"><g id="tx_sampleac_zqwqj6n366fi-fill" stroke="none" fill="#484848"><g><text style="font: 15px &quot;Roboto&quot;, sans-serif; white-space: pre;" font-size="15px" font-family="'Roboto', sans-serif"><tspan x="15.8" y="28" dominant-baseline="ideographic">Sample actions based on UCB </tspan><tspan x="72.73" y="46" dominant-baseline="ideographic">or Q-function</tspan></text></g></g></g><g id="g-root-tx_calculat_1hbbj2qn366f5-fill" data-item-order="0" transform="translate(224, 527.3662109375)"><g id="tx_calculat_1hbbj2qn366f5-fill" stroke="none" fill="#484848"><g><text style="font: bold 20px &quot;Roboto&quot;, sans-serif; white-space: pre;" font-weight="bold" font-size="20px" font-family="'Roboto', sans-serif"><tspan x="14.64" y="34.33" dominant-baseline="ideographic">Calculate EFE</tspan></text></g></g></g><g id="g-root-cp_0_g-0_8whxlen3em83-stroke" data-item-order="-702083" transform="translate(38.21098327636719, 287.3662109375)"><g id="cp_0_g-0_8whxlen3em83-stroke" fill="none" stroke-linecap="round" stroke-linejoin="round" stroke-miterlimit="4" stroke="#808080" stroke-width="2" stroke-dasharray="5.0, 7.0"><g><path d="M 177.589017 100C 174.589017 121.7 166.189017 141.5 150.989017 155.5C 135.989017 169.4 115.889017 179.6 93.789017 178C 69.989017 176.3 48.589017 167.9 33.089017 152.1C 19.789017 138.5 13.389017 119.9 9.989017 100M 345.589017 88C 342.889017 64.6 331.889017 44.4 315.489017 29.4C 301.589017 16.6 282.189017 10.5 261.789017 10C 247.189017 9.6 233.889017 14.6 221.489017 20.3C 207.789017 26.5 195.689017 37.5 189.489017 51.2C 184.289017 62.7 180.389017 74.8 177.989017 88M 513.589017 100C 512.889017 110.3 511.489017 120.8 506.189017 129C 500.089017 138.4 494.589017 147.9 486.789017 155.7C 479.189017 163.4 468.989017 167.7 459.189017 172.7C 450.489017 177.1 440.089017 178.8 429.789017 178C 414.489017 176.8 400.189017 173.5 387.589017 166.6C 375.389017 160 365.789017 149.6 358.189017 138C 350.989017 127 348.289017 113.7 345.989017 100M 681.589017 88C 679.889017 65.2 669.489017 44.5 652.889017 30.6C 637.989017 18 618.889017 10 597.789017 10C 577.389017 10 558.989017 17.6 544.189017 29.3C 526.789017 43.1 515.389017 64.4 513.989017 88M 849.589017 100C 846.489017 123.2 836.489017 143.7 819.889017 158.2C 805.489017 170.8 786.389017 176.9 765.789017 178C 742.089017 179.3 719.989017 168.6 705.289017 152.2C 692.489017 138.1 682.789017 120.3 681.989017 100M 1017.589017 88C 1016.289017 77.7 1013.889017 67.8 1009.989017 58.7C 1005.889017 48.9 999.589017 40.1 991.689017 33.2C 984.089017 26.5 975.589017 20.9 966.289017 16.5C 956.489017 11.9 945.289017 9.6 933.789017 10C 912.989017 10.7 892.989017 16.5 879.289017 30.1C 863.689017 45.5 849.889017 64.8 849.989017 88M 1185.589017 100C 1184.289017 115.2 1180.789017 130.3 1171.389017 141.1C 1162.189017 151.5 1152.589017 161.3 1140.589017 168.5C 1129.389017 175.3 1115.689017 176.6 1101.789017 178C 1081.089017 180.1 1061.789017 170.6 1047.289017 157.9C 1030.889017 143.5 1021.289017 123 1017.989017 100"></path><path d="M 177.578001 100C 174.501601 143.5917 138.163501 178 93.789001 178C 49.414501 178 13.076501 143.5917 10.000001 100M 345.578 88C 342.5016 44.4083 306.1635 10 261.789 10C 217.4145 10 181.0765 44.4083 178 88M 513.578016 100C 510.501616 143.5917 474.163516 178 429.789016 178C 385.414516 178 349.076516 143.5917 346.000016 100M 681.578016 88C 678.501616 44.4083 642.163516 10 597.789016 10C 553.414516 10 517.076516 44.4083 514.000016 88M 849.577955 100C 846.501555 143.5917 810.163455 178 765.788955 178C 721.414455 178 685.076455 143.5917 681.999955 100M 1017.577955 88C 1014.501555 44.4083 978.163455 10 933.788955 10C 889.414455 10 853.076455 44.4083 849.999955 88M 1185.577955 100C 1182.501555 143.5917 1146.163455 178 1101.788955 178C 1057.414455 178 1021.076455 143.5917 1017.999955 100"></path></g></g></g><g id="g-root-cp_1_g-1_1_1um5h76n3enlx-stroke" data-item-order="-702066" transform="translate(32, 230.3662109375)"><g id="cp_1_g-1_1_1um5h76n3enlx-stroke" fill="none" stroke-linecap="round" stroke-linejoin="round" stroke-miterlimit="4" stroke="#4e88e7" stroke-width="2"><g><path d="M 34 151C 34.000002 187.450795 63.549208 217.000002 100.000002 217.000002C 136.450795 217.000002 166.000002 187.450795 166.000002 151.000002C 166.000002 114.549208 136.450795 85.000002 100.000002 85.000002C 63.549208 85.000002 34.000002 114.549208 34.000002 151.000002M 10 151C 10 154.313709 12.686292 157 16 157C 19.313709 157 22 154.313709 22 151C 22 147.686292 19.313709 145 16 145C 12.686292 145 10 147.686292 10 151"></path></g></g><g id="cp_1_g-1_1_1um5h76n3enlx-stroke" fill="none" stroke-linecap="round" stroke-linejoin="round" stroke-miterlimit="4" stroke="#4e88e7" stroke-width="2"><g><path d="M 109 19C 109 23.9706 104.9706 28 100 28C 95.0294 28 91 23.9706 91 19C 91 14.0294 95.0294 10 100 10C 104.9706 10 109 14.0294 109 19Z"></path></g></g></g><g id="g-root-cp_2_g-2_1hbbfwyn3em13-stroke" data-item-order="-702054" transform="translate(200, 305.3662109375)"><g id="cp_2_g-2_1hbbfwyn3em13-stroke" fill="none" stroke-linecap="round" stroke-linejoin="round" stroke-miterlimit="4" stroke="#1eabda" stroke-width="2"><g><path d="M 34 76C 34.000002 112.450795 63.549208 142.000002 100.000002 142.000002C 136.450795 142.000002 166.000002 112.450795 166.000002 76.000002C 166.000002 39.549208 136.450795 10.000002 100.000002 10.000002C 63.549208 10.000002 34.000002 39.549208 34.000002 76.000002M 10 76C 10 79.313709 12.686292 82 16 82C 19.313709 82 22 79.313709 22 76C 22 72.686292 19.313709 70 16 70C 12.686292 70 10 72.686292 10 76"></path></g></g><g id="cp_2_g-2_1hbbfwyn3em13-stroke" fill="none" stroke-linecap="round" stroke-linejoin="round" stroke-miterlimit="4" stroke="#1eabda" stroke-width="2"><g><path d="M 109 208C 109 212.9706 104.9706 217 100 217C 95.0294 217 91 212.9706 91 208C 91 203.0294 95.0294 199 100 199C 104.9706 199 109 203.0294 109 208Z"></path></g></g></g><g id="g-root-cp_3_g-3_1_zknwian3el8h-stroke" data-item-order="-702042" transform="translate(368, 230.3662109375)"><g id="cp_3_g-3_1_zknwian3el8h-stroke" fill="none" stroke-linecap="round" stroke-linejoin="round" stroke-miterlimit="4" stroke="#3cc583" stroke-width="2"><g><path d="M 34 151C 34.000002 187.450795 63.549208 217.000002 100.000002 217.000002C 136.450795 217.000002 166.000002 187.450795 166.000002 151.000002C 166.000002 114.549208 136.450795 85.000002 100.000002 85.000002C 63.549208 85.000002 34.000002 114.549208 34.000002 151.000002M 10 151C 10 154.313709 12.686292 157 16 157C 19.313709 157 22 154.313709 22 151C 22 147.686292 19.313709 145 16 145C 12.686292 145 10 147.686292 10 151"></path></g></g><g id="cp_3_g-3_1_zknwian3el8h-stroke" fill="none" stroke-linecap="round" stroke-linejoin="round" stroke-miterlimit="4" stroke="#3cc583" stroke-width="2"><g><path d="M 109 19C 109 23.9706 104.9706 28 100 28C 95.0294 28 91 23.9706 91 19C 91 14.0294 95.0294 10 100 10C 104.9706 10 109 14.0294 109 19Z"></path></g></g></g><g id="g-root-cp_4_g-4_m97e4yn3emtf-stroke" data-item-order="-702030" transform="translate(536, 305.3662109375)"><g id="cp_4_g-4_m97e4yn3emtf-stroke" fill="none" stroke-linecap="round" stroke-linejoin="round" stroke-miterlimit="4" stroke="#92bd39" stroke-width="2"><g><path d="M 34 76C 34.000002 112.450795 63.549208 142.000002 100.000002 142.000002C 136.450795 142.000002 166.000002 112.450795 166.000002 76.000002C 166.000002 39.549208 136.450795 10.000002 100.000002 10.000002C 63.549208 10.000002 34.000002 39.549208 34.000002 76.000002M 10 76C 10 79.313709 12.686292 82 16 82C 19.313709 82 22 79.313709 22 76C 22 72.686292 19.313709 70 16 70C 12.686292 70 10 72.686292 10 76"></path></g></g><g id="cp_4_g-4_m97e4yn3emtf-stroke" fill="none" stroke-linecap="round" stroke-linejoin="round" stroke-miterlimit="4" stroke="#92bd39" stroke-width="2"><g><path d="M 109 208C 109 212.9706 104.9706 217 100 217C 95.0294 217 91 212.9706 91 208C 91 203.0294 95.0294 199 100 199C 104.9706 199 109 203.0294 109 208Z"></path></g></g></g><g id="g-root-cp_5_g-5_1_8ydcuqn3el8l-stroke" data-item-order="-702018" transform="translate(704, 230.3662109375)"><g id="cp_5_g-5_1_8ydcuqn3el8l-stroke" fill="none" stroke-linecap="round" stroke-linejoin="round" stroke-miterlimit="4" stroke="#e0cb15" stroke-width="2"><g><path d="M 34 151C 34.000002 187.450795 63.549208 217.000002 100.000002 217.000002C 136.450795 217.000002 166.000002 187.450795 166.000002 151.000002C 166.000002 114.549208 136.450795 85.000002 100.000002 85.000002C 63.549208 85.000002 34.000002 114.549208 34.000002 151.000002M 10 151C 10 154.313709 12.686292 157 16 157C 19.313709 157 22 154.313709 22 151C 22 147.686292 19.313709 145 16 145C 12.686292 145 10 147.686292 10 151"></path></g></g><g id="cp_5_g-5_1_8ydcuqn3el8l-stroke" fill="none" stroke-linecap="round" stroke-linejoin="round" stroke-miterlimit="4" stroke="#e0cb15" stroke-width="2"><g><path d="M 109 19C 109 23.9706 104.9706 28 100 28C 95.0294 28 91 23.9706 91 19C 91 14.0294 95.0294 10 100 10C 104.9706 10 109 14.0294 109 19Z"></path></g></g></g><g id="g-root-cp_6_g-6_1cy0sz6pb766m-stroke" data-item-order="-702006" transform="translate(872, 305.3662109375)"><g id="cp_6_g-6_1cy0sz6pb766m-stroke" fill="none" stroke-linecap="round" stroke-linejoin="round" stroke-miterlimit="4" stroke="#7f64ea" stroke-width="2"><g><path d="M 34 76C 34.000002 112.450795 63.549208 142.000002 100.000002 142.000002C 136.450795 142.000002 166.000002 112.450795 166.000002 76.000002C 166.000002 39.549208 136.450795 10.000002 100.000002 10.000002C 63.549208 10.000002 34.000002 39.549208 34.000002 76.000002M 10 76C 10 79.313709 12.686292 82 16 82C 19.313709 82 22 79.313709 22 76C 22 72.686292 19.313709 70 16 70C 12.686292 70 10 72.686292 10 76"></path></g></g><g id="cp_6_g-6_1cy0sz6pb766m-stroke" fill="none" stroke-linecap="round" stroke-linejoin="round" stroke-miterlimit="4" stroke="#7f64ea" stroke-width="2"><g><path d="M 109 208C 109 212.9706 104.9706 217 100 217C 95.0294 217 91 212.9706 91 208C 91 203.0294 95.0294 199 100 199C 104.9706 199 109 203.0294 109 208Z"></path></g></g></g><g id="g-root-cp_6_g-6_1uo0wgin3emmf-stroke" data-item-order="-701994" transform="translate(1040, 230.3662109375)"><g id="cp_6_g-6_1uo0wgin3emmf-stroke" fill="none" stroke-linecap="round" stroke-linejoin="round" stroke-miterlimit="4" stroke="#de8431" stroke-width="2"><g><path d="M 34 151C 34.000002 187.450795 63.549208 217.000002 100.000002 217.000002C 136.450795 217.000002 166.000002 187.450795 166.000002 151.000002C 166.000002 114.549208 136.450795 85.000002 100.000002 85.000002C 63.549208 85.000002 34.000002 114.549208 34.000002 151.000002M 10 151C 10 154.313709 12.686292 157 16 157C 19.313709 157 22 154.313709 22 151C 22 147.686292 19.313709 145 16 145C 12.686292 145 10 147.686292 10 151M 178 151C 178 154.313709 180.686292 157 184 157C 187.313709 157 190 154.313709 190 151C 190 147.686292 187.313709 145 184 145C 180.686292 145 178 147.686292 178 151"></path></g></g><g id="cp_6_g-6_1uo0wgin3emmf-stroke" fill="none" stroke-linecap="round" stroke-linejoin="round" stroke-miterlimit="4" stroke="#de8431" stroke-width="2"><g><path d="M 109 19C 109 23.9706 104.9706 28 100 28C 95.0294 28 91 23.9706 91 19C 91 14.0294 95.0294 10 100 10C 104.9706 10 109 14.0294 109 19Z"></path></g></g></g><g id="g-root-cp_-1_line_1hd6v6an3el1l-stroke" data-item-order="-701981" transform="translate(122, 248.3662109375)"><g id="cp_-1_line_1hd6v6an3el1l-stroke" fill="none" stroke-linecap="round" stroke-linejoin="round" stroke-miterlimit="4" stroke="#484848" stroke-width="2"><g><path d="M 10 67L 10 10"></path></g></g></g><g id="g-root-cp_-1_line_1_1cxdd1un3eltv-stroke" data-item-order="-701977" transform="translate(458, 248.3662109375)"><g id="cp_-1_line_1_1cxdd1un3eltv-stroke" fill="none" stroke-linecap="round" stroke-linejoin="round" stroke-miterlimit="4" stroke="#484848" stroke-width="2"><g><path d="M 10 67L 10 10"></path></g></g></g><g id="g-root-cp_-1_line_2_141qcsyn3emml-stroke" data-item-order="-701973" transform="translate(794, 248.3662109375)"><g id="cp_-1_line_2_141qcsyn3emml-stroke" fill="none" stroke-linecap="round" stroke-linejoin="round" stroke-miterlimit="4" stroke="#484848" stroke-width="2"><g><path d="M 10 67L 10 10"></path></g></g></g><g id="g-root-cp_-1_line_3_qqwbiqn3el1r-stroke" data-item-order="-701969" transform="translate(1130, 248.3662109375)"><g id="cp_-1_line_3_qqwbiqn3el1r-stroke" fill="none" stroke-linecap="round" stroke-linejoin="round" stroke-miterlimit="4" stroke="#484848" stroke-width="2"><g><path d="M 10 67L 10 10"></path></g></g></g><g id="g-root-cp_-1_line_4_mb2tean3elu1-stroke" data-item-order="-701965" transform="translate(290, 437.3662109375)"><g id="cp_-1_line_4_mb2tean3elu1-stroke" fill="none" stroke-linecap="round" stroke-linejoin="round" stroke-miterlimit="4" stroke="#484848" stroke-width="2"><g><path d="M 10 67L 10 10"></path></g></g></g><g id="g-root-cp_-1_line_5_hv9b9un3emmb-stroke" data-item-order="-701961" transform="translate(626, 437.3662109375)"><g id="cp_-1_line_5_hv9b9un3emmb-stroke" fill="none" stroke-linecap="round" stroke-linejoin="round" stroke-miterlimit="4" stroke="#484848" stroke-width="2"><g><path d="M 10 67L 10 10"></path></g></g></g><g id="g-root-cp_-1_line_6_1hgyoj6pb76kv-stroke" data-item-order="-701957" transform="translate(962, 437.3662109375)"><g id="cp_-1_line_6_1hgyoj6pb76kv-stroke" fill="none" stroke-linecap="round" stroke-linejoin="round" stroke-miterlimit="4" stroke="#484848" stroke-width="2"><g><path d="M 10 67L 10 10"></path></g></g></g><g id="g-root-tx_neweleme_hxs6gipb8jd6-stroke" data-item-order="0" transform="translate(830, 563.3662109375)"></g><g id="g-root-tx_sampleac_4mx9hun3687h-stroke" data-item-order="0" transform="translate(1052, 143.3662109375)"></g><g id="g-root-tx_calculat_4osllen3enm2-stroke" data-item-order="0" transform="translate(728, 143.3662109375)"></g><g id="g-root-tx_applymct_me76tun3en0g-stroke" data-item-order="0" transform="translate(398, 143.3662109375)"></g><g id="g-root-tx_agentcho_zns9xun3emfa-stroke" data-item-order="0" transform="translate(20, 143.3662109375)"></g><g id="g-root-ic_rota_1um5h76n3g1sc-stroke" data-item-order="0" transform="translate(92, 341.3662109375)"><g id="ic_rota_1um5h76n3g1sc-stroke" fill="none" stroke-linecap="round" stroke-linejoin="round" stroke-miterlimit="4" stroke="#4e88e7" stroke-width="2"><g><path d="M 11.875153 68.125L 54.375248 68.125M 23.875124 30.374752C 27.125126 33.624748 31.625126 35.624748 36.625 35.624748M 40.375 42.375C 38.375 44.375 35.875 45.875 32.625023 45.875C 26.875025 45.875 22.375025 41.375 22.375025 35.625C 22.375025 28.87495 29.125025 23.62495 36.125 25.87495M 49.625 60.375252C 46.375 54.375248 40.125 50.125 32.875076 50.125C 25.625074 50.125 19.125099 54.375248 15.8751 60.375252M 44.53125 21.298525C 48.326752 25.347174 53.640751 27.624525 59.713749 27.624525C 62.750248 27.624525 65.533501 27.11845 68.063995 25.853251M 63.375 17.374926C 66.375 19.624926 68.125 23.124926 68.125 27.124924C 68.125 34.124924 62.625 39.625 55.625 39.625C 48.625 39.625 43.125 34.124924 43.125 27.124924C 43.125 20.885851 47.494247 15.8384 53.400501 14.81475M 10 10M 51.375 11.874695L 55.875 14.8747L 52.625 19.624701"></path></g></g></g><g id="g-root-ic_redi_3cwuqn2z7k8-stroke" data-item-order="0" transform="translate(260, 341.3662109375)"><g id="ic_redi_3cwuqn2z7k8-stroke" fill="none" stroke-linecap="round" stroke-linejoin="round" stroke-miterlimit="4" stroke="#1eabda" stroke-width="2"><g><path d="M 31.375 41.875252C 42.144501 41.875252 50.875 38.0695 50.875 33.375175C 50.875 28.68075 42.144501 24.875175 31.375 24.875175C 20.60545 24.875175 11.875 28.68075 11.875 33.375175C 11.875 38.0695 20.60545 41.875252 31.375 41.875252ZM 11.875 34.12505L 11.875 59.625C 11.875 64.375 20.625 68.125 31.375 68.125C 42.125 68.125 50.875 64.375 50.875 59.625L 50.875 34.12505M 58.125 34.375301L 68.125 34.375301L 68.125 24.375301C 66.125 24.375301 64.375 22.625299 64.375 20.625301C 64.375 18.625299 66.125 16.875299 68.125 16.875299L 68.125 11.875305L 30.625 11.875305L 30.625 16.875299C 31.875 16.875299 32.875027 17.375299 33.375023 18.125299M 41.875 18.125299L 41.875 19.375299M 49.375 18.125299L 49.375 21.875301M 56.875 18.125299L 56.875 24.375301M 26.302025 60.630497L 26.302025 49.099751C 26.302025 48.743752 26.590574 48.45525 26.946476 48.45525L 26.946476 48.45525C 27.175699 48.45525 27.38765 48.577 27.503149 48.775002L 30.612125 54.1045C 30.770426 54.375999 31.060902 54.542751 31.37505 54.542751L 31.37505 54.542751C 31.689175 54.542751 31.979675 54.375999 32.137951 54.1045L 35.246998 48.775002C 35.362503 48.577 35.574501 48.45525 35.803497 48.45525L 35.803497 48.45525C 36.1595 48.45525 36.447998 48.743752 36.447998 49.099751L 36.447998 60.630497"></path></g></g></g><g id="g-root-ic_1_18i6f6an30kr0-stroke" data-item-order="0" transform="translate(428, 341.3662109375)"><g id="ic_1_18i6f6an30kr0-stroke" fill="none" stroke-linecap="round" stroke-linejoin="round" stroke-miterlimit="4" stroke="#3cc583" stroke-width="2"><g><path d="M 56.25 68.75L 56.25 51C 56.270672 47.134613 53.243336 43.938667 49.3825 43.75L 41.25 43.75L 41.25 30C 41.25 27.928932 39.571068 26.25 37.5 26.25C 35.428932 26.25 33.75 27.928932 33.75 30L 33.75 51.25L 30.852499 47.627499C 29.581779 46.022343 27.277084 45.692398 25.607037 46.876537C 23.936993 48.06068 23.485741 50.344727 24.58 52.075001L 35 68.75M 28.75 11.2475L 16.25 28.747499L 11.25 23.747499M 51.25 11.2475L 68.75 28.747499M 68.75 11.2475L 51.25 28.747499"></path></g></g></g><g id="g-root-ic_2_zknzo2n320p1-stroke" data-item-order="0" transform="translate(596, 341.3662109375)"><g id="ic_2_zknzo2n320p1-stroke" fill="none" stroke-linecap="round" stroke-linejoin="round" stroke-miterlimit="4" stroke="#92bd39" stroke-width="2"><g><path d="M 10 10M 34.0625 31.875L 14.0625 31.875C 13.026975 31.875 12.1875 32.714474 12.1875 33.75L 12.1875 46.25C 12.1875 47.2855 13.026975 48.125 14.0625 48.125L 34.0625 48.125C 35.098 48.125 35.9375 47.2855 35.9375 46.25L 35.9375 33.75C 35.9375 32.714474 35.098 31.875 34.0625 31.875ZM 10 10M 35.9375 40L 56.5625 40M 10 10M 56.5625 62.5L 49.0625 62.5C 48.068001 62.5 47.113998 62.104996 46.410748 61.401749C 45.7075 60.698502 45.3125 59.744499 45.3125 58.75L 45.3125 21.25C 45.3125 20.255449 45.7075 19.301624 46.410748 18.598351C 47.113998 17.8951 48.068001 17.5 49.0625 17.5L 56.5625 17.5M 67.8125 62.5C 67.8125 59.393501 65.293999 56.875 62.1875 56.875C 59.081001 56.875 56.5625 59.393501 56.5625 62.5C 56.5625 65.606499 59.081001 68.125 62.1875 68.125C 65.293999 68.125 67.8125 65.606499 67.8125 62.5ZM 67.8125 40C 67.8125 36.893497 65.293999 34.375 62.1875 34.375C 59.081001 34.375 56.5625 36.893497 56.5625 40C 56.5625 43.106503 59.081001 45.625 62.1875 45.625C 65.293999 45.625 67.8125 43.106503 67.8125 40ZM 67.8125 17.5C 67.8125 14.3934 65.293999 11.875 62.1875 11.875C 59.081001 11.875 56.5625 14.3934 56.5625 17.5C 56.5625 20.6066 59.081001 23.125 62.1875 23.125C 65.293999 23.125 67.8125 20.6066 67.8125 17.5Z"></path></g></g></g><g id="g-root-ic_chip_1lr5176n33ev5-stroke" data-item-order="0" transform="translate(764, 341.3662109375)"><g id="ic_chip_1lr5176n33ev5-stroke" fill="none" stroke-linecap="round" stroke-linejoin="round" stroke-miterlimit="4" stroke="#e0cb15" stroke-width="2"><g><path d="M 31.374973 41.875C 42.144501 41.875 50.875 38.069252 50.875 33.374874C 50.875 28.68045 42.144501 24.874876 31.374973 24.874876C 20.605425 24.874876 11.875 28.68045 11.875 33.374874C 11.875 38.069252 20.605425 41.875 31.374973 41.875ZM 11.875 34.124752L 11.875 59.624748C 11.875 64.374756 20.624975 68.124756 31.374973 68.124756C 42.125 68.124756 50.875 64.374756 50.875 59.624748L 50.875 34.124752M 46.875 20.625L 46.875 18.125C 46.875 16.625 47.875 15.625 49.375 15.625L 61.875 15.625C 63.375 15.625 64.375 16.625 64.375 18.125L 64.375 25.625C 64.375 27.125 63.375 28.125 61.875 28.125L 55.625 28.125M 48.125 11.875L 48.125 15.8957M 55.625 11.875L 55.625 15.625M 63.125 11.875L 63.125 15.8957M 55.625 28.125L 55.625 31.875M 10 10M 63.125 27.845449L 63.125 31.875M 68.125 25.625L 64.375 25.625M 68.125 18.125L 64.375 18.125M 46.875 18.125L 43.125 18.125M 10 10M 26.8834 61.10725L 26.8834 55.82325M 26.8834 55.82325L 26.8834 48.425251L 31.639149 48.425251C 33.682026 48.425251 35.337997 50.081249 35.337997 52.124252L 35.337997 52.124252C 35.337997 54.167 33.682026 55.82325 31.639149 55.82325L 26.8834 55.82325ZM 10 10M 32.167675 55.823002L 35.866501 61.10725"></path></g></g></g><g id="g-root-ic_chip_hxrkcymjfevb-stroke" data-item-order="0" transform="translate(932, 341.3662109375)"><g id="ic_chip_hxrkcymjfevb-stroke" fill="none" stroke-linecap="round" stroke-linejoin="round" stroke-miterlimit="4" stroke="#7f64ea" stroke-width="2"><g><path d="M 33.125 11.875L 15.625 11.875L 15.625 49.375L 33.125 49.375L 33.125 11.875ZM 15.625 24.375L 33.125 24.375M 15.625 36.875L 33.125 36.875M 64.375 11.875L 46.875 11.875L 46.875 49.375L 64.375 49.375L 64.375 11.875ZM 46.875 24.375L 64.375 24.375M 46.875 36.875L 64.375 36.875M 10 10M 30.37505 61.625252L 24.12505 55.375252L 17.87505 61.625252M 56.125 57.375252L 56.125 63.1255C 56.125 65.875504 53.875 68.125504 51.125 68.125504L 29.12505 68.125504C 26.37505 68.125504 24.12505 65.875504 24.12505 63.1255L 24.12505 55.375252"></path></g></g></g><g id="g-root-ic_up_4ijxw2n34s91-stroke" data-item-order="0" transform="translate(1100, 341.3662109375)"><g id="ic_up_4ijxw2n34s91-stroke" fill="none" stroke-linecap="round" stroke-linejoin="round" stroke-miterlimit="4" stroke="#de8431" stroke-width="2"><g><path d="M 38.752502 38.747498L 38.752502 11.2475M 28.752501 21.247499L 38.752502 11.2475L 48.752502 21.247499M 13.7525 51.247501L 66.252502 51.247501C 66.252502 51.247501 68.752502 51.247501 68.752502 53.747501L 68.752502 66.247498C 68.752502 66.247498 68.752502 68.747498 66.252502 68.747498L 13.7525 68.747498C 13.7525 68.747498 11.2525 68.747498 11.2525 66.247498L 11.2525 53.747501C 11.2525 53.747501 11.2525 51.247501 13.7525 51.247501"></path></g></g></g><g id="g-root-tx_agentsel_1lw4qqan3elfz-stroke" data-item-order="0" transform="translate(14, 179.3662109375)"></g><g id="g-root-tx_usemctst_1hi6nv6n3el8h-stroke" data-item-order="0" transform="translate(362, 179.3662109375)"></g><g id="g-root-tx_computeu_18efhhun3fzlv-stroke" data-item-order="0" transform="translate(716, 179.3662109375)"></g><g id="g-root-tx_generate_1hefwian366tn-stroke" data-item-order="0" transform="translate(524, 527.3662109375)"></g><g id="g-root-tx_neweleme_1hapxo2pb8j5t-stroke" data-item-order="0" transform="translate(878, 527.3662109375)"></g><g id="g-root-tx_computee_18hjy36n36682-stroke" data-item-order="0" transform="translate(200, 563.3662109375)"></g><g id="g-root-tx_createaw_1lvicsyn3687g-stroke" data-item-order="0" transform="translate(518, 563.3662109375)"></g><g id="g-root-tx_sampleac_zqwqj6n366fi-stroke" data-item-order="0" transform="translate(1022, 179.3662109375)"></g><g id="g-root-tx_calculat_1hbbj2qn366f5-stroke" data-item-order="0" transform="translate(224, 527.3662109375)"></g></g></g><path id="w143mns2ncxedf" d="M65.283 12.757a.35.35 0 0 0 .584.157l5.203-5.141-6.183 3.523.396 1.461zm-2.216-11.7a.35.35 0 0 0-.522.305v3.111l3.276-1.868-2.754-1.548zm3.728 2.105l-4.25 2.421v2.445l6.391-3.644-2.141-1.222zm4.708 3.303a.35.35 0 0 0 0-.609l-1.592-.9-7.365 4.199v1.782a.35.35 0 0 0 .523.305l8.435-4.777z M44.542 2.513c0-.433.355-.783.792-.783s.792.35.792.783-.355.783-.792.783-.792-.35-.792-.783zm59.171 0c0-.433.355-.783.792-.783s.792.35.792.783-.355.783-.792.783-.792-.35-.792-.783zm-85.951 7.636h-1.27v-.487c-.276.201-.864.609-1.881.609-1.202 0-2.274-.794-2.137-2.078.118-1.106 1.153-1.584 1.848-1.727l2.17-.345c0-.539-.29-.956-1.064-1.006s-1.21.305-1.571 1.017l-1.124-.605c1.218-2.631 5.029-1.764 5.029.414v4.207zm-1.27-2.86c.006.396-.062 1.112-.819 1.59-.587.37-1.841.299-1.903-.395-.049-.555.461-.791.906-.898l1.816-.297zm72.662 2.86h-1.27v-.487c-.276.201-.864.609-1.881.609-1.202 0-2.274-.794-2.137-2.078.118-1.106 1.153-1.584 1.848-1.727l2.17-.345c0-.539-.29-.956-1.064-1.006s-1.21.305-1.571 1.017l-1.124-.605c1.218-2.631 5.029-1.764 5.029.414v4.207zm-1.27-2.86c.006.396-.062 1.112-.82 1.59-.587.37-1.841.299-1.903-.395-.049-.555.461-.791.906-.898l1.816-.297zM99.096 10.149H97.85v-8.45h1.246v4.895l2.68-2.559h1.738l-2.633 2.535 2.715 3.578h-1.556l-2.077-2.707-.867.844v1.863zm6.053-6.114h-1.255v6.113h1.255V4.035zm-59.2 0h-1.255v6.113h1.255V4.035zm5.584 6.113V1.697h1.255v2.695c.361-.346 1-.485 1.47-.485 1.452 0 2.477 1.082 2.457 2.448v3.792h-1.27v-3.68c0-.408-.214-1.339-1.315-1.339-.968 0-1.342.756-1.342 1.339v3.681h-1.255zm-4.76-4.894V4.039h.621a.45.45 0 0 0 .45-.45v-.855h1.251v1.305h1.309v1.215h-1.309v3.109c0 .293.105.664.648.664.365 0 .531-.035.736-.07v1.137s-.361.113-.857.113c-1.398 0-1.777-1.051-1.777-1.788V5.254h-1.071zM36.528 4.039h-1.394l2.191 6.106h1.125l1.234-3.918 1.238 3.918h1.129l2.188-6.106h-1.383l-1.359 3.93-1.256-3.93h-1.124l-1.242 3.957-1.348-3.957zM26.212 7.141c-.02 1.566 1.187 3.129 3.223 3.129 1.566 0 2.383-.918 2.734-1.719L31.172 8c-.315.399-.801 1.094-1.738 1.094-1.145 0-1.825-.781-1.891-1.52h4.625c.074-.284.148-.995-.03-1.559-.336-1.064-1.221-2.102-2.839-2.102s-3.088 1.152-3.088 3.227zm1.363-.75h3.348c-.055-.43-.566-1.301-1.623-1.301a1.79 1.79 0 0 0-1.725 1.301zm-8.758.75c.038 1.758 1.277 3.133 3.145 3.133 1.074 0 1.723-.477 1.961-.672v.547h1.242V1.703h-1.258v2.888c-.414-.36-1.062-.68-1.93-.68-1.91 0-3.198 1.473-3.16 3.23zm1.309-.08c0 1.119.723 1.978 1.836 1.978a1.88 1.88 0 0 0 1.94-1.904c0-1.371-1.011-1.99-1.972-1.99s-1.805.798-1.805 1.916zm76.683-.028C96.771 5.275 95.532 3.9 93.664 3.9c-1.074 0-1.723.477-1.961.672v-.547h-1.242v8.22h1.258V9.583c.414.36 1.063.68 1.93.68 1.91 0 3.198-1.473 3.16-3.23zm-1.309.08c0-1.119-.723-1.978-1.836-1.978a1.88 1.88 0 0 0-1.94 1.904c0 1.371 1.011 1.99 1.972 1.99S95.5 8.231 95.5 7.113zM106.441 10.173V4.036h1.254v.382c.361-.346 1-.485 1.47-.485 1.452 0 2.477 1.082 2.457 2.448v3.792h-1.27V6.492c0-.408-.214-1.339-1.315-1.339-.969 0-1.342.756-1.342 1.339v3.681h-1.254zm-30.383-.021V1.824h1.084l4.215 5.777V1.824h1.32v8.328h-1.094l-4.207-5.796v5.796h-1.319zM5.24 10.149H4V2.377h1.014l2.664 3.597 2.654-3.592h1.03v7.766h-1.256V4.762L7.678 8.068 5.24 4.742v5.407z" transform="translate(2057.165771484375, 626)" fill="#80808088" stroke="none"></path></svg>