<?xml version="1.0" encoding="utf-8" standalone="yes"?>
<!DOCTYPE svg PUBLIC "-//W3C//DTD SVG 1.1//EN" "http://www.w3.org/Graphics/SVG/1.1/DTD/svg11.dtd">
<svg width="840" height="912" viewBox="0 0 840 912" style="fill:none;stroke:none;fill-rule:evenodd;clip-rule:evenodd;stroke-linecap:round;stroke-linejoin:round;stroke-miterlimit:1.5;" version="1.1" xmlns="http://www.w3.org/2000/svg" xmlns:xlink="http://www.w3.org/1999/xlink"><style class="text-font-style fontImports" data-font-family="Roboto">@import url('https://fonts.googleapis.com/css2?family=Roboto:wght@400;700&amp;display=block');</style><g id="items" style="isolation: isolate"><g id="blend" style="mix-blend-mode: normal"><g id="g-root-cp_4_g-4_i0w774paui9y-fill" data-item-order="-646264" transform="translate(26, 98)"><g id="cp_4_g-4_i0w774paui9y-fill" stroke="none" fill="#fffbda"><g><path d="M 742 388C 742 596.763367 578.136536 766 376 766C 173.863419 766 10 596.763367 10 388C 10 179.236588 173.863419 10 376 10C 578.136536 10 742 179.236588 742 388Z"></path></g></g></g><g id="g-root-cp_3_g-3_1q5q44wpavwnc-fill" data-item-order="-646252" transform="translate(50, 230.5)"><g id="cp_3_g-3_1q5q44wpavwnc-fill" stroke="none" fill="#edf4ff"><g><path d="M 593.202637 157.13855C 722.903259 292.12915 672.733643 447.307281 558.176331 548.707275C 443.619995 650.106262 245.610352 622.874939 115.910706 487.884369C -13.789913 352.8927 -26.06601 161.261444 88.490891 59.861767C 203.048065 -41.537498 463.502991 22.147916 593.202637 157.13855Z"></path></g></g></g><g id="g-root-cp_2_g-2_18f2kq8pavvuq-fill" data-item-order="-646240" transform="translate(157.99996948242188, 362.5)"><g id="cp_2_g-2_18f2kq8pavvuq-fill" stroke="none" fill="#e3fff2"><g><path d="M 441.291016 162.8992C 480.991059 276.485382 424.577454 396.301636 315.287018 430.515015C 205.996628 464.729401 59.888554 422.050903 20.188408 308.464722C -19.511739 194.878525 62.229329 53.398415 171.520218 19.18432C 280.810639 -15.029772 401.590943 49.313751 441.291016 162.8992Z"></path></g></g></g><g id="g-root-cp_1_g-1_v3m2cwpavxfo-fill" data-item-order="-646228" transform="translate(254, 506.5)"><g id="cp_1_g-1_v3m2cwpavxfo-fill" stroke="none" fill="#f4ffdc"><g><path d="M 261.681351 138.386002C 256.90155 62.149101 196.753906 4.8343 127.337044 10.3694C 57.920998 15.9046 5.522799 82.193604 10.302674 158.429993C 15.082548 234.667007 78.110397 266.929993 147.52626 261.393997C 216.94313 255.858994 266.461121 214.621994 261.681351 138.386002Z"></path></g></g></g><g id="g-root-tx_activein_hss12opavvuu-fill" data-item-order="0" transform="translate(260, 38)"><g id="tx_activein_hss12opavvuu-fill" stroke="none" fill="#484848"><g><text style="font: 20px &quot;Roboto&quot;, sans-serif; white-space: pre;" font-size="20px" font-family="'Roboto', sans-serif"><tspan x="14.88" y="34" dominant-baseline="ideographic">Active Inference Model Structure</tspan></text></g></g></g><g id="g-root-tx_paramete_zlazqopavvnr-fill" data-item-order="0" transform="translate(314, 146)"><g id="tx_paramete_zlazqopavvnr-fill" stroke="none" fill="#e0cb15"><g><text style="font: bold 20px &quot;Roboto&quot;, sans-serif; white-space: pre;" font-weight="bold" font-size="20px" font-family="'Roboto', sans-serif"><tspan x="11.78" y="34" dominant-baseline="ideographic">Parameters</tspan></text></g></g></g><g id="g-root-tx_definemo_1uonzowpavx1k-fill" data-item-order="0" transform="translate(314, 182)"><g id="tx_definemo_1uonzowpavx1k-fill" stroke="none" fill="#e0cb15"><g><text style="font: 15px &quot;Roboto&quot;, sans-serif; white-space: pre;" font-size="15px" font-family="'Roboto', sans-serif"><tspan x="13.61" y="31" dominant-baseline="ideographic">Define model behavior</tspan></text></g></g></g><g id="g-root-tx_recognit_mbpwmopavw8x-fill" data-item-order="0" transform="translate(194, 266)"><g id="tx_recognit_mbpwmopavw8x-fill" stroke="none" fill="#4e88e7"><g><text style="font: bold 20px &quot;Roboto&quot;, sans-serif; white-space: pre;" font-weight="bold" font-size="20px" font-family="'Roboto', sans-serif"><tspan x="15.09" y="34" dominant-baseline="ideographic">Recognition Model  φ</tspan></text></g></g></g><g id="g-root-tx_inferenc_18jfwc0pavyfe-fill" data-item-order="0" transform="translate(194, 302)"><g id="tx_inferenc_18jfwc0pavyfe-fill" stroke="none" fill="#4e88e7"><g><text style="font: 15px &quot;Roboto&quot;, sans-serif; white-space: pre;" font-size="15px" font-family="'Roboto', sans-serif"><tspan x="13.38" y="28" dominant-baseline="ideographic">Inferences states φs</tspan><tspan x="30.02" y="46" dominant-baseline="ideographic"> and actions φa</tspan></text></g></g></g><g id="g-root-tx_generati_4mbbe8pavwuj-fill" data-item-order="0" transform="translate(302, 410)"><g id="tx_generati_4mbbe8pavwuj-fill" stroke="none" fill="#3cc583"><g><text style="font: bold 20px &quot;Roboto&quot;, sans-serif; white-space: pre;" font-weight="bold" font-size="20px" font-family="'Roboto', sans-serif"><tspan x="13.03" y="34" dominant-baseline="ideographic">Generative Model θ</tspan></text></g></g></g><g id="g-root-tx_generate_vahab4pavvus-fill" data-item-order="0" transform="translate(302, 446)"><g id="tx_generate_vahab4pavvus-fill" stroke="none" fill="#3cc583"><g><text style="font: 15px &quot;Roboto&quot;, sans-serif; white-space: pre;" font-size="15px" font-family="'Roboto', sans-serif"><tspan x="13.37" y="28" dominant-baseline="ideographic">Generates observations  θo </tspan><tspan x="44.97" y="46" dominant-baseline="ideographic">and transitions θs</tspan></text></g></g></g><g id="g-root-tx_activein_1qdua9cpavx8l-fill" data-item-order="0" transform="translate(302, 596)"><g id="tx_activein_1qdua9cpavx8l-fill" stroke="none" fill="#92bd39"><g><text style="font: bold 20px &quot;Roboto&quot;, sans-serif; white-space: pre;" font-weight="bold" font-size="20px" font-family="'Roboto', sans-serif"><tspan x="14.58" y="34" dominant-baseline="ideographic">Active Inference</tspan></text></g></g></g><g id="g-root-tx_corefram_mgppbkpavvnq-fill" data-item-order="0" transform="translate(302, 632)"><g id="tx_corefram_mgppbkpavvnq-fill" stroke="none" fill="#92bd39"><g><text style="font: 15px &quot;Roboto&quot;, sans-serif; white-space: pre;" font-size="15px" font-family="'Roboto', sans-serif"><tspan x="23.37" y="28" dominant-baseline="ideographic">Core framework for </tspan><tspan x="15.67" y="46" dominant-baseline="ideographic">perception and action</tspan></text></g></g></g><g id="g-root-cp_4_g-4_i0w774paui9y-stroke" data-item-order="-646264" transform="translate(26, 98)"><g id="cp_4_g-4_i0w774paui9y-stroke" fill="none" stroke-linecap="round" stroke-linejoin="round" stroke-miterlimit="4" stroke="#e0cb15" stroke-width="2"><g><path d="M 742 388C 742 596.763611 578.136169 766 376 766C 173.863815 766 10 596.763611 10 388C 10 179.236374 173.863815 10 376 10C 578.136169 10 742 179.236374 742 388Z"></path></g></g></g><g id="g-root-cp_3_g-3_1q5q44wpavwnc-stroke" data-item-order="-646252" transform="translate(50, 230.5)"><g id="cp_3_g-3_1q5q44wpavwnc-stroke" fill="none" stroke-linecap="round" stroke-linejoin="round" stroke-miterlimit="4" stroke="#4e88e7" stroke-width="2"><g><path d="M 593.203003 157.138748C 722.903259 292.129578 672.733704 447.307587 558.176758 548.706909C 443.619904 650.105957 245.610458 622.874634 115.910217 487.88382C -13.789913 352.893005 -26.06601 161.261032 88.490891 59.861767C 203.047791 -41.537498 463.502899 22.147916 593.203003 157.138748Z"></path></g></g></g><g id="g-root-cp_2_g-2_18f2kq8pavvuq-stroke" data-item-order="-646240" transform="translate(157.99996948242188, 362.5)"><g id="cp_2_g-2_18f2kq8pavvuq-stroke" fill="none" stroke-linecap="round" stroke-linejoin="round" stroke-miterlimit="4" stroke="#3cc583" stroke-width="2"><g><path d="M 441.291199 162.899719C 480.991333 276.485718 424.577149 396.301331 315.286744 430.515411C 205.996247 464.729523 59.888554 422.050354 20.188408 308.464508C -19.511739 194.878525 62.229329 53.398415 171.519745 19.18432C 280.810242 -15.029772 401.591034 49.313751 441.291199 162.899719Z"></path></g></g></g><g id="g-root-cp_1_g-1_v3m2cwpavxfo-stroke" data-item-order="-646228" transform="translate(254, 506.5)"><g id="cp_1_g-1_v3m2cwpavxfo-stroke" fill="none" stroke-linecap="round" stroke-linejoin="round" stroke-miterlimit="4" stroke="#92bd39" stroke-width="2"><g><path d="M 261.681442 138.385498C 256.90155 62.149101 196.753647 4.8343 127.337318 10.3694C 57.920998 15.9046 5.522799 82.193604 10.302674 158.430099C 15.082548 234.666595 78.110397 266.929596 147.526718 261.394501C 216.943039 255.859299 266.461304 214.621994 261.681442 138.385498Z"></path></g></g></g><g id="g-root-tx_activein_hss12opavvuu-stroke" data-item-order="0" transform="translate(260, 38)"></g><g id="g-root-tx_paramete_zlazqopavvnr-stroke" data-item-order="0" transform="translate(314, 146)"></g><g id="g-root-tx_definemo_1uonzowpavx1k-stroke" data-item-order="0" transform="translate(314, 182)"></g><g id="g-root-tx_recognit_mbpwmopavw8x-stroke" data-item-order="0" transform="translate(194, 266)"></g><g id="g-root-tx_inferenc_18jfwc0pavyfe-stroke" data-item-order="0" transform="translate(194, 302)"></g><g id="g-root-tx_generati_4mbbe8pavwuj-stroke" data-item-order="0" transform="translate(302, 410)"></g><g id="g-root-tx_generate_vahab4pavvus-stroke" data-item-order="0" transform="translate(302, 446)"></g><g id="g-root-tx_activein_1qdua9cpavx8l-stroke" data-item-order="0" transform="translate(302, 596)"></g><g id="g-root-tx_corefram_mgppbkpavvnq-stroke" data-item-order="0" transform="translate(302, 632)"></g></g></g><path id="w4hblttpl6q6a" d="M65.283 12.757a.35.35 0 0 0 .584.157l5.203-5.141-6.183 3.523.396 1.461zm-2.216-11.7a.35.35 0 0 0-.522.305v3.111l3.276-1.868-2.754-1.548zm3.728 2.105l-4.25 2.421v2.445l6.391-3.644-2.141-1.222zm4.708 3.303a.35.35 0 0 0 0-.609l-1.592-.9-7.365 4.199v1.782a.35.35 0 0 0 .523.305l8.435-4.777z M44.542 2.513c0-.433.355-.783.792-.783s.792.35.792.783-.355.783-.792.783-.792-.35-.792-.783zm59.171 0c0-.433.355-.783.792-.783s.792.35.792.783-.355.783-.792.783-.792-.35-.792-.783zm-85.951 7.636h-1.27v-.487c-.276.201-.864.609-1.881.609-1.202 0-2.274-.794-2.137-2.078.118-1.106 1.153-1.584 1.848-1.727l2.17-.345c0-.539-.29-.956-1.064-1.006s-1.21.305-1.571 1.017l-1.124-.605c1.218-2.631 5.029-1.764 5.029.414v4.207zm-1.27-2.86c.006.396-.062 1.112-.819 1.59-.587.37-1.841.299-1.903-.395-.049-.555.461-.791.906-.898l1.816-.297zm72.662 2.86h-1.27v-.487c-.276.201-.864.609-1.881.609-1.202 0-2.274-.794-2.137-2.078.118-1.106 1.153-1.584 1.848-1.727l2.17-.345c0-.539-.29-.956-1.064-1.006s-1.21.305-1.571 1.017l-1.124-.605c1.218-2.631 5.029-1.764 5.029.414v4.207zm-1.27-2.86c.006.396-.062 1.112-.82 1.59-.587.37-1.841.299-1.903-.395-.049-.555.461-.791.906-.898l1.816-.297zM99.096 10.149H97.85v-8.45h1.246v4.895l2.68-2.559h1.738l-2.633 2.535 2.715 3.578h-1.556l-2.077-2.707-.867.844v1.863zm6.053-6.114h-1.255v6.113h1.255V4.035zm-59.2 0h-1.255v6.113h1.255V4.035zm5.584 6.113V1.697h1.255v2.695c.361-.346 1-.485 1.47-.485 1.452 0 2.477 1.082 2.457 2.448v3.792h-1.27v-3.68c0-.408-.214-1.339-1.315-1.339-.968 0-1.342.756-1.342 1.339v3.681h-1.255zm-4.76-4.894V4.039h.621a.45.45 0 0 0 .45-.45v-.855h1.251v1.305h1.309v1.215h-1.309v3.109c0 .293.105.664.648.664.365 0 .531-.035.736-.07v1.137s-.361.113-.857.113c-1.398 0-1.777-1.051-1.777-1.788V5.254h-1.071zM36.528 4.039h-1.394l2.191 6.106h1.125l1.234-3.918 1.238 3.918h1.129l2.188-6.106h-1.383l-1.359 3.93-1.256-3.93h-1.124l-1.242 3.957-1.348-3.957zM26.212 7.141c-.02 1.566 1.187 3.129 3.223 3.129 1.566 0 2.383-.918 2.734-1.719L31.172 8c-.315.399-.801 1.094-1.738 1.094-1.145 0-1.825-.781-1.891-1.52h4.625c.074-.284.148-.995-.03-1.559-.336-1.064-1.221-2.102-2.839-2.102s-3.088 1.152-3.088 3.227zm1.363-.75h3.348c-.055-.43-.566-1.301-1.623-1.301a1.79 1.79 0 0 0-1.725 1.301zm-8.758.75c.038 1.758 1.277 3.133 3.145 3.133 1.074 0 1.723-.477 1.961-.672v.547h1.242V1.703h-1.258v2.888c-.414-.36-1.062-.68-1.93-.68-1.91 0-3.198 1.473-3.16 3.23zm1.309-.08c0 1.119.723 1.978 1.836 1.978a1.88 1.88 0 0 0 1.94-1.904c0-1.371-1.011-1.99-1.972-1.99s-1.805.798-1.805 1.916zm76.683-.028C96.771 5.275 95.532 3.9 93.664 3.9c-1.074 0-1.723.477-1.961.672v-.547h-1.242v8.22h1.258V9.583c.414.36 1.063.68 1.93.68 1.91 0 3.198-1.473 3.16-3.23zm-1.309.08c0-1.119-.723-1.978-1.836-1.978a1.88 1.88 0 0 0-1.94 1.904c0 1.371 1.011 1.99 1.972 1.99S95.5 8.231 95.5 7.113zM106.441 10.173V4.036h1.254v.382c.361-.346 1-.485 1.47-.485 1.452 0 2.477 1.082 2.457 2.448v3.792h-1.27V6.492c0-.408-.214-1.339-1.315-1.339-.969 0-1.342.756-1.342 1.339v3.681h-1.254zm-30.383-.021V1.824h1.084l4.215 5.777V1.824h1.32v8.328h-1.094l-4.207-5.796v5.796h-1.319zM5.24 10.149H4V2.377h1.014l2.664 3.597 2.654-3.592h1.03v7.766h-1.256V4.762L7.678 8.068 5.24 4.742v5.407z" transform="translate(707, 881)" fill="#80808088" stroke="none"></path></svg>