<?xml version="1.0" encoding="utf-8" standalone="yes"?>
<!DOCTYPE svg PUBLIC "-//W3C//DTD SVG 1.1//EN" "http://www.w3.org/Graphics/SVG/1.1/DTD/svg11.dtd">
<svg width="720" height="334" viewBox="0 0 720 334" style="fill:none;stroke:none;fill-rule:evenodd;clip-rule:evenodd;stroke-linecap:round;stroke-linejoin:round;stroke-miterlimit:1.5;" version="1.1" xmlns="http://www.w3.org/2000/svg" xmlns:xlink="http://www.w3.org/1999/xlink"><style class="text-font-style fontImports" data-font-family="Roboto">@import url('https://fonts.googleapis.com/css2?family=Roboto:wght@400;700&amp;display=block');</style><g id="items" style="isolation: isolate"><g id="blend" style="mix-blend-mode: normal"><g id="g-root-sy_3_cu_59aw4vopery-fill" data-item-order="-92154" transform="translate(338, 50)"></g><g id="g-root-sy_1_cu_1lvjbl0vopczz-fill" data-item-order="-92150" transform="translate(146, 50)"></g><g id="g-root-sy_2_cu_1hfptgkvopds8-fill" data-item-order="-92146" transform="translate(290, 74)"></g><g id="g-root-tx_adaptive_4ikwo4vowemg-fill" data-item-order="0" transform="translate(230, -10)"><g id="tx_adaptive_4ikwo4vowemg-fill" stroke="none" fill="#484848"><g><text style="font: 20px &quot;Roboto&quot;, sans-serif; white-space: pre;" font-size="20px" font-family="'Roboto', sans-serif"><tspan x="16.72" y="34.33" dominant-baseline="ideographic">Efficient calculation of </tspan><tspan x="98.63" y="58.33" dominant-baseline="ideographic">EFE</tspan></text></g></g></g><g id="g-root-tx_habitual_1czwbc4vopekh-fill" data-item-order="0" transform="translate(542, 110)"><g id="tx_habitual_1czwbc4vopekh-fill" stroke="none" fill="#484848"><g><text style="font: 20px &quot;Roboto&quot;, sans-serif; white-space: pre;" font-size="20px" font-family="'Roboto', sans-serif"><tspan x="12" y="46.33" dominant-baseline="ideographic">Amortized </tspan><tspan x="12" y="70.33" dominant-baseline="ideographic">Inference Through </tspan><tspan x="12" y="94.33" dominant-baseline="ideographic">Habitual Neural </tspan><tspan x="12" y="118.33" dominant-baseline="ideographic">Network</tspan></text></g></g></g><g id="g-root-tx_montecar_74q5gvopdsa-fill" data-item-order="0" transform="translate(14, 134)"><g id="tx_montecar_74q5gvopdsa-fill" stroke="none" fill="#484848"><g><text style="font: 20px &quot;Roboto&quot;, sans-serif; white-space: pre;" font-size="20px" font-family="'Roboto', sans-serif"><tspan x="19.02" y="34.33" dominant-baseline="ideographic">Monte Carlo </tspan><tspan x="22.58" y="58.33" dominant-baseline="ideographic">Tree Search </tspan><tspan x="60.32" y="82.33" dominant-baseline="ideographic">(MCTS)</tspan></text></g></g></g><g id="g-root-ic_6_1lt1f8kvos8p2-fill" data-item-order="0" transform="translate(206, 146)"></g><g id="g-root-ic_1_4l2t0kvoqs5h-fill" data-item-order="0" transform="translate(314, 146)"></g><g id="g-root-ic_1_1qeh750vopde4-fill" data-item-order="0" transform="translate(422, 146)"></g><g id="g-root-sy_3_cu_59aw4vopery-stroke" data-item-order="-92154" transform="translate(338, 50)"><g id="sy_3_cu_59aw4vopery-stroke" fill="none" stroke-linecap="round" stroke-linejoin="round" stroke-miterlimit="4" stroke="#de8431" stroke-width="2"><g><path d="M 10 226.009C 39.147 204.116 58 169.26 58 130C 58 90.74 39.147 55.884 10 33.991C 30.056 18.927 54.985 10 82 10C 148.274 10 202 63.726 202 130C 202 196.274 148.274 250 82 250C 54.985 250 30.056 241.073 10 226.009Z"></path></g></g></g><g id="g-root-sy_1_cu_1lvjbl0vopczz-stroke" data-item-order="-92150" transform="translate(146, 50)"><g id="sy_1_cu_1lvjbl0vopczz-stroke" fill="none" stroke-linecap="round" stroke-linejoin="round" stroke-miterlimit="4" stroke="#4e88e7" stroke-width="2"><g><path d="M 202 33.991C 172.853 55.884 154 90.74 154 130C 154 169.26 172.853 204.116 202 226.009C 181.944 241.073 157.015 250 130 250C 63.726 250 10 196.274 10 130C 10 63.726 63.726 10 130 10C 157.015 10 181.944 18.927 202 33.991Z"></path></g></g></g><g id="g-root-sy_2_cu_1hfptgkvopds8-stroke" data-item-order="-92146" transform="translate(290, 74)"><g id="sy_2_cu_1hfptgkvopds8-stroke" fill="none" stroke-linecap="round" stroke-linejoin="round" stroke-miterlimit="4" stroke="#3cc583" stroke-width="2"><g><path d="M 58 202.018C 87.147 180.125 106 145.268 106 106.009C 106 66.749 87.147 31.893 58 10C 28.853 31.893 10 66.749 10 106.009C 10 145.268 28.853 180.125 58 202.018Z"></path></g></g></g><g id="g-root-tx_adaptive_4ikwo4vowemg-stroke" data-item-order="0" transform="translate(230, -10)"></g><g id="g-root-tx_habitual_1czwbc4vopekh-stroke" data-item-order="0" transform="translate(542, 110)"></g><g id="g-root-tx_montecar_74q5gvopdsa-stroke" data-item-order="0" transform="translate(14, 134)"></g><g id="g-root-ic_6_1lt1f8kvos8p2-stroke" data-item-order="0" transform="translate(206, 146)"><g id="ic_6_1lt1f8kvos8p2-stroke" fill="none" stroke-linecap="round" stroke-linejoin="round" stroke-miterlimit="4" stroke="#4e88e7" stroke-width="2"><g><path d="M 34 20.998001L 34 46.998001M 21 12.998L 47 12.998C 47 12.998 49 12.998 49 14.998L 49 18.998001C 49 18.998001 49 20.998001 47 20.998001L 21 20.998001C 21 20.998001 19 20.998001 19 18.998001L 19 14.998C 19 14.998 19 12.998 21 12.998M 31 46.998001L 37 46.998001C 37 46.998001 39 46.998001 39 48.998001L 39 54.998001C 39 54.998001 39 56.998001 37 56.998001L 31 56.998001C 31 56.998001 29 56.998001 29 54.998001L 29 48.998001C 29 48.998001 29 46.998001 31 46.998001M 13 46.998001L 19 46.998001C 19 46.998001 21 46.998001 21 48.998001L 21 54.998001C 21 54.998001 21 56.998001 19 56.998001L 13 56.998001C 13 56.998001 11 56.998001 11 54.998001L 11 48.998001C 11 48.998001 11 46.998001 13 46.998001M 49 46.998001L 55 46.998001C 55 46.998001 57 46.998001 57 48.998001L 57 54.998001C 57 54.998001 57 56.998001 55 56.998001L 49 56.998001C 49 56.998001 47 56.998001 47 54.998001L 47 48.998001C 47 48.998001 47 46.998001 49 46.998001M 51 47L 51 37C 51 35.895432 50.104568 35 49 35L 19 35C 17.895432 35 17 35.895432 17 37L 17 47"></path></g></g></g><g id="g-root-ic_1_4l2t0kvoqs5h-stroke" data-item-order="0" transform="translate(314, 146)"><g id="ic_1_4l2t0kvoqs5h-stroke" fill="none" stroke-linecap="round" stroke-linejoin="round" stroke-miterlimit="4" stroke="#3cc583" stroke-width="2"><g><path d="M 13 11L 55 11C 55 11 57 11 57 13L 57 55C 57 55 57 57 55 57L 13 57C 13 57 11 57 11 55L 11 13C 11 13 11 11 13 11M 17 32C 17 36.970562 21.029438 41 26 41C 30.970562 41 35 36.970562 35 32C 35 27.029438 30.970562 23 26 23C 21.029438 23 17 27.029438 17 32M 39 17L 29 17C 27.89543 17 27 17.895432 27 19L 27 23.056C 31.178534 23.523289 34.476707 26.821466 34.944 31L 39 31C 40.104568 31 41 30.10457 41 29L 41 19C 41 17.895432 40.104568 17 39 17ZM 47 23L 53 23M 47 27L 51 27M 17 47L 35 47M 17 51L 23 51M 39 36L 45.639999 41.534M 47 41L 51 41C 51 41 53 41 53 43L 53 51C 53 51 53 53 51 53L 47 53C 47 53 45 53 45 51L 45 43C 45 43 45 41 47 41M 27 51L 29 51M 47 19L 53 19"></path></g></g></g><g id="g-root-ic_1_1qeh750vopde4-stroke" data-item-order="0" transform="translate(422, 146)"><g id="ic_1_1qeh750vopde4-stroke" fill="none" stroke-linecap="round" stroke-linejoin="round" stroke-miterlimit="4" stroke="#de8431" stroke-width="2"><g><path d="M 16.348 45.931999L 12 57M 18 57L 19.785999 47M 51.652 45.931999L 56 57M 50 57L 48.214001 47M 38.664001 34.732002L 45.880001 40.503998M 22.119999 40.503998L 29.334 34.732002M 18.622 39.035999L 17.66 28.938M 30.195999 48.223999L 22.614 44.686001M 45.383999 44.688L 37.804001 48.223999M 50.334 29L 49.377998 39.026001M 37.697998 16.524L 47.414001 20.524M 20.584 20.524L 30.304001 16.521999M 15 43C 15 45.209141 16.790861 47 19 47C 21.209139 47 23 45.209141 23 43C 23 40.790863 21.209139 39 19 39C 16.790861 39 15 40.790863 15 43ZM 30 15C 30 17.209139 31.790861 19 34 19C 36.209137 19 38 17.209139 38 15C 38 12.790861 36.209137 11 34 11C 31.790861 11 30 12.790861 30 15ZM 12 24C 12 26.761423 14.238577 29 17 29C 19.761425 29 22 26.761423 22 24C 22 21.238577 19.761425 19 17 19C 14.238577 19 12 21.238577 12 24ZM 45 43C 45 45.209141 46.790859 47 49 47C 51.209141 47 53 45.209141 53 43C 53 40.790863 51.209141 39 49 39C 46.790859 39 45 40.790863 45 43ZM 46 24C 46 26.761423 48.238575 29 51 29C 53.761425 29 56 26.761423 56 24C 56 21.238577 53.761425 19 51 19C 48.238575 19 46 21.238577 46 24ZM 28.43 28.771999L 19 25M 49 25L 39.566002 28.774M 34 19L 34 25M 36.214001 36.576L 39 57M 29 57L 31.785999 36.576M 28 31C 28 34.313709 30.686293 37 34 37C 37.313709 37 40 34.313709 40 31C 40 27.686293 37.313709 25 34 25C 30.686293 25 28 27.686293 28 31Z"></path></g></g></g></g></g><path id="w1lvipgkxwjax7" d="M65.283 12.757a.35.35 0 0 0 .584.157l5.203-5.141-6.183 3.523.396 1.461zm-2.216-11.7a.35.35 0 0 0-.522.305v3.111l3.276-1.868-2.754-1.548zm3.728 2.105l-4.25 2.421v2.445l6.391-3.644-2.141-1.222zm4.708 3.303a.35.35 0 0 0 0-.609l-1.592-.9-7.365 4.199v1.782a.35.35 0 0 0 .523.305l8.435-4.777z M44.542 2.513c0-.433.355-.783.792-.783s.792.35.792.783-.355.783-.792.783-.792-.35-.792-.783zm59.171 0c0-.433.355-.783.792-.783s.792.35.792.783-.355.783-.792.783-.792-.35-.792-.783zm-85.951 7.636h-1.27v-.487c-.276.201-.864.609-1.881.609-1.202 0-2.274-.794-2.137-2.078.118-1.106 1.153-1.584 1.848-1.727l2.17-.345c0-.539-.29-.956-1.064-1.006s-1.21.305-1.571 1.017l-1.124-.605c1.218-2.631 5.029-1.764 5.029.414v4.207zm-1.27-2.86c.006.396-.062 1.112-.819 1.59-.587.37-1.841.299-1.903-.395-.049-.555.461-.791.906-.898l1.816-.297zm72.662 2.86h-1.27v-.487c-.276.201-.864.609-1.881.609-1.202 0-2.274-.794-2.137-2.078.118-1.106 1.153-1.584 1.848-1.727l2.17-.345c0-.539-.29-.956-1.064-1.006s-1.21.305-1.571 1.017l-1.124-.605c1.218-2.631 5.029-1.764 5.029.414v4.207zm-1.27-2.86c.006.396-.062 1.112-.82 1.59-.587.37-1.841.299-1.903-.395-.049-.555.461-.791.906-.898l1.816-.297zM99.096 10.149H97.85v-8.45h1.246v4.895l2.68-2.559h1.738l-2.633 2.535 2.715 3.578h-1.556l-2.077-2.707-.867.844v1.863zm6.053-6.114h-1.255v6.113h1.255V4.035zm-59.2 0h-1.255v6.113h1.255V4.035zm5.584 6.113V1.697h1.255v2.695c.361-.346 1-.485 1.47-.485 1.452 0 2.477 1.082 2.457 2.448v3.792h-1.27v-3.68c0-.408-.214-1.339-1.315-1.339-.968 0-1.342.756-1.342 1.339v3.681h-1.255zm-4.76-4.894V4.039h.621a.45.45 0 0 0 .45-.45v-.855h1.251v1.305h1.309v1.215h-1.309v3.109c0 .293.105.664.648.664.365 0 .531-.035.736-.07v1.137s-.361.113-.857.113c-1.398 0-1.777-1.051-1.777-1.788V5.254h-1.071zM36.528 4.039h-1.394l2.191 6.106h1.125l1.234-3.918 1.238 3.918h1.129l2.188-6.106h-1.383l-1.359 3.93-1.256-3.93h-1.124l-1.242 3.957-1.348-3.957zM26.212 7.141c-.02 1.566 1.187 3.129 3.223 3.129 1.566 0 2.383-.918 2.734-1.719L31.172 8c-.315.399-.801 1.094-1.738 1.094-1.145 0-1.825-.781-1.891-1.52h4.625c.074-.284.148-.995-.03-1.559-.336-1.064-1.221-2.102-2.839-2.102s-3.088 1.152-3.088 3.227zm1.363-.75h3.348c-.055-.43-.566-1.301-1.623-1.301a1.79 1.79 0 0 0-1.725 1.301zm-8.758.75c.038 1.758 1.277 3.133 3.145 3.133 1.074 0 1.723-.477 1.961-.672v.547h1.242V1.703h-1.258v2.888c-.414-.36-1.062-.68-1.93-.68-1.91 0-3.198 1.473-3.16 3.23zm1.309-.08c0 1.119.723 1.978 1.836 1.978a1.88 1.88 0 0 0 1.94-1.904c0-1.371-1.011-1.99-1.972-1.99s-1.805.798-1.805 1.916zm76.683-.028C96.771 5.275 95.532 3.9 93.664 3.9c-1.074 0-1.723.477-1.961.672v-.547h-1.242v8.22h1.258V9.583c.414.36 1.063.68 1.93.68 1.91 0 3.198-1.473 3.16-3.23zm-1.309.08c0-1.119-.723-1.978-1.836-1.978a1.88 1.88 0 0 0-1.94 1.904c0 1.371 1.011 1.99 1.972 1.99S95.5 8.231 95.5 7.113zM106.441 10.173V4.036h1.254v.382c.361-.346 1-.485 1.47-.485 1.452 0 2.477 1.082 2.457 2.448v3.792h-1.27V6.492c0-.408-.214-1.339-1.315-1.339-.969 0-1.342.756-1.342 1.339v3.681h-1.254zm-30.383-.021V1.824h1.084l4.215 5.777V1.824h1.32v8.328h-1.094l-4.207-5.796v5.796h-1.319zM5.24 10.149H4V2.377h1.014l2.664 3.597 2.654-3.592h1.03v7.766h-1.256V4.762L7.678 8.068 5.24 4.742v5.407z" transform="translate(584, 300)" fill="#80808088" stroke="none"></path></svg>