<?xml version="1.0" encoding="utf-8" standalone="yes"?>
<!DOCTYPE svg PUBLIC "-//W3C//DTD SVG 1.1//EN" "http://www.w3.org/Graphics/SVG/1.1/DTD/svg11.dtd">
<svg width="760" height="706" viewBox="0 0 760 706" style="fill:none;stroke:none;fill-rule:evenodd;clip-rule:evenodd;stroke-linecap:round;stroke-linejoin:round;stroke-miterlimit:1.5;" version="1.1" xmlns="http://www.w3.org/2000/svg" xmlns:xlink="http://www.w3.org/1999/xlink"><style class="text-font-style fontImports" data-font-family="Roboto">@import url('https://fonts.googleapis.com/css2?family=Roboto:wght@400;700&amp;display=block');</style><g id="items" style="isolation: isolate"><g id="blend" style="mix-blend-mode: normal"><g id="g-root-cp_4_g-4_1d2ee2bncxclm-fill" data-item-order="-475190" transform="translate(340.50775146484375, 50)"></g><g id="g-root-cp_3_g-3_mg3uerncxclo-fill" data-item-order="-475186" transform="translate(168.50775146484375, 50)"></g><g id="g-root-cp_2_g-2_94nc1fncxe6m-fill" data-item-order="-475182" transform="translate(168.50775146484375, 222)"></g><g id="g-root-cp_1_g-1_9msvnncxclc-fill" data-item-order="-475178" transform="translate(340.509765625, 198.28515625)"></g><g id="g-root-ic_shar_1lrsng3nd4f7l-fill" data-item-order="0" transform="translate(220.50775146484375, 105)"></g><g id="g-root-ic_cube_18iu1f7nd06xb-fill" data-item-order="0" transform="translate(447.50775146484375, 170)"></g><g id="g-root-ic_anch_1lpx86rnd5tl6-fill" data-item-order="0" transform="translate(220.50775146484375, 290)"></g><g id="g-root-ic_slic_zrkcs3nd5tdv-fill" data-item-order="0" transform="translate(411.50775146484375, 290)"></g><g id="g-root-tx_1_4n06rncyqkl-fill" data-item-order="0" transform="translate(89.50775146484375, 434)"><g id="tx_1_4n06rncyqkl-fill" stroke="none" fill="#4e88e7"><g><text style="font: bold 30px &quot;Roboto&quot;, sans-serif; white-space: pre;" font-weight="bold" font-size="30px" font-family="'Roboto', sans-serif"><tspan x="13.39" y="45.97" dominant-baseline="ideographic">1</tspan></text></g></g></g><g id="g-root-tx_2_4nkvqrncyqyo-fill" data-item-order="0" transform="translate(257.50775146484375, 434)"><g id="tx_2_4nkvqrncyqyo-fill" stroke="none" fill="#3cc583"><g><text style="font: bold 30px &quot;Roboto&quot;, sans-serif; white-space: pre;" font-weight="bold" font-size="30px" font-family="'Roboto', sans-serif"><tspan x="13.39" y="45.97" dominant-baseline="ideographic">2</tspan></text></g></g></g><g id="g-root-tx_3_1q6d7ebnd07bf-fill" data-item-order="0" transform="translate(425.50775146484375, 434)"><g id="tx_3_1q6d7ebnd07bf-fill" stroke="none" fill="#92bd39"><g><text style="font: bold 30px &quot;Roboto&quot;, sans-serif; white-space: pre;" font-weight="bold" font-size="30px" font-family="'Roboto', sans-serif"><tspan x="13.39" y="45.97" dominant-baseline="ideographic">3</tspan></text></g></g></g><g id="g-root-tx_4_8znjcjnd06bq-fill" data-item-order="0" transform="translate(593.5077514648438, 434)"><g id="tx_4_8znjcjnd06bq-fill" stroke="none" fill="#e0cb15"><g><text style="font: bold 30px &quot;Roboto&quot;, sans-serif; white-space: pre;" font-weight="bold" font-size="30px" font-family="'Roboto', sans-serif"><tspan x="13.39" y="45.97" dominant-baseline="ideographic">4</tspan></text></g></g></g><g id="g-root-tx_approxim_1hbco8jncyrkb-fill" data-item-order="0" transform="translate(41.50775146484375, 494)"><g id="tx_approxim_1hbco8jncyrkb-fill" stroke="none" fill="#4e88e7"><g><text style="font: bold 20px &quot;Roboto&quot;, sans-serif; white-space: pre;" font-weight="bold" font-size="20px" font-family="'Roboto', sans-serif"><tspan x="12" y="34.1" dominant-baseline="ideographic">Approximate </tspan><tspan x="12" y="58.1" dominant-baseline="ideographic">Distributions</tspan></text></g></g></g><g id="g-root-tx_actasvar_hx5yurncyqdi-fill" data-item-order="0" transform="translate(209.50775146484375, 494)"><g id="tx_actasvar_hx5yurncyqdi-fill" stroke="none" fill="#3cc583"><g><text style="font: bold 20px &quot;Roboto&quot;, sans-serif; white-space: pre;" font-weight="bold" font-size="20px" font-family="'Roboto', sans-serif"><tspan x="12" y="34.1" dominant-baseline="ideographic">Act as </tspan><tspan x="12" y="58.1" dominant-baseline="ideographic">Variational </tspan><tspan x="12" y="82.1" dominant-baseline="ideographic">Posterior</tspan></text></g></g></g><g id="g-root-tx_amortize_mg3uerncyqrl-fill" data-item-order="0" transform="translate(377.50775146484375, 494)"><g id="tx_amortize_mg3uerncyqrl-fill" stroke="none" fill="#92bd39"><g><text style="font: bold 20px &quot;Roboto&quot;, sans-serif; white-space: pre;" font-weight="bold" font-size="20px" font-family="'Roboto', sans-serif"><tspan x="12" y="34.1" dominant-baseline="ideographic">Amortize </tspan><tspan x="12" y="58.1" dominant-baseline="ideographic">MCTS Solution</tspan></text></g></g></g><g id="g-root-tx_traintor_m98mgjnd05qk-fill" data-item-order="0" transform="translate(545.5077514648438, 494)"><g id="tx_traintor_m98mgjnd05qk-fill" stroke="none" fill="#e0cb15"><g><text style="font: bold 20px &quot;Roboto&quot;, sans-serif; white-space: pre;" font-weight="bold" font-size="20px" font-family="'Roboto', sans-serif"><tspan x="12" y="34.1" dominant-baseline="ideographic">Train to </tspan><tspan x="12" y="58.1" dominant-baseline="ideographic">Reproduce </tspan><tspan x="12" y="82.1" dominant-baseline="ideographic">Actions</tspan></text></g></g></g><g id="g-root-tx_thenetwo_1uo24s3ncys5g-fill" data-item-order="0" transform="translate(41.50775146484375, 554)"><g id="tx_thenetwo_1uo24s3ncys5g-fill" stroke="none" fill="#484848"><g><text style="font: 15px &quot;Roboto&quot;, sans-serif; white-space: pre;" font-size="15px" font-family="'Roboto', sans-serif"><tspan x="12" y="27.8" dominant-baseline="ideographic">The network </tspan><tspan x="12" y="45.8" dominant-baseline="ideographic">approximates </tspan><tspan x="12" y="63.8" dominant-baseline="ideographic">distributions over </tspan><tspan x="12" y="81.8" dominant-baseline="ideographic">actions.</tspan></text></g></g></g><g id="g-root-tx_thenetwo_18ntu43ncysy2-fill" data-item-order="0" transform="translate(377.50775146484375, 554)"><g id="tx_thenetwo_18ntu43ncysy2-fill" stroke="none" fill="#484848"><g><text style="font: 15px &quot;Roboto&quot;, sans-serif; white-space: pre;" font-size="15px" font-family="'Roboto', sans-serif"><tspan x="12" y="30.8" dominant-baseline="ideographic">The network </tspan><tspan x="12" y="48.8" dominant-baseline="ideographic">amortizes the MCTS </tspan><tspan x="12" y="66.8" dominant-baseline="ideographic">solution.</tspan></text></g></g></g><g id="g-root-tx_itserves_1d0iyszncyrrb-fill" data-item-order="0" transform="translate(209.50775146484375, 578)"><g id="tx_itserves_1d0iyszncyrrb-fill" stroke="none" fill="#484848"><g><text style="font: 15px &quot;Roboto&quot;, sans-serif; white-space: pre;" font-size="15px" font-family="'Roboto', sans-serif"><tspan x="12" y="27.8" dominant-baseline="ideographic">It serves as a </tspan><tspan x="12" y="45.8" dominant-baseline="ideographic">variational posterior </tspan><tspan x="12" y="63.8" dominant-baseline="ideographic">approximating </tspan><tspan x="12" y="81.8" dominant-baseline="ideographic">action probabilities.</tspan></text></g></g></g><g id="g-root-tx_itistrai_1hclmernd074d-fill" data-item-order="0" transform="translate(545.5077514648438, 578)"><g id="tx_itistrai_1hclmernd074d-fill" stroke="none" fill="#484848"><g><text style="font: 15px &quot;Roboto&quot;, sans-serif; white-space: pre;" font-size="15px" font-family="'Roboto', sans-serif"><tspan x="12" y="30.8" dominant-baseline="ideographic">It is trained to </tspan><tspan x="12" y="48.8" dominant-baseline="ideographic">reproduce executed </tspan><tspan x="12" y="66.8" dominant-baseline="ideographic">actions.</tspan></text></g></g></g><g id="g-root-cp_4_g-4_1d2ee2bncxclm-stroke" data-item-order="-475190" transform="translate(340.50775146484375, 50)"><g id="cp_4_g-4_1d2ee2bncxclm-stroke" fill="none" stroke-linecap="round" stroke-linejoin="round" stroke-miterlimit="4" stroke="#e0cb15" stroke-width="2"><g><path d="M 10 10C 48.0703 10 85.0648 22.6306 115.1863 45.9124C 144.9641 68.9285 166.3611 101.0684 176.1152 137.3935L 176.1533 137.3828C 181.6947 157.2155 193.5739 174.69 209.9775 187.1385C 226.1154 199.3855 245.76 206.106 266 206.3204L 266 189.2361C 266 188.1808 267.4225 187.845 267.8944 188.7888L 301.7764 244.5528C 301.9172 244.8343 301.9172 245.1657 301.7764 245.4472L 267.8944 301.2112C 267.4225 302.155 266 301.8192 266 300.7639L 266 283.9966C 228.8028 283.7805 192.6675 271.5103 163.0218 249.0125C 133.1106 226.313 111.4493 194.449 101.3447 158.2849C 96.0831 138.0808 84.2039 120.1364 67.685 107.3685C 51.1662 94.6005 30.8781 87.6738 10 87.6738L 10 10Z"></path></g></g></g><g id="g-root-cp_3_g-3_mg3uerncxclo-stroke" data-item-order="-475186" transform="translate(168.50775146484375, 50)"><g id="cp_3_g-3_mg3uerncxclo-stroke" fill="none" stroke-linecap="round" stroke-linejoin="round" stroke-miterlimit="4" stroke="#92bd39" stroke-width="2"><g><path d="M 10 182C 10 136.3828 28.1214 92.6339 60.3776 60.3776C 92.6339 28.1214 136.3828 9.999999 182 10L 182 87.6738C 156.9831 87.6738 132.9909 97.6117 115.3013 115.3013C 97.6117 132.9909 87.6738 156.9831 87.6738 182L 10 182Z"></path></g></g></g><g id="g-root-cp_2_g-2_94nc1fncxe6m-stroke" data-item-order="-475182" transform="translate(168.50775146484375, 222)"><g id="cp_2_g-2_94nc1fncxe6m-stroke" fill="none" stroke-linecap="round" stroke-linejoin="round" stroke-miterlimit="4" stroke="#3cc583" stroke-width="2"><g><path d="M 182 182C 159.4126 182 137.0464 177.5511 116.1784 168.9073C 95.3104 160.2635 76.3493 147.5941 60.3776 131.6224C 44.4059 115.6507 31.7365 96.6896 23.0927 75.8216C 14.4489 54.9536 10 32.5874 10 10L 87.6738 10C 87.6738 22.3871 90.1136 34.6529 94.854 46.0971C 99.5943 57.5413 106.5423 67.9397 115.3013 76.6987C 124.0603 85.4577 134.4587 92.4057 145.9029 97.1461C 157.3471 101.8864 169.6129 104.3262 182 104.3262L 182 182Z"></path></g></g></g><g id="g-root-cp_1_g-1_9msvnncxclc-stroke" data-item-order="-475178" transform="translate(340.509765625, 198.28515625)"><g id="cp_1_g-1_9msvnncxclc-stroke" fill="none" stroke-linecap="round" stroke-linejoin="round" stroke-miterlimit="4" stroke="#4e88e7" stroke-width="2"><g><path d="M 101.3428 10C 104.9806 23.9485 105.3015 38.4555 102.4186 52.5794C 99.5356 66.7033 93.4539 79.9785 84.6405 91.3855C 75.8271 102.7925 64.5165 112.0278 51.5775 118.3821C 38.6384 124.7363 24.4151 128.0405 10 128.0408L 10.0016 205.7146C 36.287 205.7141 62.2226 199.6891 85.8164 188.1023C 109.4103 176.5156 130.0346 159.6755 146.1055 138.8753C 154.5058 128.0029 161.5452 116.1997 167.1021 103.7312C 165.7283 102.7511 164.3674 101.7496 163.0199 100.727C 133.1087 78.0276 111.4473 46.1641 101.3428 10Z"></path></g></g></g><g id="g-root-ic_shar_1lrsng3nd4f7l-stroke" data-item-order="0" transform="translate(220.50775146484375, 105)"><g id="ic_shar_1lrsng3nd4f7l-stroke" fill="none" stroke-linecap="round" stroke-linejoin="round" stroke-miterlimit="4" stroke="#92bd39" stroke-width="2"><g><path d="M 37.578003 11L 54.956001 11C 54.956001 11 57 11 57 13.044L 57 29.4C 57 29.4 57 31.444 54.956001 31.444L 37.578003 31.444C 37.578003 31.444 35.534 31.444 35.534 29.4L 35.534 13.044C 35.534 13.044 35.534 11 37.578003 11M 35.534 17.962L 57 17.962M 35.534 24.704L 57 24.704M 45.242001 17.962L 45.242001 31.444M 50.998001 17.962L 50.998001 31.444M 20.200001 23.6L 15.6 28L 15.6 23.6C 15.665619 20.278273 18.4123 17.639059 21.734001 17.706001L 29.4 17.705999M 11 23.6L 15.6 28.01M 24.799999 13.29L 29.4 17.705999L 24.799999 22.122M 13.044 33.487999L 24.290001 33.487999C 24.290001 33.487999 26.334 33.487999 26.334 35.532001L 26.334 54.956001C 26.334 54.956001 26.334 57 24.290001 57L 13.044 57C 13.044 57 11 57 11 54.956001L 11 35.532001C 11 35.532001 11 33.487999 13.044 33.487999M 11 50.866001L 26.334 50.866001"></path></g></g></g><g id="g-root-ic_cube_18iu1f7nd06xb-stroke" data-item-order="0" transform="translate(447.50775146484375, 170)"><g id="ic_cube_18iu1f7nd06xb-stroke" fill="none" stroke-linecap="round" stroke-linejoin="round" stroke-miterlimit="4" stroke="#e0cb15" stroke-width="2"><g><path d="M 26 34C 27.10457 34 28 33.104568 28 32L 28 17.327999C 27.999887 16.797611 27.789099 16.288986 27.414 15.914L 23.086 11.586C 22.711014 11.210901 22.202389 11.000113 21.672001 11L 13 11C 11.895431 11 11 11.895431 11 13L 11 32C 11 33.104568 11.895431 34 13 34ZM 36 43L 50 43L 50 57L 36 57ZM 50 57L 57 50L 57 36L 43 36L 36 43M 50 43L 57 36M 52 24C 48.861038 19.132793 43.463615 16.194496 37.672001 16.200001L 34.573997 16.200001M 39.222 11.544L 34.573997 16.194L 39.222 20.841999M 12 42C 15.138965 46.86721 20.536388 49.805504 26.328001 49.800003L 29.426001 49.799999M 24.778 54.456001L 29.426001 49.806L 24.778 45.158001"></path></g></g></g><g id="g-root-ic_anch_1lpx86rnd5tl6-stroke" data-item-order="0" transform="translate(220.50775146484375, 290)"><g id="ic_anch_1lpx86rnd5tl6-stroke" fill="none" stroke-linecap="round" stroke-linejoin="round" stroke-miterlimit="4" stroke="#3cc583" stroke-width="2"><g><path d="M 11 52.700001C 12.392824 52.701324 13.781437 52.547035 15.14 52.240002C 16.459999 51.799999 12 36 14.42 35.82C 16.84 35.639999 21.279999 52.299999 23.6 51.419998C 25.92 50.540001 20.779999 26.52 23.540001 25.860001C 26.299999 25.200001 32.940002 49.860001 36.32 49.380001C 39.700001 48.900002 31.959999 14.98 35.260002 15.38C 38.559998 15.780001 47.060001 48 50.279999 48.220001C 53.5 48.439999 47.619999 22.5 57 26.219999"></path></g></g></g><g id="g-root-ic_slic_zrkcs3nd5tdv-stroke" data-item-order="0" transform="translate(411.50775146484375, 290)"><g id="ic_slic_zrkcs3nd5tdv-stroke" fill="none" stroke-linecap="round" stroke-linejoin="round" stroke-miterlimit="4" stroke="#4e88e7" stroke-width="2"><g><path d="M 14.817949 53.181454C 20.594372 58.963745 33.645943 55.284115 43.96645 44.963604C 54.286957 34.643097 57.966591 21.591526 52.184299 15.815104C 46.407875 10.03281 33.356304 13.712446 23.035797 24.032951C 12.71529 34.353462 9.035656 47.405029 14.817949 53.181454M 21 47C 17.5 43.5 22 37 25 34C 28.535999 30.464001 28.464001 27.535999 32 24C 36 20 43 17 47 21C 51 25 48 32 44 36C 40.464001 39.535999 37.535999 39.464001 34 43C 31 46 24.5 50.5 21 47ZM 40 25L 37 26M 43 28L 42 31M 34 34L 32 36M 27 41L 25 43"></path></g></g></g><g id="g-root-tx_1_4n06rncyqkl-stroke" data-item-order="0" transform="translate(89.50775146484375, 434)"></g><g id="g-root-tx_2_4nkvqrncyqyo-stroke" data-item-order="0" transform="translate(257.50775146484375, 434)"></g><g id="g-root-tx_3_1q6d7ebnd07bf-stroke" data-item-order="0" transform="translate(425.50775146484375, 434)"></g><g id="g-root-tx_4_8znjcjnd06bq-stroke" data-item-order="0" transform="translate(593.5077514648438, 434)"></g><g id="g-root-tx_approxim_1hbco8jncyrkb-stroke" data-item-order="0" transform="translate(41.50775146484375, 494)"></g><g id="g-root-tx_actasvar_hx5yurncyqdi-stroke" data-item-order="0" transform="translate(209.50775146484375, 494)"></g><g id="g-root-tx_amortize_mg3uerncyqrl-stroke" data-item-order="0" transform="translate(377.50775146484375, 494)"></g><g id="g-root-tx_traintor_m98mgjnd05qk-stroke" data-item-order="0" transform="translate(545.5077514648438, 494)"></g><g id="g-root-tx_thenetwo_1uo24s3ncys5g-stroke" data-item-order="0" transform="translate(41.50775146484375, 554)"></g><g id="g-root-tx_thenetwo_18ntu43ncysy2-stroke" data-item-order="0" transform="translate(377.50775146484375, 554)"></g><g id="g-root-tx_itserves_1d0iyszncyrrb-stroke" data-item-order="0" transform="translate(209.50775146484375, 578)"></g><g id="g-root-tx_itistrai_1hclmernd074d-stroke" data-item-order="0" transform="translate(545.5077514648438, 578)"></g></g></g><path id="wmeuzebpvescp" d="M65.283 12.757a.35.35 0 0 0 .584.157l5.203-5.141-6.183 3.523.396 1.461zm-2.216-11.7a.35.35 0 0 0-.522.305v3.111l3.276-1.868-2.754-1.548zm3.728 2.105l-4.25 2.421v2.445l6.391-3.644-2.141-1.222zm4.708 3.303a.35.35 0 0 0 0-.609l-1.592-.9-7.365 4.199v1.782a.35.35 0 0 0 .523.305l8.435-4.777z M44.542 2.513c0-.433.355-.783.792-.783s.792.35.792.783-.355.783-.792.783-.792-.35-.792-.783zm59.171 0c0-.433.355-.783.792-.783s.792.35.792.783-.355.783-.792.783-.792-.35-.792-.783zm-85.951 7.636h-1.27v-.487c-.276.201-.864.609-1.881.609-1.202 0-2.274-.794-2.137-2.078.118-1.106 1.153-1.584 1.848-1.727l2.17-.345c0-.539-.29-.956-1.064-1.006s-1.21.305-1.571 1.017l-1.124-.605c1.218-2.631 5.029-1.764 5.029.414v4.207zm-1.27-2.86c.006.396-.062 1.112-.819 1.59-.587.37-1.841.299-1.903-.395-.049-.555.461-.791.906-.898l1.816-.297zm72.662 2.86h-1.27v-.487c-.276.201-.864.609-1.881.609-1.202 0-2.274-.794-2.137-2.078.118-1.106 1.153-1.584 1.848-1.727l2.17-.345c0-.539-.29-.956-1.064-1.006s-1.21.305-1.571 1.017l-1.124-.605c1.218-2.631 5.029-1.764 5.029.414v4.207zm-1.27-2.86c.006.396-.062 1.112-.82 1.59-.587.37-1.841.299-1.903-.395-.049-.555.461-.791.906-.898l1.816-.297zM99.096 10.149H97.85v-8.45h1.246v4.895l2.68-2.559h1.738l-2.633 2.535 2.715 3.578h-1.556l-2.077-2.707-.867.844v1.863zm6.053-6.114h-1.255v6.113h1.255V4.035zm-59.2 0h-1.255v6.113h1.255V4.035zm5.584 6.113V1.697h1.255v2.695c.361-.346 1-.485 1.47-.485 1.452 0 2.477 1.082 2.457 2.448v3.792h-1.27v-3.68c0-.408-.214-1.339-1.315-1.339-.968 0-1.342.756-1.342 1.339v3.681h-1.255zm-4.76-4.894V4.039h.621a.45.45 0 0 0 .45-.45v-.855h1.251v1.305h1.309v1.215h-1.309v3.109c0 .293.105.664.648.664.365 0 .531-.035.736-.07v1.137s-.361.113-.857.113c-1.398 0-1.777-1.051-1.777-1.788V5.254h-1.071zM36.528 4.039h-1.394l2.191 6.106h1.125l1.234-3.918 1.238 3.918h1.129l2.188-6.106h-1.383l-1.359 3.93-1.256-3.93h-1.124l-1.242 3.957-1.348-3.957zM26.212 7.141c-.02 1.566 1.187 3.129 3.223 3.129 1.566 0 2.383-.918 2.734-1.719L31.172 8c-.315.399-.801 1.094-1.738 1.094-1.145 0-1.825-.781-1.891-1.52h4.625c.074-.284.148-.995-.03-1.559-.336-1.064-1.221-2.102-2.839-2.102s-3.088 1.152-3.088 3.227zm1.363-.75h3.348c-.055-.43-.566-1.301-1.623-1.301a1.79 1.79 0 0 0-1.725 1.301zm-8.758.75c.038 1.758 1.277 3.133 3.145 3.133 1.074 0 1.723-.477 1.961-.672v.547h1.242V1.703h-1.258v2.888c-.414-.36-1.062-.68-1.93-.68-1.91 0-3.198 1.473-3.16 3.23zm1.309-.08c0 1.119.723 1.978 1.836 1.978a1.88 1.88 0 0 0 1.94-1.904c0-1.371-1.011-1.99-1.972-1.99s-1.805.798-1.805 1.916zm76.683-.028C96.771 5.275 95.532 3.9 93.664 3.9c-1.074 0-1.723.477-1.961.672v-.547h-1.242v8.22h1.258V9.583c.414.36 1.063.68 1.93.68 1.91 0 3.198-1.473 3.16-3.23zm-1.309.08c0-1.119-.723-1.978-1.836-1.978a1.88 1.88 0 0 0-1.94 1.904c0 1.371 1.011 1.99 1.972 1.99S95.5 8.231 95.5 7.113zM106.441 10.173V4.036h1.254v.382c.361-.346 1-.485 1.47-.485 1.452 0 2.477 1.082 2.457 2.448v3.792h-1.27V6.492c0-.408-.214-1.339-1.315-1.339-.969 0-1.342.756-1.342 1.339v3.681h-1.254zm-30.383-.021V1.824h1.084l4.215 5.777V1.824h1.32v8.328h-1.094l-4.207-5.796v5.796h-1.319zM5.24 10.149H4V2.377h1.014l2.664 3.597 2.654-3.592h1.03v7.766h-1.256V4.762L7.678 8.068 5.24 4.742v5.407z" transform="translate(16, 676)" fill="#80808088" stroke="none"></path></svg>