<?xml version="1.0" encoding="utf-8" standalone="yes"?>
<!DOCTYPE svg PUBLIC "-//W3C//DTD SVG 1.1//EN" "http://www.w3.org/Graphics/SVG/1.1/DTD/svg11.dtd">
<svg width="624" height="430" viewBox="0 0 624 430" style="fill:none;stroke:none;fill-rule:evenodd;clip-rule:evenodd;stroke-linecap:round;stroke-linejoin:round;stroke-miterlimit:1.5;" version="1.1" xmlns="http://www.w3.org/2000/svg" xmlns:xlink="http://www.w3.org/1999/xlink"><style class="text-font-style fontImports" data-font-family="Roboto">@import url('https://fonts.googleapis.com/css2?family=Roboto:wght@400;700&amp;display=block');</style><g id="items" style="isolation: isolate"><g id="blend" style="mix-blend-mode: normal"><g id="g-root-sy_4_cu_1lw5pk3pb8ky6-fill" data-item-order="1999968327" transform="translate(228.984619140625, 237)"></g><g id="g-root-sy_3_cu_qu1ns3pb8lqf-fill" data-item-order="1999968330" transform="translate(276.984619140625, 266)"><g id="sy_3_cu_qu1ns3pb8lqf-fill" stroke="none" fill="#f5f5f5"><g><path d="M 46 22C 49.314 22 52 19.314 52 16C 52 12.686 49.314 10 46 10C 42.686 10 40 12.686 40 16C 40 19.314 42.686 22 46 22ZM 43 77.995L 49 77.995L 49 21.533C 49 21.533 47.756 22.333 46.043 22.333C 44.212 22.333 43 21.533 43 21.533L 43 77.995ZM 16.4 86C 12.865 86 10 88.865 10 92.4C 10 93.284 10.716 94 11.6 94L 80.4 94C 81.284 94 82 93.284 82 92.4C 82 88.865 79.135 86 75.6 86L 16.4 86ZM 28 78C 24.686 78 22 80.686 22 84L 22 86L 70 86L 70 84C 70 80.686 67.314 78 64 78L 28 78Z"></path></g></g></g><g id="g-root-sy_2_right-bucket_7r44jpb8lqg-fill" data-item-order="1999968334" transform="translate(360.984619140625, 242.3359375)"><g id="sy_2_right-bucket_7r44jpb8lqg-fill" stroke="none" fill="#e3fff2"><g><path d="M 10 11.800001C 10 10.806001 10.806 10.000001 11.8 10.000001L 80.2 10.000001C 81.194 10.000001 82 10.806001 82 11.800001C 82 20.747001 74.747 28.000001 65.8 28.000001L 26.2 28.000001C 17.253 28.000001 10 20.747001 10 11.800001Z"></path></g></g></g><g id="g-root-sy_1_left-bucket_1hi7mozpb8kqp-fill" data-item-order="1999968338" transform="translate(192.984619140625, 218)"><g id="sy_1_left-bucket_1hi7mozpb8kqp-fill" stroke="none" fill="#e8f9ff"><g><path d="M 10 11.8C 10 10.806 10.806 10 11.8 10L 80.2 10C 81.194 10 82 10.806 82 11.8C 82 20.747 74.747 28 65.8 28L 26.2 28C 17.253 28 10 20.747 10 11.8Z"></path></g></g></g><g id="g-root-tx_fastdeci_8zn9urpbe58o-fill" data-item-order="2000000000" transform="translate(60.984619140625, 14)"><g id="tx_fastdeci_8zn9urpbe58o-fill" stroke="none" fill="#484848"><g><text style="font: 20px &quot;Roboto&quot;, sans-serif; white-space: pre;" font-size="20px" font-family="'Roboto', sans-serif"><tspan x="14.09" y="34.1" dominant-baseline="ideographic">Fast decision-</tspan><tspan x="43.16" y="58.1" dominant-baseline="ideographic">making</tspan></text></g></g></g><g id="g-root-ic_jump_vbql5vpb8jyi-fill" data-item-order="2000000000" transform="translate(204.984619140625, 14)"></g><g id="g-root-ic_proc_18ntkmbpbbeha-fill" data-item-order="2000000000" transform="translate(372.984619140625, 38)"></g><g id="g-root-tx_delibera_18k2q3npbe80a-fill" data-item-order="2000000000" transform="translate(432.984619140625, 38)"><g id="tx_delibera_18k2q3npbe80a-fill" stroke="none" fill="#484848"><g><text style="font: 20px &quot;Roboto&quot;, sans-serif; white-space: pre;" font-size="20px" font-family="'Roboto', sans-serif"><tspan x="35.93" y="34.1" dominant-baseline="ideographic">Deliberative </tspan><tspan x="14.96" y="58.1" dominant-baseline="ideographic">decision-making</tspan></text></g></g></g><g id="g-root-tx_approxim_mccqebpbe5tt-fill" data-item-order="2000000000" transform="translate(54.984619140625, 74)"><g id="tx_approxim_mccqebpbe5tt-fill" stroke="none" fill="#484848"><g><text style="font: 20px &quot;Roboto&quot;, sans-serif; white-space: pre;" font-size="20px" font-family="'Roboto', sans-serif"><tspan x="17.53" y="34.1" dominant-baseline="ideographic">Approximates </tspan><tspan x="51.9" y="58.1" dominant-baseline="ideographic">action </tspan><tspan x="29.12" y="82.1" dominant-baseline="ideographic">distribution</tspan></text></g></g></g><g id="g-root-ic_sele_1uo1vabpbbdot-fill" data-item-order="2000000000" transform="translate(204.984619140625, 86)"></g><g id="g-root-ic_rota_dkgko3pbcqhb-fill" data-item-order="2000000000" transform="translate(372.984619140625, 110)"></g><g id="g-root-tx_futureim_4my55vpbe6ff-fill" data-item-order="2000000000" transform="translate(432.984619140625, 110)"><g id="tx_futureim_4my55vpbe6ff-fill" stroke="none" fill="#484848"><g><text style="font: 20px &quot;Roboto&quot;, sans-serif; white-space: pre;" font-size="20px" font-family="'Roboto', sans-serif"><tspan x="59.67" y="34.1" dominant-baseline="ideographic">Future </tspan><tspan x="35.41" y="58.1" dominant-baseline="ideographic">imagination</tspan></text></g></g></g><g id="g-root-tx_lowercom_4mbxkzpv953h-fill" data-item-order="2000000000" transform="translate(48.984619140625, 146)"><g id="tx_lowercom_4mbxkzpv953h-fill" stroke="none" fill="#484848"><g><text style="font: 20px &quot;Roboto&quot;, sans-serif; white-space: pre;" font-size="20px" font-family="'Roboto', sans-serif"><tspan x="52.22" y="34.1" dominant-baseline="ideographic">Lower </tspan><tspan x="13.88" y="58.1" dominant-baseline="ideographic">Computational </tspan><tspan x="58.87" y="82.1" dominant-baseline="ideographic">Cost</tspan></text></g></g></g><g id="g-root-ic_reco_6ifgjpv95vq-fill" data-item-order="2000000000" transform="translate(204.984619140625, 158)"></g><g id="g-root-ic_truc_1d1rh6rq4taff-fill" data-item-order="2000000000" transform="translate(372.984619140625, 182)"></g><g id="g-root-tx_higherco_1d1rh6rq4tafg-fill" data-item-order="2000000000" transform="translate(432.984619140625, 170)"><g id="tx_higherco_1d1rh6rq4tafg-fill" stroke="none" fill="#484848"><g><text style="font: 20px &quot;Roboto&quot;, sans-serif; white-space: pre;" font-size="20px" font-family="'Roboto', sans-serif"><tspan x="56.13" y="34.1" dominant-baseline="ideographic">Higher </tspan><tspan x="19.88" y="58.1" dominant-baseline="ideographic">Computational </tspan><tspan x="64.88" y="82.1" dominant-baseline="ideographic">Cost</tspan></text></g></g></g><g id="g-root-tx_habitual_zqb543pbe7t8-fill" data-item-order="2000000000" transform="translate(60.984619140625, 302)"><g id="tx_habitual_zqb543pbe7t8-fill" stroke="none" fill="#484848"><g><text style="font: 20px &quot;Roboto&quot;, sans-serif; white-space: pre;" font-size="20px" font-family="'Roboto', sans-serif"><tspan x="16.84" y="34.1" dominant-baseline="ideographic">Habitual Network</tspan></text></g></g></g><g id="g-root-tx_mcts_1hiu3s3pbe7m5-fill" data-item-order="2000000000" transform="translate(396.984619140625, 314)"><g id="tx_mcts_1hiu3s3pbe7m5-fill" stroke="none" fill="#484848"><g><text style="font: 20px &quot;Roboto&quot;, sans-serif; white-space: pre;" font-size="20px" font-family="'Roboto', sans-serif"><tspan x="15.04" y="34.1" dominant-baseline="ideographic">Monte Carlo Tree </tspan><tspan x="60.81" y="58.1" dominant-baseline="ideographic">Search</tspan></text></g></g></g><g id="g-root-sy_4_cu_1lw5pk3pb8ky6-stroke" data-item-order="1999968327" transform="translate(228.984619140625, 237)"><g id="sy_4_cu_1lw5pk3pb8ky6-stroke" fill="none" stroke-linecap="round" stroke-linejoin="round" stroke-miterlimit="4" stroke="#969696" stroke-width="2"><g><path d="M 178 34L 178 46.961C 178 51.765 173.796 55.485 169.028 54.901L 100 46.448M 10 10L 10 27.415C 10 31.418 12.957 34.804 16.923 35.343L 88 45"></path></g></g></g><g id="g-root-sy_3_cu_qu1ns3pb8lqf-stroke" data-item-order="1999968330" transform="translate(276.984619140625, 266)"><g id="sy_3_cu_qu1ns3pb8lqf-stroke" fill="none" stroke-linecap="round" stroke-linejoin="round" stroke-miterlimit="4" stroke="#969696" stroke-width="2"><g><path d="M 46 22C 49.314 22 52 19.314 52 16C 52 12.686 49.314 10 46 10C 42.686 10 40 12.686 40 16C 40 19.314 42.686 22 46 22ZM 43 77.995L 49 77.995L 49 21.533C 49 21.533 47.756 22.333 46.043 22.333C 44.212 22.333 43 21.533 43 21.533L 43 77.995ZM 16.4 86C 12.865 86 10 88.865 10 92.4C 10 93.284 10.716 94 11.6 94L 80.4 94C 81.284 94 82 93.284 82 92.4C 82 88.865 79.135 86 75.6 86L 16.4 86ZM 28 78C 24.686 78 22 80.686 22 84L 22 86L 70 86L 70 84C 70 80.686 67.314 78 64 78L 28 78Z"></path></g></g></g><g id="g-root-sy_2_right-bucket_7r44jpb8lqg-stroke" data-item-order="1999968334" transform="translate(360.984619140625, 242.3359375)"><g id="sy_2_right-bucket_7r44jpb8lqg-stroke" fill="none" stroke-linecap="round" stroke-linejoin="round" stroke-miterlimit="4" stroke="#3cc583" stroke-width="2"><g><path d="M 10 11.800001C 10 10.806001 10.806 10.000001 11.8 10.000001L 80.2 10.000001C 81.194 10.000001 82 10.806001 82 11.800001C 82 20.747001 74.747 28.000001 65.8 28.000001L 26.2 28.000001C 17.253 28.000001 10 20.747001 10 11.800001Z"></path></g></g></g><g id="g-root-sy_1_left-bucket_1hi7mozpb8kqp-stroke" data-item-order="1999968338" transform="translate(192.984619140625, 218)"><g id="sy_1_left-bucket_1hi7mozpb8kqp-stroke" fill="none" stroke-linecap="round" stroke-linejoin="round" stroke-miterlimit="4" stroke="#1eabda" stroke-width="2"><g><path d="M 10 11.8C 10 10.806 10.806 10 11.8 10L 80.2 10C 81.194 10 82 10.806 82 11.8C 82 20.747 74.747 28 65.8 28L 26.2 28C 17.253 28 10 20.747 10 11.8Z"></path></g></g></g><g id="g-root-tx_fastdeci_8zn9urpbe58o-stroke" data-item-order="2000000000" transform="translate(60.984619140625, 14)"></g><g id="g-root-ic_jump_vbql5vpb8jyi-stroke" data-item-order="2000000000" transform="translate(204.984619140625, 14)"><g id="ic_jump_vbql5vpb8jyi-stroke" fill="none" stroke-linecap="round" stroke-linejoin="round" stroke-miterlimit="4" stroke="#fd6a65" stroke-width="2"><g><path d="M 28 16C 28 18.761425 30.238577 21 33 21C 35.761425 21 38 18.761425 38 16C 38 13.238577 35.761425 11 33 11C 30.238577 11 28 13.238577 28 16M 41 48C 40.488564 48.00248 39.985329 47.871502 39.540001 47.619999L 31.540001 43.119999C 31.393232 43.038746 31.227736 42.997372 31.059999 42.999996L 21.060001 43C 20.095299 43.000103 19.188599 42.539322 18.619999 41.760002C 18.054909 40.978851 17.905661 39.971436 18.220001 39.060001L 23.16 24C 23.424618 23.081034 24.106232 22.340149 25 22C 25.883085 21.701696 26.853756 21.819353 27.639999 22.32L 34.200001 26.74C 34.582375 26.916008 34.999092 27.004816 35.419998 27L 42 27C 43.656857 27 45 28.343147 45 30C 45 31.656855 43.656857 33 42 33L 35.419998 33C 34.032021 32.999298 32.66301 32.677582 31.42 32.059998C 31.219999 32.059998 31.42 32.059998 27.639999 29.620001L 25.16 37L 30.959999 37C 32.15004 36.996971 33.320862 37.300011 34.360001 37.879997L 42.459999 42.380001C 43.652821 43.045326 44.245674 44.432377 43.902252 45.754322C 43.558826 47.076267 42.365826 47.999378 41 48ZM 11 49L 20.48 49C 20.804592 49.001549 21.109066 49.157501 21.299999 49.419998L 26 57M 56.5 56L 56.5 56M 57 56.5C 57 56.223858 56.776142 56 56.5 56M 56.5 57C 56.776142 57 57 56.776142 57 56.5M 56 56.5C 56 56.776142 56.223858 57 56.5 57M 56.5 56C 56.223858 56 56 56.223858 56 56.5M 40.5 56L 40.5 56M 41 56.5C 41 56.223858 40.776142 56 40.5 56M 40.5 57C 40.776142 57 41 56.776142 41 56.5M 40 56.5C 40 56.776142 40.223858 57 40.5 57M 40.5 56C 40.223858 56 40 56.223858 40 56.5M 48.5 56L 48.5 56M 49 56.5C 49 56.223858 48.776142 56 48.5 56M 48.5 57C 48.776142 57 49 56.776142 49 56.5M 48 56.5C 48 56.776142 48.223858 57 48.5 57M 48.5 56C 48.223858 56 48 56.223858 48 56.5M 32.5 56L 32.5 56M 33 56.5C 33 56.223858 32.776142 56 32.5 56M 32.5 57C 32.776142 57 33 56.776142 33 56.5M 32 56.5C 32 56.776142 32.223858 57 32.5 57M 32.5 56C 32.223858 56 32 56.223858 32 56.5M 28.5 52L 28.5 52M 29 52.5C 29 52.223858 28.776142 52 28.5 52M 28.5 53C 28.776142 53 29 52.776142 29 52.5M 28 52.5C 28 52.776142 28.223858 53 28.5 53M 28.5 52C 28.223858 52 28 52.223858 28 52.5M 44.5 52L 44.5 52M 45 52.5C 45 52.223858 44.776142 52 44.5 52M 44.5 53C 44.776142 53 45 52.776142 45 52.5M 44 52.5C 44 52.776142 44.223858 53 44.5 53M 44.5 52C 44.223858 52 44 52.223858 44 52.5M 52.5 52L 52.5 52M 53 52.5C 53 52.223858 52.776142 52 52.5 52M 52.5 53C 52.776142 53 53 52.776142 53 52.5M 52 52.5C 52 52.776142 52.223858 53 52.5 53M 52.5 52C 52.223858 52 52 52.223858 52 52.5M 36.5 52L 36.5 52M 37 52.5C 37 52.223858 36.776142 52 36.5 52M 36.5 53C 36.776142 53 37 52.776142 37 52.5M 36 52.5C 36 52.776142 36.223858 53 36.5 53M 36.5 52C 36.223858 52 36 52.223858 36 52.5M 19 25L 15 25M 17 29L 13 29M 15 33L 11 33"></path></g></g></g><g id="g-root-ic_proc_18ntkmbpbbeha-stroke" data-item-order="2000000000" transform="translate(372.984619140625, 38)"><g id="ic_proc_18ntkmbpbbeha-stroke" fill="none" stroke-linecap="round" stroke-linejoin="round" stroke-miterlimit="4" stroke="#44e095" stroke-width="2"><g><path d="M 34 11L 42 19M 42 11L 34 19M 48 31.5C 48 33.985283 50.014717 36 52.5 36C 54.985283 36 57 33.985283 57 31.5C 57 29.014719 54.985283 27 52.5 27C 50.014717 27 48 29.014719 48 31.5ZM 41 30.365999C 43.75909 23.084572 49.627197 17.416714 57 14.912001M 51.004002 13.672L 57 14.912001L 54.598 20.139999M 21 32L 21 38M 25 57L 26 45L 31 45L 31 38C 31 32.477154 26.522848 28 21 28C 15.477153 28 11 32.477154 11 38L 11 45L 16 45L 17 57ZM 14.968 14.446C 17.158287 16.717663 20.1784 18.000652 23.334 18C 24.91567 18.000362 26.480831 17.678482 27.934 17.054001M 14 18C 14 21.865993 17.134007 25 21 25C 24.865993 25 28 21.865993 28 18C 28 14.134007 24.865993 11 21 11C 17.134007 11 14 14.134007 14 18Z"></path></g></g></g><g id="g-root-tx_delibera_18k2q3npbe80a-stroke" data-item-order="2000000000" transform="translate(432.984619140625, 38)"></g><g id="g-root-tx_approxim_mccqebpbe5tt-stroke" data-item-order="2000000000" transform="translate(54.984619140625, 74)"></g><g id="g-root-ic_sele_1uo1vabpbbdot-stroke" data-item-order="2000000000" transform="translate(204.984619140625, 86)"><g id="ic_sele_1uo1vabpbbdot-stroke" fill="none" stroke-linecap="round" stroke-linejoin="round" stroke-miterlimit="4" stroke="#ffe60a" stroke-width="2"><g><path d="M 42.299999 27.2192C 40.900002 26.019199 39.900002 24.2192 39.900002 22.019199L 39.900002 18.419201C 39.900002 15.4192 41.700001 12.6192 44.5 11.819192C 49.099998 10.419192 53.5 13.819201 53.5 18.2192L 53.5 22.019199C 53.5 24.019199 52.700001 25.819199 51.299999 27.019199M 39.900002 21.019501C 39.900002 21.019501 44.5 22.019501 47.900002 17.619499C 49.5 19.4195 51.299999 20.019501 53.5 19.4195M 10 10M 49.5 35.019402L 45.900002 25.81934L 55.099998 29.41934L 49.5 35.019402ZM 10 10M 52.299999 32.2192L 56.5 36.419201M 35.5 47.5C 35.5 48.700001 34.700001 49.5 33.5 49.5L 13.5 49.5C 12.3 49.5 11.5 48.700001 11.5 47.5L 11.5 29.5C 11.5 28.299999 12.3 27.5 13.5 27.5L 33.5 27.5C 34.700001 27.5 35.5 28.299999 35.5 29.5L 35.5 47.5ZM 16.73914 49.512402L 13.5 56.5M 23.5 27.5L 23.5 22.5M 10 10M 30.255199 49.5L 33.5 56.5M 23.70002 38.699799C 24.900021 39.899799 24.900021 41.499802 23.70002 42.699799C 21.45072 44.949001 17.49218 43.7812 16.67004 42.699799C 18.5578 41.817001 18.390621 39.789001 19.70002 38.699799C 20.89724 37.636398 22.500019 37.499802 23.70002 38.699799ZM 10 10M 23.984501 39.015602L 29.099979 33.9002"></path></g></g></g><g id="g-root-ic_rota_dkgko3pbcqhb-stroke" data-item-order="2000000000" transform="translate(372.984619140625, 110)"><g id="ic_rota_dkgko3pbcqhb-stroke" fill="none" stroke-linecap="round" stroke-linejoin="round" stroke-miterlimit="4" stroke="#ffe60a" stroke-width="2"><g><path d="M 37.700001 18.88282C 40.720802 22.105141 44.950199 23.917679 49.7836 23.917679C 52.200401 23.917679 54.415798 23.5149 56.4296 22.507919M 52.700001 15.89996C 55.099998 17.699961 56.5 20.49996 56.5 23.699959C 56.5 29.299959 52.099998 33.700001 46.5 33.700001C 40.900002 33.700001 36.5 29.299959 36.5 23.699959C 36.5 18.09996 40.900002 13.69996 46.5 13.69996M 10 10M 42.900002 11.499756L 46.5 13.69976L 44.099998 17.69976M 30.5 34.5C 30.5 37.900002 27.9 40.5 24.5 40.5C 21.1 40.5 18.5 37.900002 18.5 34.5L 18.5 31.5C 18.5 28.1 21.1 25.5 24.5 25.5C 27.9 25.5 30.5 28.1 30.5 31.5L 30.5 34.5ZM 22.5 40.1796L 22.5 43.5C 22.5 43.5 18.5 43.5 16.5 45.5C 16.5 45.5 18.5 51.5 23.5 51.5C 26.299999 51.5 27.1 49.299999 28.700001 47.5L 28.700001 38.851601M 36.5 44.5C 38.5 46.700001 39.5 49.5 39.5 52.5L 39.5 56.5M 16.5 45.5C 16.5 45.5 11.5 48.5 11.5 56.5M 28.8999 47.5C 32.900002 43.5 36.5 44.5 36.5 44.5L 36.5 36.5M 24.5 25.5L 30.5 25.5"></path></g></g></g><g id="g-root-tx_futureim_4my55vpbe6ff-stroke" data-item-order="2000000000" transform="translate(432.984619140625, 110)"></g><g id="g-root-tx_lowercom_4mbxkzpv953h-stroke" data-item-order="2000000000" transform="translate(48.984619140625, 146)"></g><g id="g-root-ic_reco_6ifgjpv95vq-stroke" data-item-order="2000000000" transform="translate(204.984619140625, 158)"><g id="ic_reco_6ifgjpv95vq-stroke" fill="none" stroke-linecap="round" stroke-linejoin="round" stroke-miterlimit="4" stroke="#44e095" stroke-width="2"><g><path d="M 34.571999 54.858002C 34.570896 56.041317 33.61132 57 32.428001 57L 13.142 57C 11.959463 56.998898 11.001102 56.040539 11 54.858002L 11 49.5C 11 42.990772 16.276772 37.714001 22.785999 37.714001C 29.295229 37.714001 34.571999 42.990772 34.571999 49.5ZM 18.285999 45C 18.285999 45.276142 18.509857 45.5 18.785999 45.5C 19.062141 45.5 19.285999 45.276142 19.285999 45C 19.285999 44.723858 19.062141 44.5 18.785999 44.5C 18.509857 44.5 18.285999 44.723858 18.285999 45M 26.285999 44.987999C 26.285999 45.264141 26.509857 45.487999 26.785999 45.487999C 27.062143 45.487999 27.285999 45.264141 27.285999 44.987999C 27.285999 44.711857 27.062143 44.487999 26.785999 44.487999C 26.509857 44.487999 26.285999 44.711857 26.285999 44.987999M 22.785999 37.714001L 22.785999 33.428001M 19.571999 30.214001C 19.572001 31.989044 21.010956 33.428001 22.785999 33.428001C 24.561043 33.428001 26 31.989044 26 30.214001C 26 28.438957 24.561043 27 22.785999 27C 21.010956 27 19.572001 28.438957 19.572001 30.214001M 11 51.630001L 34.571999 51.630001M 27 21L 27 23.5M 32 19L 32 31M 37 17L 37 33M 57 21L 57 29M 52 19L 52 31M 47 17L 47 33M 42 11L 42 39"></path></g></g></g><g id="g-root-ic_truc_1d1rh6rq4taff-stroke" data-item-order="2000000000" transform="translate(372.984619140625, 182)"><g id="ic_truc_1d1rh6rq4taff-stroke" fill="none" stroke-linecap="round" stroke-linejoin="round" stroke-miterlimit="4" stroke="#fd6a65" stroke-width="2"><g><path d="M 34.571999 54.858002C 34.570896 56.041317 33.61132 57 32.428001 57L 13.142 57C 11.959463 56.998898 11.001102 56.040539 11 54.858002L 11 49.5C 11 42.990772 16.276772 37.714001 22.785999 37.714001C 29.295229 37.714001 34.571999 42.990772 34.571999 49.5ZM 18.285999 45C 18.285999 45.276142 18.509857 45.5 18.785999 45.5C 19.062141 45.5 19.285999 45.276142 19.285999 45C 19.285999 44.723858 19.062141 44.5 18.785999 44.5C 18.509857 44.5 18.285999 44.723858 18.285999 45M 26.285999 44.987999C 26.285999 45.264141 26.509857 45.487999 26.785999 45.487999C 27.062143 45.487999 27.285999 45.264141 27.285999 44.987999C 27.285999 44.711857 27.062143 44.487999 26.785999 44.487999C 26.509857 44.487999 26.285999 44.711857 26.285999 44.987999M 22.785999 37.714001L 22.785999 33.428001M 19.571999 30.214001C 19.572001 31.989044 21.010956 33.428001 22.785999 33.428001C 24.561043 33.428001 26 31.989044 26 30.214001C 26 28.438957 24.561043 27 22.785999 27C 21.010956 27 19.572001 28.438957 19.572001 30.214001M 11 51.630001L 34.571999 51.630001M 38 21L 38 13C 38 11.895431 38.895432 11 40 11L 55 11C 56.104568 11 57 11.895431 57 13L 57 27L 53 27M 38 25L 38 14L 34 14C 30.686293 14 28 16.686291 28 20L 28 25C 28 26.10457 28.89543 27 30 27L 35 27M 28 21L 36 21C 37.104568 21 38 20.104568 38 19M 35 28C 35 29.656855 36.343147 31 38 31C 39.656853 31 41 29.656855 41 28C 41 26.343145 39.656853 25 38 25C 36.343147 25 35 26.343145 35 28M 47 28C 47 29.656855 48.343147 31 50 31C 51.656857 31 53 29.656855 53 28C 53 26.343145 51.656857 25 50 25C 48.343147 25 47 26.343145 47 28M 41.006001 27L 47.006001 27"></path></g></g></g><g id="g-root-tx_higherco_1d1rh6rq4tafg-stroke" data-item-order="2000000000" transform="translate(432.984619140625, 170)"></g><g id="g-root-tx_habitual_zqb543pbe7t8-stroke" data-item-order="2000000000" transform="translate(60.984619140625, 302)"></g><g id="g-root-tx_mcts_1hiu3s3pbe7m5-stroke" data-item-order="2000000000" transform="translate(396.984619140625, 314)"></g></g></g><path id="wqp1c6rp1d6gy" d="M65.283 12.757a.35.35 0 0 0 .584.157l5.203-5.141-6.183 3.523.396 1.461zm-2.216-11.7a.35.35 0 0 0-.522.305v3.111l3.276-1.868-2.754-1.548zm3.728 2.105l-4.25 2.421v2.445l6.391-3.644-2.141-1.222zm4.708 3.303a.35.35 0 0 0 0-.609l-1.592-.9-7.365 4.199v1.782a.35.35 0 0 0 .523.305l8.435-4.777z M44.542 2.513c0-.433.355-.783.792-.783s.792.35.792.783-.355.783-.792.783-.792-.35-.792-.783zm59.171 0c0-.433.355-.783.792-.783s.792.35.792.783-.355.783-.792.783-.792-.35-.792-.783zm-85.951 7.636h-1.27v-.487c-.276.201-.864.609-1.881.609-1.202 0-2.274-.794-2.137-2.078.118-1.106 1.153-1.584 1.848-1.727l2.17-.345c0-.539-.29-.956-1.064-1.006s-1.21.305-1.571 1.017l-1.124-.605c1.218-2.631 5.029-1.764 5.029.414v4.207zm-1.27-2.86c.006.396-.062 1.112-.819 1.59-.587.37-1.841.299-1.903-.395-.049-.555.461-.791.906-.898l1.816-.297zm72.662 2.86h-1.27v-.487c-.276.201-.864.609-1.881.609-1.202 0-2.274-.794-2.137-2.078.118-1.106 1.153-1.584 1.848-1.727l2.17-.345c0-.539-.29-.956-1.064-1.006s-1.21.305-1.571 1.017l-1.124-.605c1.218-2.631 5.029-1.764 5.029.414v4.207zm-1.27-2.86c.006.396-.062 1.112-.82 1.59-.587.37-1.841.299-1.903-.395-.049-.555.461-.791.906-.898l1.816-.297zM99.096 10.149H97.85v-8.45h1.246v4.895l2.68-2.559h1.738l-2.633 2.535 2.715 3.578h-1.556l-2.077-2.707-.867.844v1.863zm6.053-6.114h-1.255v6.113h1.255V4.035zm-59.2 0h-1.255v6.113h1.255V4.035zm5.584 6.113V1.697h1.255v2.695c.361-.346 1-.485 1.47-.485 1.452 0 2.477 1.082 2.457 2.448v3.792h-1.27v-3.68c0-.408-.214-1.339-1.315-1.339-.968 0-1.342.756-1.342 1.339v3.681h-1.255zm-4.76-4.894V4.039h.621a.45.45 0 0 0 .45-.45v-.855h1.251v1.305h1.309v1.215h-1.309v3.109c0 .293.105.664.648.664.365 0 .531-.035.736-.07v1.137s-.361.113-.857.113c-1.398 0-1.777-1.051-1.777-1.788V5.254h-1.071zM36.528 4.039h-1.394l2.191 6.106h1.125l1.234-3.918 1.238 3.918h1.129l2.188-6.106h-1.383l-1.359 3.93-1.256-3.93h-1.124l-1.242 3.957-1.348-3.957zM26.212 7.141c-.02 1.566 1.187 3.129 3.223 3.129 1.566 0 2.383-.918 2.734-1.719L31.172 8c-.315.399-.801 1.094-1.738 1.094-1.145 0-1.825-.781-1.891-1.52h4.625c.074-.284.148-.995-.03-1.559-.336-1.064-1.221-2.102-2.839-2.102s-3.088 1.152-3.088 3.227zm1.363-.75h3.348c-.055-.43-.566-1.301-1.623-1.301a1.79 1.79 0 0 0-1.725 1.301zm-8.758.75c.038 1.758 1.277 3.133 3.145 3.133 1.074 0 1.723-.477 1.961-.672v.547h1.242V1.703h-1.258v2.888c-.414-.36-1.062-.68-1.93-.68-1.91 0-3.198 1.473-3.16 3.23zm1.309-.08c0 1.119.723 1.978 1.836 1.978a1.88 1.88 0 0 0 1.94-1.904c0-1.371-1.011-1.99-1.972-1.99s-1.805.798-1.805 1.916zm76.683-.028C96.771 5.275 95.532 3.9 93.664 3.9c-1.074 0-1.723.477-1.961.672v-.547h-1.242v8.22h1.258V9.583c.414.36 1.063.68 1.93.68 1.91 0 3.198-1.473 3.16-3.23zm-1.309.08c0-1.119-.723-1.978-1.836-1.978a1.88 1.88 0 0 0-1.94 1.904c0 1.371 1.011 1.99 1.972 1.99S95.5 8.231 95.5 7.113zM106.441 10.173V4.036h1.254v.382c.361-.346 1-.485 1.47-.485 1.452 0 2.477 1.082 2.457 2.448v3.792h-1.27V6.492c0-.408-.214-1.339-1.315-1.339-.969 0-1.342.756-1.342 1.339v3.681h-1.254zm-30.383-.021V1.824h1.084l4.215 5.777V1.824h1.32v8.328h-1.094l-4.207-5.796v5.796h-1.319zM5.24 10.149H4V2.377h1.014l2.664 3.597 2.654-3.592h1.03v7.766h-1.256V4.762L7.678 8.068 5.24 4.742v5.407z" transform="translate(20, 396)" fill="#80808088" stroke="none"></path></svg>