<?xml version="1.0" encoding="utf-8" standalone="yes"?>
<!DOCTYPE svg PUBLIC "-//W3C//DTD SVG 1.1//EN" "http://www.w3.org/Graphics/SVG/1.1/DTD/svg11.dtd">
<svg width="765" height="600" viewBox="0 0 765 600" style="fill:none;stroke:none;fill-rule:evenodd;clip-rule:evenodd;stroke-linecap:round;stroke-linejoin:round;stroke-miterlimit:1.5;" version="1.1" xmlns="http://www.w3.org/2000/svg" xmlns:xlink="http://www.w3.org/1999/xlink"><style class="text-font-style fontImports" data-font-family="Roboto">@import url('https://fonts.googleapis.com/css2?family=Roboto:wght@400;700&amp;display=block');</style><g id="items" style="isolation: isolate"><g id="blend" style="mix-blend-mode: normal"><g id="g-root-cp_1_g-1_1414em8oqzkzl-fill" data-item-order="999638644" transform="translate(41.5172119140625, 195.296875)"><g id="cp_1_g-1_1414em8oqzkzl-fill" stroke="none" fill="#8448a0"><g><path d="M 177.213 46.001C 177.213 63.4395 171.828 77.5762 165.186 77.5762C 164.861 77.5762 164.539 77.5424 164.221 77.476C 164.185 77.4686 164.15 77.4608 164.115 77.4527C 157.974 76.0299 153.158 62.4918 153.158 46.001C 153.158 29.5102 157.974 15.972 164.115 14.5493C 164.15 14.5411 164.185 14.5333 164.221 14.5259C 164.539 14.4596 164.861 14.4258 165.186 14.4258C 171.828 14.4258 177.213 28.5625 177.213 46.001ZM 43.4093 39.1827L 10 46.0008L 43.4096 52.8191C 42.9863 50.6111 42.7646 48.3314 42.7646 46C 42.7646 43.6692 42.9862 41.3901 43.4093 39.1827ZM 153.158 46.001C 153.158 29.5102 157.974 15.972 164.115 14.5493L 108.6183 25.8749C 112.499 31.62 114.765 38.5454 114.765 46C 114.765 53.4553 112.498 60.3813 108.6172 66.1267L 164.115 77.4527C 157.974 76.0299 153.158 62.4918 153.158 46.001Z"></path></g></g></g><g id="g-root-cp_2_g-2_v63vggoqzimj-fill" data-item-order="999638648" transform="translate(209.2030029296875, 162.72900390625)"><g id="cp_2_g-2_v63vggoqzimj-fill" stroke="none" fill="#af58d7"><g><path d="M 165.797 10C 165.445 10 165.095 10.0384 164.748 10.1142L 164.734 10.1175C 155.283 12.2115 147.788 42.0404 147.788 78.5303C 147.788 115.02 155.282 144.849 164.733 146.943L 164.748 146.946C 165.095 147.022 165.445 147.061 165.797 147.061C 170.13 147.061 174.106 141.237 177.213 131.535C 173.823 118.117 171.717 99.328 171.717 78.5298C 171.717 57.7319 173.823 38.9428 177.213 25.5252C 174.105 15.8232 170.13 10 165.797 10ZM 10 78.5298C 10 59.0238 14.8465 43.0557 20.9814 41.746L 164.734 10.1175C 155.283 12.2115 147.788 42.0404 147.788 78.5303C 147.788 115.02 155.282 144.849 164.733 146.943L 20.9814 115.314C 14.8465 114.004 10 98.0357 10 78.5298ZM 78.7646 114.533C 98.6469 114.533 114.765 98.4155 114.765 78.5332C 114.765 58.651 98.6469 42.5332 78.7646 42.5332C 58.8824 42.5332 42.7646 58.651 42.7646 78.5332C 42.7646 98.4155 58.8824 114.533 78.7646 114.533Z"></path></g></g></g><g id="g-root-cp_3_g-3_hund34oqzk7h-fill" data-item-order="999638652" transform="translate(370.9200439453125, 125.781005859375)"><g id="cp_3_g-3_hund34oqzk7h-fill" stroke="none" fill="#c866f6"><g><path d="M 170.953 220.84C 171.326 220.916 171.702 220.931 172.08 220.931C 176.097 220.931 179.883 216.594 183.21 208.927C 176.517 189.254 172.078 154.755 172.078 115.483C 172.078 76.1936 176.521 41.6814 183.219 22.0131C 179.884 14.2967 176.111 10 172.08 10C 171.702 10 171.326 10.0384 170.953 10.1144L 170.768 10.1549C 158.125 13.1488 148.082 59.1531 148.082 115.465C 148.082 171.778 158.125 217.805 170.768 220.799L 170.953 220.84ZM 170.768 220.799L 27.2269 189.217C 22.6737 188.354 18.5605 180.613 15.496 168.482C 12.1065 155.065 10 136.275 10 115.477C 10 94.6791 12.1065 75.8901 15.4958 62.4725C 18.5603 50.3409 22.6736 42.6005 27.2269 41.737L 170.768 10.1549C 158.125 13.1488 148.082 59.1531 148.082 115.465C 148.082 171.778 158.125 217.805 170.768 220.799ZM 79.0479 151.465C 98.9301 151.465 115.048 135.347 115.048 115.465C 115.048 95.5826 98.9301 79.4648 79.0479 79.4648C 59.1656 79.4648 43.0479 95.5826 43.0479 115.465C 43.0479 135.347 59.1656 151.465 79.0479 151.465Z"></path></g></g></g><g id="g-root-cp_4_g-4_4jtbswoqzimn-fill" data-item-order="999638656" transform="translate(532.9979858398438, 88.875)"><g id="cp_4_g-4_4jtbswoqzimn-fill" stroke="none" fill="#e2a3ff"><g><path d="M 207.985 152.422C 207.985 212.917 200.045 264.602 188.845 285.246C 185.482 291.444 181.826 294.844 178.002 294.844C 177.566 294.844 177.133 294.8 176.702 294.712C 176.628 294.697 176.554 294.681 176.481 294.664C 160.628 290.901 148.018 228.656 148.018 152.422C 148.018 76.1895 160.628 13.9459 176.48 10.1804C 176.554 10.1628 176.628 10.1465 176.702 10.1315C 177.133 10.0441 177.566 10 178.002 10C 181.826 10 185.482 13.3998 188.845 19.5977C 200.045 40.2414 207.985 91.927 207.985 152.422ZM 176.481 294.664C 160.628 290.901 148.018 228.656 148.018 152.422C 148.018 76.1895 160.628 13.9459 176.48 10.1804L 33.1104 41.6942C 28.7155 42.4804 24.6232 48.6937 21.1407 58.9194C 14.4424 78.5876 10 113.1 10 152.389C 10 191.661 14.4385 226.161 21.1319 245.833C 24.6164 256.074 28.7118 262.297 33.1104 263.084L 176.481 294.664ZM 78.9697 188.383C 98.852 188.383 114.97 172.265 114.97 152.383C 114.97 132.501 98.852 116.383 78.9697 116.383C 59.0875 116.383 42.9697 132.501 42.9697 152.383C 42.9697 172.265 59.0875 188.383 78.9697 188.383Z"></path></g></g></g><g id="g-root-tx_montecar_1ltnda8oqzksp-fill" data-item-order="1000000000" transform="translate(216.5, 38)"><g id="tx_montecar_1ltnda8oqzksp-fill" stroke="none" fill="#484848"><g><text style="font: 20px &quot;Roboto&quot;, sans-serif; white-space: pre;" font-size="20px" font-family="'Roboto', sans-serif"><tspan x="17.68" y="34" dominant-baseline="ideographic">Monte Carlo Tree Search Process</tspan></text></g></g></g><g id="g-root-ic_sear_v3lz40or3rph-fill" data-item-order="1000000000" transform="translate(86.2030029296875, 207)"></g><g id="g-root-ic_1_1q5q0w0or2djg-fill" data-item-order="1000000000" transform="translate(255, 207)"></g><g id="g-root-ic_shar_qqadc0or0wsr-fill" data-item-order="1000000000" transform="translate(416, 207.2850341796875)"></g><g id="g-root-ic_bala_dgpa80oqzk02-fill" data-item-order="1000000000" transform="translate(578, 207.2969970703125)"></g><g id="g-root-tx_selectio_93dog0or3shy-fill" data-item-order="1000000000" transform="translate(38, 314)"><g id="tx_selectio_93dog0or3shy-fill" stroke="none" fill="#484848"><g><text style="font: bold 20px &quot;Roboto&quot;, sans-serif; white-space: pre;" font-weight="bold" font-size="20px" font-family="'Roboto', sans-serif"><tspan x="15.9" y="34" dominant-baseline="ideographic">Selection</tspan></text></g></g></g><g id="g-root-tx_traverse_qvwn40or3sav-fill" data-item-order="1000000000" transform="translate(38, 350)"><g id="tx_traverse_qvwn40or3sav-fill" stroke="none" fill="#484848"><g><text style="font: 15px &quot;Roboto&quot;, sans-serif; white-space: pre;" font-size="15px" font-family="'Roboto', sans-serif"><tspan x="15.91" y="28" dominant-baseline="ideographic">Traverse the tree to </tspan><tspan x="28.83" y="46" dominant-baseline="ideographic">find a leaf node</tspan></text></g></g></g><g id="g-root-tx_expansio_1lpwirkor553c-fill" data-item-order="1000000000" transform="translate(206, 350)"><g id="tx_expansio_1lpwirkor553c-fill" stroke="none" fill="#484848"><g><text style="font: bold 20px &quot;Roboto&quot;, sans-serif; white-space: pre;" font-weight="bold" font-size="20px" font-family="'Roboto', sans-serif"><tspan x="17.67" y="34" dominant-baseline="ideographic">Expansion</tspan></text></g></g></g><g id="g-root-tx_addchild_hs5gqoor56o9-fill" data-item-order="1000000000" transform="translate(206, 386)"><g id="tx_addchild_hs5gqoor56o9-fill" stroke="none" fill="#484848"><g><text style="font: 15px &quot;Roboto&quot;, sans-serif; white-space: pre;" font-size="15px" font-family="'Roboto', sans-serif"><tspan x="12.11" y="31" dominant-baseline="ideographic">Add child nodes to </tspan><tspan x="20.96" y="49" dominant-baseline="ideographic">represent future </tspan><tspan x="53.43" y="67" dominant-baseline="ideographic">states</tspan></text></g></g></g><g id="g-root-tx_simulati_1cw4xs0or54wa-fill" data-item-order="1000000000" transform="translate(374, 386)"><g id="tx_simulati_1cw4xs0or54wa-fill" stroke="none" fill="#484848"><g><text style="font: bold 20px &quot;Roboto&quot;, sans-serif; white-space: pre;" font-weight="bold" font-size="20px" font-family="'Roboto', sans-serif"><tspan x="15.65" y="34" dominant-baseline="ideographic">Simulation</tspan></text></g></g></g><g id="g-root-tx_performa_8ydvr4or56h7-fill" data-item-order="1000000000" transform="translate(374, 422)"><g id="tx_performa_8ydvr4or56h7-fill" stroke="none" fill="#484848"><g><text style="font: 15px &quot;Roboto&quot;, sans-serif; white-space: pre;" font-size="15px" font-family="'Roboto', sans-serif"><tspan x="15.32" y="28" dominant-baseline="ideographic">Perform a rollout to </tspan><tspan x="30.68" y="46" dominant-baseline="ideographic">estimate costs</tspan></text></g></g></g><g id="g-root-tx_backprop_142dcsgor54p8-fill" data-item-order="1000000000" transform="translate(542, 422)"><g id="tx_backprop_142dcsgor54p8-fill" stroke="none" fill="#484848"><g><text style="font: bold 20px &quot;Roboto&quot;, sans-serif; white-space: pre;" font-weight="bold" font-size="20px" font-family="'Roboto', sans-serif"><tspan x="17.62" y="34" dominant-baseline="ideographic">Backpropagation</tspan></text></g></g></g><g id="g-root-tx_updateno_4markor56a5-fill" data-item-order="1000000000" transform="translate(542, 458)"><g id="tx_updateno_4markor56a5-fill" stroke="none" fill="#484848"><g><text style="font: 15px &quot;Roboto&quot;, sans-serif; white-space: pre;" font-size="15px" font-family="'Roboto', sans-serif"><tspan x="15.13" y="31" dominant-baseline="ideographic">Update node values </tspan><tspan x="13.24" y="49" dominant-baseline="ideographic">based on simulation </tspan><tspan x="58.14" y="67" dominant-baseline="ideographic">results</tspan></text></g></g></g><g id="g-root-cp_1_g-1_1414em8oqzkzl-stroke" data-item-order="999638644" transform="translate(41.5172119140625, 195.296875)"><g id="cp_1_g-1_1414em8oqzkzl-stroke" fill="none" stroke-linecap="round" stroke-linejoin="round" stroke-miterlimit="4" stroke="#ffffff" stroke-width="2"><g><path d="M 177.2129 46.001C 177.2129 63.4395 171.8281 77.5762 165.1857 77.5762C 164.8608 77.5762 164.539 77.5424 164.2207 77.476C 164.1852 77.4686 164.1499 77.4608 164.1145 77.4527C 157.9738 76.0299 153.1584 62.4918 153.1584 46.001C 153.1584 29.5102 157.9739 15.972 164.1145 14.5493C 164.1499 14.5411 164.1852 14.5333 164.2207 14.5259C 164.539 14.4596 164.8608 14.4258 165.1857 14.4258C 171.8281 14.4258 177.2129 28.5625 177.2129 46.001ZM 43.4093 39.1827L 10 46.0008L 43.4096 52.8191C 42.9863 50.6111 42.7646 48.3314 42.7646 46C 42.7646 43.6692 42.9862 41.3901 43.4093 39.1827ZM 153.1584 46.001C 153.1584 29.5102 157.9739 15.972 164.1145 14.5493L 108.6183 25.8749C 112.4988 31.62 114.7646 38.5454 114.7646 46C 114.7646 53.4553 112.4984 60.3813 108.6172 66.1267L 164.1145 77.4527C 157.9738 76.0299 153.1584 62.4918 153.1584 46.001ZM 164.2207 14.5259L 164.1145 14.5493M 164.2207 77.476L 164.1145 77.4527M 43.4093 39.1827C 43.5847 38.2675 43.7948 37.3646 44.0381 36.4755C 48.2139 21.2153 62.1796 10 78.7646 10C 89.7982 10 99.6725 14.9637 106.2762 22.7799C 107.1105 23.7675 107.8927 24.8005 108.6183 25.8749M 108.6172 66.1267C 107.8915 67.201 107.1093 68.2341 106.2749 69.2216C 99.6712 77.0369 89.7975 82 78.7646 82C 62.1802 82 48.215 70.7856 44.0386 55.5263C 43.7952 54.6372 43.5851 53.7343 43.4096 52.8191"></path></g></g></g><g id="g-root-cp_2_g-2_v63vggoqzimj-stroke" data-item-order="999638648" transform="translate(209.2030029296875, 162.72900390625)"><g id="cp_2_g-2_v63vggoqzimj-stroke" fill="none" stroke-linecap="round" stroke-linejoin="round" stroke-miterlimit="4" stroke="#ffffff" stroke-width="2"><g><path d="M 165.7969 10C 165.4449 10 165.0953 10.0384 164.7483 10.1142L 164.7336 10.1175C 155.2825 12.2115 147.7881 42.0404 147.7881 78.5303C 147.7881 115.0201 155.2825 144.8489 164.7335 146.9431L 164.7483 146.9463C 165.0953 147.0221 165.4449 147.0605 165.7969 147.0605C 170.1299 147.0605 174.1055 141.2372 177.2128 131.5349C 173.8233 118.1173 171.7168 99.328 171.7168 78.5298C 171.7168 57.7319 173.8233 38.9428 177.2126 25.5252C 174.1054 15.8232 170.1298 10 165.7969 10ZM 10 78.5298C 10 59.0238 14.8465 43.0557 20.9814 41.746L 164.7336 10.1175C 155.2825 12.2115 147.7881 42.0404 147.7881 78.5303C 147.7881 115.0201 155.2825 144.8489 164.7335 146.9431L 20.9814 115.3136C 14.8465 114.0039 10 98.0357 10 78.5298ZM 78.7646 114.5332C 98.6469 114.5332 114.7646 98.4155 114.7646 78.5332C 114.7646 58.651 98.6469 42.5332 78.7646 42.5332C 58.8824 42.5332 42.7646 58.651 42.7646 78.5332C 42.7646 98.4155 58.8824 114.5332 78.7646 114.5332ZM 21.7973 115.4004C 21.5231 115.4004 21.251 115.3712 20.9814 115.3136M 21.7973 41.6592C 21.5231 41.6592 21.251 41.6884 20.9814 41.746M 164.7483 10.1142C 164.7434 10.1153 164.7385 10.1164 164.7336 10.1175M 164.7483 146.9463C 164.7434 146.9452 164.7384 146.9441 164.7335 146.9431"></path></g></g></g><g id="g-root-cp_3_g-3_hund34oqzk7h-stroke" data-item-order="999638652" transform="translate(370.9200439453125, 125.781005859375)"><g id="cp_3_g-3_hund34oqzk7h-stroke" fill="none" stroke-linecap="round" stroke-linejoin="round" stroke-miterlimit="4" stroke="#ffffff" stroke-width="2"><g><path d="M 170.9527 220.8398C 171.3264 220.9158 171.7023 220.9307 172.0803 220.9307C 176.0971 220.9307 179.8835 216.5936 183.2101 208.9269C 176.5166 189.2543 172.0781 154.7551 172.0781 115.4829C 172.0781 76.1936 176.5205 41.6814 183.2188 22.0131C 179.8839 14.2967 176.111 10 172.0803 10C 171.7023 10 171.3264 10.0384 170.9527 10.1144L 170.7682 10.1549C 158.1245 13.1488 148.082 59.1531 148.082 115.4653C 148.082 171.7777 158.1246 217.8054 170.7683 220.7993L 170.9527 220.8398ZM 170.7683 220.7993L 27.2269 189.2171C 22.6737 188.3536 18.5605 180.6134 15.496 168.4821C 12.1065 155.0645 10 136.2752 10 115.4771C 10 94.6791 12.1065 75.89 15.4958 62.4725C 18.5603 50.3409 22.6736 42.6005 27.2269 41.737L 170.7682 10.1549C 158.1245 13.1488 148.082 59.1531 148.082 115.4653C 148.082 171.7777 158.1246 217.8054 170.7683 220.7993ZM 79.0479 151.4648C 98.9301 151.4648 115.0479 135.3471 115.0479 115.4648C 115.0479 95.5826 98.9301 79.4648 79.0479 79.4648C 59.1656 79.4648 43.0479 95.5826 43.0479 115.4648C 43.0479 135.3471 59.1656 151.4648 79.0479 151.4648ZM 28.08 189.2979C 27.794 189.2979 27.5096 189.2708 27.2269 189.2171M 28.08 41.6563C 27.794 41.6563 27.5096 41.6834 27.2269 41.737M 170.9527 220.8398C 170.8912 220.8273 170.8297 220.8138 170.7683 220.7993M 170.9527 10.1144C 170.8911 10.1269 170.8297 10.1404 170.7682 10.1549"></path></g></g></g><g id="g-root-cp_4_g-4_4jtbswoqzimn-stroke" data-item-order="999638656" transform="translate(532.9979858398438, 88.875)"><g id="cp_4_g-4_4jtbswoqzimn-stroke" fill="none" stroke-linecap="round" stroke-linejoin="round" stroke-miterlimit="4" stroke="#ffffff" stroke-width="2"><g><path d="M 207.9855 152.4219C 207.9855 212.9168 200.0451 264.6024 188.8448 285.2461C 185.4822 291.444 181.8256 294.8438 178.002 294.8438C 177.5664 294.8438 177.133 294.7996 176.7019 294.7123C 176.6281 294.6973 176.5544 294.6811 176.4808 294.6636C 160.6281 290.9008 148.0184 228.6561 148.0184 152.4219C 148.0184 76.1895 160.6275 13.9459 176.4796 10.1804C 176.5536 10.1628 176.6277 10.1465 176.7019 10.1315C 177.133 10.0441 177.5664 10 178.002 10C 181.8256 10 185.4822 13.3998 188.8448 19.5977C 200.0451 40.2414 207.9855 91.927 207.9855 152.4219ZM 176.4808 294.6636C 160.6281 290.9008 148.0184 228.6561 148.0184 152.4219C 148.0184 76.1895 160.6275 13.9459 176.4796 10.1804L 33.1104 41.6942C 28.7155 42.4804 24.6232 48.6937 21.1407 58.9194C 14.4424 78.5876 10 113.0998 10 152.3892C 10 191.6613 14.4385 226.1605 21.1319 245.8331C 24.6163 256.0742 28.7118 262.2973 33.1104 263.0841L 176.4808 294.6636ZM 78.9697 188.3828C 98.852 188.3828 114.9697 172.2651 114.9697 152.3828C 114.9697 132.5006 98.852 116.3828 78.9697 116.3828C 59.0875 116.3828 42.9697 132.5006 42.9697 152.3828C 42.9697 172.2651 59.0875 188.3828 78.9697 188.3828ZM 176.7019 294.7123L 176.4808 294.6636M 176.7019 10.1315L 176.4796 10.1804M 34.0609 263.1689C 33.7426 263.1689 33.4257 263.1405 33.1104 263.0841M 34.0609 41.6094C 33.7426 41.6094 33.4257 41.6378 33.1104 41.6942"></path></g></g></g><g id="g-root-tx_montecar_1ltnda8oqzksp-stroke" data-item-order="1000000000" transform="translate(216.5, 38)"></g><g id="g-root-ic_sear_v3lz40or3rph-stroke" data-item-order="1000000000" transform="translate(86.2030029296875, 207)"><g id="ic_sear_v3lz40or3rph-stroke" fill="none" stroke-linecap="round" stroke-linejoin="round" stroke-miterlimit="4" stroke="#484848" stroke-width="2"><g><path d="M 45.119999 45.099998L 57.040001 57.02M 25.48 25.700001C 23.32 28.24 22.18 31.58 27.34 33.84C 29.700001 39.120003 33.34 37.16 35.68 34.34C 38.02 31.52 38.799999 25.4 37.400002 21.26C 37.31144 20.961807 37.078194 20.728561 36.779999 20.639999C 36.500523 20.512486 36.179474 20.512486 35.899998 20.639999C 32.220001 23.200001 28 22.76 25.48 25.700001ZM 24 40C 26.004477 34.657223 29.238335 29.861244 33.440002 26M 10.96 30.98C 10.96 42.025696 19.914307 50.98 30.960001 50.98C 42.005695 50.98 50.959999 42.025696 50.959999 30.98C 50.959999 19.934305 42.005695 10.98 30.960001 10.98C 19.914307 10.98 10.96 19.934305 10.96 30.98"></path></g></g></g><g id="g-root-ic_1_1q5q0w0or2djg-stroke" data-item-order="1000000000" transform="translate(255, 207)"><g id="ic_1_1q5q0w0or2djg-stroke" fill="none" stroke-linecap="round" stroke-linejoin="round" stroke-miterlimit="4" stroke="#484848" stroke-width="2"><g><path d="M 16.348 45.931999L 12 57M 18 57L 19.785999 47M 51.652 45.931999L 56 57M 50 57L 48.214001 47M 38.664001 34.732002L 45.880001 40.503998M 22.119999 40.503998L 29.334 34.732002M 18.622 39.035999L 17.66 28.938M 30.195999 48.223999L 22.614 44.686001M 45.383999 44.688L 37.804001 48.223999M 50.334 29L 49.377998 39.026001M 37.697998 16.524L 47.414001 20.524M 20.584 20.524L 30.304001 16.521999M 15 43C 15 45.209141 16.790861 47 19 47C 21.209139 47 23 45.209141 23 43C 23 40.790863 21.209139 39 19 39C 16.790861 39 15 40.790863 15 43ZM 30 15C 30 17.209139 31.790861 19 34 19C 36.209137 19 38 17.209139 38 15C 38 12.790861 36.209137 11 34 11C 31.790861 11 30 12.790861 30 15ZM 12 24C 12 26.761423 14.238577 29 17 29C 19.761425 29 22 26.761423 22 24C 22 21.238577 19.761425 19 17 19C 14.238577 19 12 21.238577 12 24ZM 45 43C 45 45.209141 46.790859 47 49 47C 51.209141 47 53 45.209141 53 43C 53 40.790863 51.209141 39 49 39C 46.790859 39 45 40.790863 45 43ZM 46 24C 46 26.761423 48.238575 29 51 29C 53.761425 29 56 26.761423 56 24C 56 21.238577 53.761425 19 51 19C 48.238575 19 46 21.238577 46 24ZM 28.43 28.771999L 19 25M 49 25L 39.566002 28.774M 34 19L 34 25M 36.214001 36.576L 39 57M 29 57L 31.785999 36.576M 28 31C 28 34.313709 30.686293 37 34 37C 37.313709 37 40 34.313709 40 31C 40 27.686293 37.313709 25 34 25C 30.686293 25 28 27.686293 28 31Z"></path></g></g></g><g id="g-root-ic_shar_qqadc0or0wsr-stroke" data-item-order="1000000000" transform="translate(416, 207.2850341796875)"><g id="ic_shar_qqadc0or0wsr-stroke" fill="none" stroke-linecap="round" stroke-linejoin="round" stroke-miterlimit="4" stroke="#484848" stroke-width="2"><g><path d="M 14 46C 14 52.075134 18.92487 57 25 57C 31.075132 57 36 52.075134 36 46C 36 39.92487 31.075132 35 25 35C 18.92487 35 14 39.92487 14 46M 47 38C 47 40.761425 49.238575 43 52 43C 54.761425 43 57 40.761425 57 38C 57 35.238579 54.761425 33 52 33C 49.238575 33 47 35.238579 47 38M 11 20C 11 22.761425 13.238577 25 16 25C 18.761425 25 21 22.761425 21 20C 21 17.238577 18.761425 15 16 15C 13.238577 15 11 17.238577 11 20M 47 14.5C 47 16.432997 48.567005 18 50.5 18C 52.432999 18 54 16.432997 54 14.5C 54 12.567003 52.432999 11 50.5 11C 48.567005 11 47 12.567003 47 14.5M 32 25C 32 26.656855 33.343147 28 35 28C 36.656853 28 38 26.656855 38 25C 38 23.343147 36.656853 22 35 22C 33.343147 22 32 23.343147 32 25"></path></g></g></g><g id="g-root-ic_bala_dgpa80oqzk02-stroke" data-item-order="1000000000" transform="translate(578, 207.2969970703125)"><g id="ic_bala_dgpa80oqzk02-stroke" fill="none" stroke-linecap="round" stroke-linejoin="round" stroke-miterlimit="4" stroke="#484848" stroke-width="2"><g><path d="M 33.700001 54.5714C 33.700001 55.171398 33.299999 55.971401 32.700001 56.171398C 32.099998 56.5714 31.5 56.5714 30.700001 56.371399L 13.3 48.371399C 12.3 47.971401 11.5 46.7714 11.5 45.5714L 11.5 24.571381C 11.5 23.97138 11.9 23.171379 12.5 22.97138C 13.1 22.571381 13.7 22.571381 14.5 22.771381L 31.9 30.7714C 32.900002 31.1714 33.700001 32.371399 33.700001 33.5714L 33.700001 54.5714ZM 10 10M 21.700081 19.334541L 39.700001 27.53454C 40.700001 27.93454 41.5 29.134541 41.5 30.3346L 41.5 51.334599M 10 10M 29.5 15.334539L 47.5 23.53454C 48.5 23.93454 49.299999 25.134541 49.299999 26.334539L 49.299999 47.334599M 10 10M 37.299999 11.5L 54.700001 19.5C 55.700001 19.9 56.5 21.099979 56.5 22.29998L 56.5 43.299999"></path></g></g></g><g id="g-root-tx_selectio_93dog0or3shy-stroke" data-item-order="1000000000" transform="translate(38, 314)"></g><g id="g-root-tx_traverse_qvwn40or3sav-stroke" data-item-order="1000000000" transform="translate(38, 350)"></g><g id="g-root-tx_expansio_1lpwirkor553c-stroke" data-item-order="1000000000" transform="translate(206, 350)"></g><g id="g-root-tx_addchild_hs5gqoor56o9-stroke" data-item-order="1000000000" transform="translate(206, 386)"></g><g id="g-root-tx_simulati_1cw4xs0or54wa-stroke" data-item-order="1000000000" transform="translate(374, 386)"></g><g id="g-root-tx_performa_8ydvr4or56h7-stroke" data-item-order="1000000000" transform="translate(374, 422)"></g><g id="g-root-tx_backprop_142dcsgor54p8-stroke" data-item-order="1000000000" transform="translate(542, 422)"></g><g id="g-root-tx_updateno_4markor56a5-stroke" data-item-order="1000000000" transform="translate(542, 458)"></g></g></g><path id="w13z9onkoqy5n0" d="M65.283 12.757a.35.35 0 0 0 .584.157l5.203-5.141-6.183 3.523.396 1.461zm-2.216-11.7a.35.35 0 0 0-.522.305v3.111l3.276-1.868-2.754-1.548zm3.728 2.105l-4.25 2.421v2.445l6.391-3.644-2.141-1.222zm4.708 3.303a.35.35 0 0 0 0-.609l-1.592-.9-7.365 4.199v1.782a.35.35 0 0 0 .523.305l8.435-4.777z M44.542 2.513c0-.433.355-.783.792-.783s.792.35.792.783-.355.783-.792.783-.792-.35-.792-.783zm59.171 0c0-.433.355-.783.792-.783s.792.35.792.783-.355.783-.792.783-.792-.35-.792-.783zm-85.951 7.636h-1.27v-.487c-.276.201-.864.609-1.881.609-1.202 0-2.274-.794-2.137-2.078.118-1.106 1.153-1.584 1.848-1.727l2.17-.345c0-.539-.29-.956-1.064-1.006s-1.21.305-1.571 1.017l-1.124-.605c1.218-2.631 5.029-1.764 5.029.414v4.207zm-1.27-2.86c.006.396-.062 1.112-.819 1.59-.587.37-1.841.299-1.903-.395-.049-.555.461-.791.906-.898l1.816-.297zm72.662 2.86h-1.27v-.487c-.276.201-.864.609-1.881.609-1.202 0-2.274-.794-2.137-2.078.118-1.106 1.153-1.584 1.848-1.727l2.17-.345c0-.539-.29-.956-1.064-1.006s-1.21.305-1.571 1.017l-1.124-.605c1.218-2.631 5.029-1.764 5.029.414v4.207zm-1.27-2.86c.006.396-.062 1.112-.82 1.59-.587.37-1.841.299-1.903-.395-.049-.555.461-.791.906-.898l1.816-.297zM99.096 10.149H97.85v-8.45h1.246v4.895l2.68-2.559h1.738l-2.633 2.535 2.715 3.578h-1.556l-2.077-2.707-.867.844v1.863zm6.053-6.114h-1.255v6.113h1.255V4.035zm-59.2 0h-1.255v6.113h1.255V4.035zm5.584 6.113V1.697h1.255v2.695c.361-.346 1-.485 1.47-.485 1.452 0 2.477 1.082 2.457 2.448v3.792h-1.27v-3.68c0-.408-.214-1.339-1.315-1.339-.968 0-1.342.756-1.342 1.339v3.681h-1.255zm-4.76-4.894V4.039h.621a.45.45 0 0 0 .45-.45v-.855h1.251v1.305h1.309v1.215h-1.309v3.109c0 .293.105.664.648.664.365 0 .531-.035.736-.07v1.137s-.361.113-.857.113c-1.398 0-1.777-1.051-1.777-1.788V5.254h-1.071zM36.528 4.039h-1.394l2.191 6.106h1.125l1.234-3.918 1.238 3.918h1.129l2.188-6.106h-1.383l-1.359 3.93-1.256-3.93h-1.124l-1.242 3.957-1.348-3.957zM26.212 7.141c-.02 1.566 1.187 3.129 3.223 3.129 1.566 0 2.383-.918 2.734-1.719L31.172 8c-.315.399-.801 1.094-1.738 1.094-1.145 0-1.825-.781-1.891-1.52h4.625c.074-.284.148-.995-.03-1.559-.336-1.064-1.221-2.102-2.839-2.102s-3.088 1.152-3.088 3.227zm1.363-.75h3.348c-.055-.43-.566-1.301-1.623-1.301a1.79 1.79 0 0 0-1.725 1.301zm-8.758.75c.038 1.758 1.277 3.133 3.145 3.133 1.074 0 1.723-.477 1.961-.672v.547h1.242V1.703h-1.258v2.888c-.414-.36-1.062-.68-1.93-.68-1.91 0-3.198 1.473-3.16 3.23zm1.309-.08c0 1.119.723 1.978 1.836 1.978a1.88 1.88 0 0 0 1.94-1.904c0-1.371-1.011-1.99-1.972-1.99s-1.805.798-1.805 1.916zm76.683-.028C96.771 5.275 95.532 3.9 93.664 3.9c-1.074 0-1.723.477-1.961.672v-.547h-1.242v8.22h1.258V9.583c.414.36 1.063.68 1.93.68 1.91 0 3.198-1.473 3.16-3.23zm-1.309.08c0-1.119-.723-1.978-1.836-1.978a1.88 1.88 0 0 0-1.94 1.904c0 1.371 1.011 1.99 1.972 1.99S95.5 8.231 95.5 7.113zM106.441 10.173V4.036h1.254v.382c.361-.346 1-.485 1.47-.485 1.452 0 2.477 1.082 2.457 2.448v3.792h-1.27V6.492c0-.408-.214-1.339-1.315-1.339-.969 0-1.342.756-1.342 1.339v3.681h-1.254zm-30.383-.021V1.824h1.084l4.215 5.777V1.824h1.32v8.328h-1.094l-4.207-5.796v5.796h-1.319zM5.24 10.149H4V2.377h1.014l2.664 3.597 2.654-3.592h1.03v7.766h-1.256V4.762L7.678 8.068 5.24 4.742v5.407z" transform="translate(20, 566)" fill="#80808088" stroke="none"></path></svg>