<?xml version="1.0" encoding="utf-8" standalone="yes"?>
<!DOCTYPE svg PUBLIC "-//W3C//DTD SVG 1.1//EN" "http://www.w3.org/Graphics/SVG/1.1/DTD/svg11.dtd">
<svg width="1170" height="239" viewBox="0 0 1170 239" style="fill:none;stroke:none;fill-rule:evenodd;clip-rule:evenodd;stroke-linecap:round;stroke-linejoin:round;stroke-miterlimit:1.5;" version="1.1" xmlns="http://www.w3.org/2000/svg" xmlns:xlink="http://www.w3.org/1999/xlink"><style class="text-font-style fontImports" data-font-family="Roboto">@import url('https://fonts.googleapis.com/css2?family=Roboto:wght@400;700&amp;display=block');</style><g id="items" style="isolation: isolate"><g id="blend" style="mix-blend-mode: normal"><g id="g-root-di_qs5phxohb6dq-fill" data-item-order="-31104" transform="translate(450, 1.98345947265625)"></g><g id="g-root-ro_v9umvpoh9r7t-fill" data-item-order="-13824" transform="translate(14, 25.98345947265625)"></g><g id="g-root-ro_hv9r2tohb5s4-fill" data-item-order="-12960" transform="translate(214, 37.98345947265625)"></g><g id="g-root-ro_1qcl5qtohe0ow-fill" data-item-order="-12096" transform="translate(946, 89.9835205078125)"></g><g id="g-root-ro_8zj9xohckxx-fill" data-item-order="-9072" transform="translate(722, 150.9835205078125)"></g><g id="g-root-ro_8zj9xohb7k1-fill" data-item-order="-9072" transform="translate(722, 46.98345947265625)"></g><g id="g-root-tx_yes_18f2edxohfev6-fill" data-item-order="0" transform="translate(666, 37.98345947265625)"><g id="tx_yes_18f2edxohfev6-fill" stroke="none" fill="#484848"><g><text style="font: 15px &quot;Roboto&quot;, sans-serif; white-space: pre;" font-size="15px" font-family="'Roboto', sans-serif"><tspan x="12" y="30.93" dominant-baseline="ideographic">Yes</tspan></text></g></g></g><g id="g-root-tx_no_4g2e6tohfea1-fill" data-item-order="0" transform="translate(570, 145.9835205078125)"><g id="tx_no_4g2e6tohfea1-fill" stroke="none" fill="#484848"><g><text style="font: 15px &quot;Roboto&quot;, sans-serif; white-space: pre;" font-size="15px" font-family="'Roboto', sans-serif"><tspan x="12" y="30.93" dominant-baseline="ideographic">No</tspan></text></g></g></g><g id="g-root-cu_1414bitohfeo1-fill" data-item-order="2" transform="translate(158, 73.98345947265625)"></g><g id="g-root-cu_18gxtn9ohfdvq-fill" data-item-order="2" transform="translate(394, 73.98345947265625)"></g><g id="g-root-cu_1cwrbrpohfd3f-fill" data-item-order="2" transform="translate(666, 73.98345947265625)"></g><g id="g-root-cu_1unev6dohfdvy-fill" data-item-order="2" transform="translate(890, 73.98345947265625)"></g><g id="g-root-cu_4hxtg5ohfdab-fill" data-item-order="2" transform="translate(890, 125.9835205078125)"></g><g id="g-root-cu_1lrruxhohffgg-fill" data-item-order="2" transform="translate(558, 145.9835205078125)"></g><g id="g-root-ic_time_v63sd1ohb7cz-fill" data-item-order="5000000000" transform="translate(226, 58.98345947265625)"></g><g id="g-root-tx_calculat_qp1c2dohb5z6-fill" data-item-order="5000000000" transform="translate(262, 49.98345947265625)"><g id="tx_calculat_qp1c2dohb5z6-fill" stroke="none" fill="#1eabda"><g><text style="font: 20px &quot;Roboto&quot;, sans-serif; white-space: pre;" font-size="20px" font-family="'Roboto', sans-serif"><tspan x="12" y="33.83" dominant-baseline="ideographic">Calculate KL </tspan><tspan x="12" y="57.83" dominant-baseline="ideographic">Divergence</tspan></text></g></g></g><g id="g-root-ic_pro_18koo5xoh9sso-fill" data-item-order="5000000000" transform="translate(26, 58.98345947265625)"></g><g id="g-root-ic_up_4ot1edohb6rs-fill" data-item-order="5000000000" transform="translate(734, 58.98345947265625)"></g><g id="g-root-tx_setthigh_1lxe4phohb6rr-fill" data-item-order="5000000000" transform="translate(770, 61.98345947265625)"><g id="tx_setthigh_1lxe4phohb6rr-fill" stroke="none" fill="#1eabda"><g><text style="font: 20px &quot;Roboto&quot;, sans-serif; white-space: pre;" font-size="20px" font-family="'Roboto', sans-serif"><tspan x="12" y="33.83" dominant-baseline="ideographic">Set ωt High</tspan></text></g></g></g><g id="g-root-ic_lock_92r49hohdyiv-fill" data-item-order="5000000000" transform="translate(958, 110.9835205078125)"></g><g id="g-root-tx_reduceun_1czvp79ohe03q-fill" data-item-order="5000000000" transform="translate(994, 101.9835205078125)"><g id="tx_reduceun_1czvp79ohe03q-fill" stroke="none" fill="#de58a9"><g><text style="font: 20px &quot;Roboto&quot;, sans-serif; white-space: pre;" font-size="20px" font-family="'Roboto', sans-serif"><tspan x="12" y="33.83" dominant-baseline="ideographic">Reduce </tspan><tspan x="12" y="57.83" dominant-baseline="ideographic">Uncertainty</tspan></text></g></g></g><g id="g-root-tx_iskldive_4jt8phohb7d1-fill" data-item-order="5000000000" transform="translate(504, 37.98345947265625)"><g id="tx_iskldive_4jt8phohb7d1-fill" stroke="none" fill="#de8431"><g><text style="font: 20px &quot;Roboto&quot;, sans-serif; white-space: pre;" font-size="20px" font-family="'Roboto', sans-serif"><tspan x="39.5" y="33.83" dominant-baseline="ideographic">Is KL </tspan><tspan x="12.17" y="57.83" dominant-baseline="ideographic">Divergence </tspan><tspan x="38.18" y="81.83" dominant-baseline="ideographic">Low?</tspan></text></g></g></g><g id="g-root-ic_desc_djtkk5ohcmis-fill" data-item-order="5000000000" transform="translate(734, 162.9835205078125)"></g><g id="g-root-tx_settlow_1hhkml1ohckxv-fill" data-item-order="5000000000" transform="translate(770, 165.9835205078125)"><g id="tx_settlow_1hhkml1ohckxv-fill" stroke="none" fill="#1eabda"><g><text style="font: 20px &quot;Roboto&quot;, sans-serif; white-space: pre;" font-size="20px" font-family="'Roboto', sans-serif"><tspan x="12" y="33.83" dominant-baseline="ideographic">Set ωt Low</tspan></text></g></g></g><g id="g-root-tx_agentsin_hx56c5oh9qmn-fill" data-item-order="5000000000" transform="translate(62, 37.98345947265625)"><g id="tx_agentsin_hx56c5oh9qmn-fill" stroke="none" fill="#969696"><g><text style="font: 20px &quot;Roboto&quot;, sans-serif; white-space: pre;" font-size="20px" font-family="'Roboto', sans-serif"><tspan x="12" y="33.83" dominant-baseline="ideographic">Agent's </tspan><tspan x="12" y="57.83" dominant-baseline="ideographic">Internal </tspan><tspan x="12" y="81.83" dominant-baseline="ideographic">State</tspan></text></g></g></g><g id="g-root-di_qs5phxohb6dq-stroke" data-item-order="-31104" transform="translate(450, 1.98345947265625)"><g id="di_qs5phxohb6dq-stroke" fill="none" stroke-linecap="round" stroke-linejoin="round" stroke-miterlimit="4" stroke="#de8431" stroke-width="2"><g><path d="M 10 82L 118 154L 226 82L 118 10Z"></path></g></g></g><g id="g-root-ro_v9umvpoh9r7t-stroke" data-item-order="-13824" transform="translate(14, 25.98345947265625)"><g id="ro_v9umvpoh9r7t-stroke" fill="none" stroke-linecap="round" stroke-linejoin="round" stroke-miterlimit="4" stroke="#484848" stroke-width="2"><g><path d="M 22 10L 142 10C 142 10 154 10 154 22L 154 94C 154 94 154 106 142 106L 22 106C 22 106 10 106 10 94L 10 22C 10 22 10 10 22 10"></path></g></g></g><g id="g-root-ro_hv9r2tohb5s4-stroke" data-item-order="-12960" transform="translate(214, 37.98345947265625)"><g id="ro_hv9r2tohb5s4-stroke" fill="none" stroke-linecap="round" stroke-linejoin="round" stroke-miterlimit="4" stroke="#1eabda" stroke-width="2"><g><path d="M 22 10L 178 10C 178 10 190 10 190 22L 190 70C 190 70 190 82 178 82L 22 82C 22 82 10 82 10 70L 10 22C 10 22 10 10 22 10"></path></g></g></g><g id="g-root-ro_1qcl5qtohe0ow-stroke" data-item-order="-12096" transform="translate(946, 89.9835205078125)"><g id="ro_1qcl5qtohe0ow-stroke" fill="none" stroke-linecap="round" stroke-linejoin="round" stroke-miterlimit="4" stroke="#de58a9" stroke-width="2"><g><path d="M 22 10L 166 10C 166 10 178 10 178 22L 178 70C 178 70 178 82 166 82L 22 82C 22 82 10 82 10 70L 10 22C 10 22 10 10 22 10"></path></g></g></g><g id="g-root-ro_8zj9xohckxx-stroke" data-item-order="-9072" transform="translate(722, 150.9835205078125)"><g id="ro_8zj9xohckxx-stroke" fill="none" stroke-linecap="round" stroke-linejoin="round" stroke-miterlimit="4" stroke="#1eabda" stroke-width="2"><g><path d="M 22 10L 166 10C 166 10 178 10 178 22L 178 52C 178 52 178 64 166 64L 22 64C 22 64 10 64 10 52L 10 22C 10 22 10 10 22 10"></path></g></g></g><g id="g-root-ro_8zj9xohb7k1-stroke" data-item-order="-9072" transform="translate(722, 46.98345947265625)"><g id="ro_8zj9xohb7k1-stroke" fill="none" stroke-linecap="round" stroke-linejoin="round" stroke-miterlimit="4" stroke="#1eabda" stroke-width="2"><g><path d="M 22 10L 166 10C 166 10 178 10 178 22L 178 52C 178 52 178 64 166 64L 22 64C 22 64 10 64 10 52L 10 22C 10 22 10 10 22 10"></path></g></g></g><g id="g-root-tx_yes_18f2edxohfev6-stroke" data-item-order="0" transform="translate(666, 37.98345947265625)"></g><g id="g-root-tx_no_4g2e6tohfea1-stroke" data-item-order="0" transform="translate(570, 145.9835205078125)"></g><g id="g-root-cu_1414bitohfeo1-stroke" data-item-order="2" transform="translate(158, 73.98345947265625)"><g id="cu_1414bitohfeo1-stroke" fill="none" stroke-linecap="round" stroke-linejoin="round" stroke-miterlimit="4" stroke="#484848" stroke-width="2"><g><path d="M 10 10.000061L 38 10.000061L 64 10.000061"></path><path d="M 58 16.500061L 64.5 10.000061L 58 3.500061" stroke-dasharray="none"></path></g></g></g><g id="g-root-cu_18gxtn9ohfdvq-stroke" data-item-order="2" transform="translate(394, 73.98345947265625)"><g id="cu_18gxtn9ohfdvq-stroke" fill="none" stroke-linecap="round" stroke-linejoin="round" stroke-miterlimit="4" stroke="#484848" stroke-width="2"><g><path d="M 10 10.000061L 38 10.000061L 64 10.000061"></path><path d="M 58 16.500061L 64.5 10.000061L 58 3.500061" stroke-dasharray="none"></path></g></g></g><g id="g-root-cu_1cwrbrpohfd3f-stroke" data-item-order="2" transform="translate(666, 73.98345947265625)"><g id="cu_1cwrbrpohfd3f-stroke" fill="none" stroke-linecap="round" stroke-linejoin="round" stroke-miterlimit="4" stroke="#484848" stroke-width="2"><g><path d="M 10 10.000061L 38 10.000061L 64 10.000061"></path><path d="M 58 16.500061L 64.5 10.000061L 58 3.500061" stroke-dasharray="none"></path></g></g></g><g id="g-root-cu_1unev6dohfdvy-stroke" data-item-order="2" transform="translate(890, 73.98345947265625)"><g id="cu_1unev6dohfdvy-stroke" fill="none" stroke-linecap="round" stroke-linejoin="round" stroke-miterlimit="4" stroke="#484848" stroke-width="2"><g><path d="M 10 10.000061L 24 10.000061L 38 10.000061L 38 36.000061L 38 62.000061L 52 62.000061L 64 62.000061"></path><path d="M 58 68.500061L 64.5 62.000061L 58 55.500061" stroke-dasharray="none"></path></g></g></g><g id="g-root-cu_4hxtg5ohfdab-stroke" data-item-order="2" transform="translate(890, 125.9835205078125)"><g id="cu_4hxtg5ohfdab-stroke" fill="none" stroke-linecap="round" stroke-linejoin="round" stroke-miterlimit="4" stroke="#484848" stroke-width="2"><g><path d="M 10 62L 24 62L 38 62L 38 36L 38 10L 52 10L 64 10"></path><path d="M 58 16.5L 64.5 10L 58 3.5" stroke-dasharray="none"></path></g></g></g><g id="g-root-cu_1lrruxhohffgg-stroke" data-item-order="2" transform="translate(558, 145.9835205078125)"><g id="cu_1lrruxhohffgg-stroke" fill="none" stroke-linecap="round" stroke-linejoin="round" stroke-miterlimit="4" stroke="#484848" stroke-width="2"><g><path d="M 10 10L 10 26L 10 42L 92 42L 172 42"></path><path d="M 166 48.5L 172.5 42L 166 35.5" stroke-dasharray="none"></path></g></g></g><g id="g-root-ic_time_v63sd1ohb7cz-stroke" data-item-order="5000000000" transform="translate(226, 58.98345947265625)"><g id="ic_time_v63sd1ohb7cz-stroke" fill="none" stroke-linecap="round" stroke-linejoin="round" stroke-miterlimit="4" stroke="#1eabda" stroke-width="2"><g><path d="M 25.3125 10.9375C 25.3125 14.4375 30.3125 17.312511 37.3125 17.312511L 39.0625 17.312511M 39.0625 21.062624C 26.6875 21.062624 17.1875 16.812626 17.1875 11.687625M 28.937624 24.4375C 17.437563 25.4375 11.312563 29.187624 11.312563 33.562626M 23.8125 30.6875C 19.6875 32.3125 17.1875 34.6875 17.1875 37.1875M 37.8125 24.6875L 39.0625 24.6875M 10.9375 15.3125C 10.9375 19.6875 17.1875 23.4375 28.9375 24.4375M 33.4375 39.0625C 36.544125 39.0625 39.0625 36.544125 39.0625 33.4375C 39.0625 30.330875 36.544125 27.8125 33.4375 27.8125C 30.330875 27.8125 27.8125 30.330875 27.8125 33.4375C 27.8125 36.544125 30.330875 39.0625 33.4375 39.0625ZM 33.4375 27.8125L 33.4375 33.4375L 39.033249 32.866249"></path></g></g></g><g id="g-root-tx_calculat_qp1c2dohb5z6-stroke" data-item-order="5000000000" transform="translate(262, 49.98345947265625)"></g><g id="g-root-ic_pro_18koo5xoh9sso-stroke" data-item-order="5000000000" transform="translate(26, 58.98345947265625)"><g id="ic_pro_18koo5xoh9sso-stroke" fill="none" stroke-linecap="round" stroke-linejoin="round" stroke-miterlimit="4" stroke="#969696" stroke-width="2"><g><path d="M 26.348375 23.873499C 25.588749 23.167999 24.412876 23.16975 23.655375 23.877501L 22.430113 25.022125C 20.592388 26.738874 17.974463 27.337 15.5735 26.588625C 12.943225 25.768749 11.151695 23.33375 11.151695 20.578625L 11.151695 19.426174C 11.151695 15.3678 14.240849 11.976413 18.281612 11.598687L 19.97155 11.440725C 23.3165 11.128036 26.6835 11.128036 30.0285 11.440725L 31.714626 11.59835C 35.7575 11.976262 38.848373 15.369425 38.848373 19.429913L 38.848373 20.593187C 38.848373 21.99835 38.381374 23.320126 37.574249 24.386124M 10 10M 31.546627 15.264262L 29.480751 15.06925C 26.5005 14.787912 23.502625 14.787912 20.522362 15.06925L 18.453325 15.264563M 10 10M 29.64925 26.734375L 30.110126 25.5445C 30.187874 25.343 30.324627 25.16975 30.502501 25.047249C 30.6805 24.924875 30.891125 24.859001 31.107124 24.858376L 31.986124 24.858376C 32.202 24.859001 32.41275 24.924875 32.590626 25.047249C 32.768501 25.16975 32.905251 25.343 32.983002 25.5445L 33.444 26.734375L 35.008999 27.63475L 36.273998 27.441875C 36.484627 27.41325 36.698997 27.447874 36.889751 27.541374C 37.080624 27.635 37.239498 27.783125 37.345875 27.967125L 37.77475 28.717501C 37.884624 28.904375 37.935249 29.120125 37.919876 29.336374C 37.904625 29.552626 37.823997 29.759251 37.688873 29.928749L 36.906376 30.925751L 36.906376 32.726624L 37.710377 33.723499C 37.845501 33.893002 37.925999 34.099625 37.941376 34.315876C 37.956623 34.532124 37.906002 34.747875 37.796127 34.934875L 37.367374 35.685249C 37.260876 35.869125 37.102123 36.017376 36.911247 36.110874C 36.720375 36.204372 36.506001 36.238998 36.295376 36.210499L 35.030502 36.017498L 33.465378 36.917999L 33.004501 38.107876C 32.92675 38.30925 32.790001 38.482624 32.612125 38.605C 32.43425 38.727375 32.223499 38.793251 32.0075 38.793877L 31.107124 38.793877C 30.891125 38.793251 30.6805 38.727375 30.502501 38.605C 30.324627 38.482624 30.187874 38.30925 30.110126 38.107876L 29.64925 36.917999L 28.084126 36.017498L 26.81925 36.210499C 26.608624 36.238998 26.394251 36.204372 26.203375 36.110874C 26.012501 36.017376 25.85375 35.869125 25.74725 35.685249L 25.318501 34.934875C 25.208624 34.747875 25.158001 34.532124 25.173374 34.315876C 25.188625 34.099625 25.269125 33.893002 25.404249 33.723499L 26.18675 32.726624L 26.18675 30.925751L 25.382875 29.928749C 25.247749 29.759251 25.167126 29.552626 25.151875 29.336374C 25.136625 29.120125 25.187126 28.904375 25.297001 28.717501L 25.725876 27.967125C 25.832375 27.783125 25.991125 27.635 26.181999 27.541374C 26.372875 27.447874 26.587126 27.41325 26.79775 27.441875L 28.06275 27.63475L 29.64925 26.734375ZM 29.550001 31.82625C 29.550001 32.928749 30.443752 33.822502 31.546251 33.822502C 32.64875 33.822502 33.5425 32.928749 33.5425 31.82625C 33.5425 30.723753 32.64875 29.83 31.546251 29.83C 30.443752 29.83 29.550001 30.723753 29.550001 31.82625"></path></g></g></g><g id="g-root-ic_up_4ot1edohb6rs-stroke" data-item-order="5000000000" transform="translate(734, 58.98345947265625)"><g id="ic_up_4ot1edohb6rs-stroke" fill="none" stroke-linecap="round" stroke-linejoin="round" stroke-miterlimit="4" stroke="#1eabda" stroke-width="2"><g><path d="M 10 10M 39.375 14.40375L 35.625 10.65375L 31.875 14.40375M 17.65625 37.924999C 16.693874 38.259331 15.713093 38.538124 14.71875 38.760002M 22.875 35.446251C 22.032085 35.964756 21.161177 36.436306 20.266251 36.858749M 11.875 39.236252C 11.4625 39.282501 11.04625 39.318748 10.625 39.346249M 35.625 10.65375C 35.647499 11.105 35.625 12.18375 35.625 12.64C 35.633057 20.468327 32.205982 27.905993 26.25 32.986252C 25.933334 33.256248 25.610832 33.519585 25.282499 33.776249"></path></g></g></g><g id="g-root-tx_setthigh_1lxe4phohb6rr-stroke" data-item-order="5000000000" transform="translate(770, 61.98345947265625)"></g><g id="g-root-ic_lock_92r49hohdyiv-stroke" data-item-order="5000000000" transform="translate(958, 110.9835205078125)"><g id="ic_lock_92r49hohdyiv-stroke" fill="none" stroke-linecap="round" stroke-linejoin="round" stroke-miterlimit="4" stroke="#de58a9" stroke-width="2"><g><path d="M 39.0625 12.75L 33.1875 18.75L 30.6875 16.25L 27.1875 19.75M 24.0625 31C 24.0625 32 23.1875 32.875 22.1875 32.875L 12.8125 32.875C 11.8125 32.875 10.9375 32 10.9375 31L 10.9375 24.125C 10.9375 23.125 11.8125 22.25 12.8125 22.25L 22.1875 22.25C 23.1875 22.25 24.0625 23.125 24.0625 24.125L 24.0625 31ZM 17.5625 26.875C 17.1875 26.875 16.9375 27.125 16.9375 27.5C 16.9375 27.875 17.1875 28.125 17.5625 28.125M 17.5625 26.875C 17.9375 26.875 18.1875 27.125 18.1875 27.5C 18.1875 27.875 17.9375 28.125 17.5625 28.125M 12.8125 22.25L 12.8125 19.5C 12.8125 16.875 14.9375 14.75 17.5625 14.75C 20.1875 14.75 22.3125 16.875 22.3125 19.5L 22.3125 22.25M 35.0625 12.75L 39.0625 12.75L 39.0625 16.875M 10 10M 39.0625 37.25L 33.1875 31.25L 30.6875 33.75L 27.8125 31M 35.0625 37.25L 39.0625 37.25L 39.0625 33.125"></path></g></g></g><g id="g-root-tx_reduceun_1czvp79ohe03q-stroke" data-item-order="5000000000" transform="translate(994, 101.9835205078125)"></g><g id="g-root-tx_iskldive_4jt8phohb7d1-stroke" data-item-order="5000000000" transform="translate(504, 37.98345947265625)"></g><g id="g-root-ic_desc_djtkk5ohcmis-stroke" data-item-order="5000000000" transform="translate(734, 162.9835205078125)"><g id="ic_desc_djtkk5ohcmis-stroke" fill="none" stroke-linecap="round" stroke-linejoin="round" stroke-miterlimit="4" stroke="#1eabda" stroke-width="2"><g><path d="M 11.5625 17.1875L 20.7325 27.5C 21.198307 28.014229 21.985447 28.073046 22.522501 27.633751L 28.102501 22.983749C 28.639294 22.544397 29.426716 22.604967 29.889999 23.12125L 38.4375 32.80875M 29.764999 32.8125L 38.4375 32.8125L 38.4375 25.338749"></path></g></g></g><g id="g-root-tx_settlow_1hhkml1ohckxv-stroke" data-item-order="5000000000" transform="translate(770, 165.9835205078125)"></g><g id="g-root-tx_agentsin_hx56c5oh9qmn-stroke" data-item-order="5000000000" transform="translate(62, 37.98345947265625)"></g></g></g><path id="w1d2dv1hmjjnyb" d="M65.283 12.757a.35.35 0 0 0 .584.157l5.203-5.141-6.183 3.523.396 1.461zm-2.216-11.7a.35.35 0 0 0-.522.305v3.111l3.276-1.868-2.754-1.548zm3.728 2.105l-4.25 2.421v2.445l6.391-3.644-2.141-1.222zm4.708 3.303a.35.35 0 0 0 0-.609l-1.592-.9-7.365 4.199v1.782a.35.35 0 0 0 .523.305l8.435-4.777z M44.542 2.513c0-.433.355-.783.792-.783s.792.35.792.783-.355.783-.792.783-.792-.35-.792-.783zm59.171 0c0-.433.355-.783.792-.783s.792.35.792.783-.355.783-.792.783-.792-.35-.792-.783zm-85.951 7.636h-1.27v-.487c-.276.201-.864.609-1.881.609-1.202 0-2.274-.794-2.137-2.078.118-1.106 1.153-1.584 1.848-1.727l2.17-.345c0-.539-.29-.956-1.064-1.006s-1.21.305-1.571 1.017l-1.124-.605c1.218-2.631 5.029-1.764 5.029.414v4.207zm-1.27-2.86c.006.396-.062 1.112-.819 1.59-.587.37-1.841.299-1.903-.395-.049-.555.461-.791.906-.898l1.816-.297zm72.662 2.86h-1.27v-.487c-.276.201-.864.609-1.881.609-1.202 0-2.274-.794-2.137-2.078.118-1.106 1.153-1.584 1.848-1.727l2.17-.345c0-.539-.29-.956-1.064-1.006s-1.21.305-1.571 1.017l-1.124-.605c1.218-2.631 5.029-1.764 5.029.414v4.207zm-1.27-2.86c.006.396-.062 1.112-.82 1.59-.587.37-1.841.299-1.903-.395-.049-.555.461-.791.906-.898l1.816-.297zM99.096 10.149H97.85v-8.45h1.246v4.895l2.68-2.559h1.738l-2.633 2.535 2.715 3.578h-1.556l-2.077-2.707-.867.844v1.863zm6.053-6.114h-1.255v6.113h1.255V4.035zm-59.2 0h-1.255v6.113h1.255V4.035zm5.584 6.113V1.697h1.255v2.695c.361-.346 1-.485 1.47-.485 1.452 0 2.477 1.082 2.457 2.448v3.792h-1.27v-3.68c0-.408-.214-1.339-1.315-1.339-.968 0-1.342.756-1.342 1.339v3.681h-1.255zm-4.76-4.894V4.039h.621a.45.45 0 0 0 .45-.45v-.855h1.251v1.305h1.309v1.215h-1.309v3.109c0 .293.105.664.648.664.365 0 .531-.035.736-.07v1.137s-.361.113-.857.113c-1.398 0-1.777-1.051-1.777-1.788V5.254h-1.071zM36.528 4.039h-1.394l2.191 6.106h1.125l1.234-3.918 1.238 3.918h1.129l2.188-6.106h-1.383l-1.359 3.93-1.256-3.93h-1.124l-1.242 3.957-1.348-3.957zM26.212 7.141c-.02 1.566 1.187 3.129 3.223 3.129 1.566 0 2.383-.918 2.734-1.719L31.172 8c-.315.399-.801 1.094-1.738 1.094-1.145 0-1.825-.781-1.891-1.52h4.625c.074-.284.148-.995-.03-1.559-.336-1.064-1.221-2.102-2.839-2.102s-3.088 1.152-3.088 3.227zm1.363-.75h3.348c-.055-.43-.566-1.301-1.623-1.301a1.79 1.79 0 0 0-1.725 1.301zm-8.758.75c.038 1.758 1.277 3.133 3.145 3.133 1.074 0 1.723-.477 1.961-.672v.547h1.242V1.703h-1.258v2.888c-.414-.36-1.062-.68-1.93-.68-1.91 0-3.198 1.473-3.16 3.23zm1.309-.08c0 1.119.723 1.978 1.836 1.978a1.88 1.88 0 0 0 1.94-1.904c0-1.371-1.011-1.99-1.972-1.99s-1.805.798-1.805 1.916zm76.683-.028C96.771 5.275 95.532 3.9 93.664 3.9c-1.074 0-1.723.477-1.961.672v-.547h-1.242v8.22h1.258V9.583c.414.36 1.063.68 1.93.68 1.91 0 3.198-1.473 3.16-3.23zm-1.309.08c0-1.119-.723-1.978-1.836-1.978a1.88 1.88 0 0 0-1.94 1.904c0 1.371 1.011 1.99 1.972 1.99S95.5 8.231 95.5 7.113zM106.441 10.173V4.036h1.254v.382c.361-.346 1-.485 1.47-.485 1.452 0 2.477 1.082 2.457 2.448v3.792h-1.27V6.492c0-.408-.214-1.339-1.315-1.339-.969 0-1.342.756-1.342 1.339v3.681h-1.254zm-30.383-.021V1.824h1.084l4.215 5.777V1.824h1.32v8.328h-1.094l-4.207-5.796v5.796h-1.319zM5.24 10.149H4V2.377h1.014l2.664 3.597 2.654-3.592h1.03v7.766h-1.256V4.762L7.678 8.068 5.24 4.742v5.407z" transform="translate(1034, 204.9835205078125)" fill="#80808088" stroke="none"></path></svg>