<?xml version="1.0" encoding="utf-8" standalone="yes"?>
<!DOCTYPE svg PUBLIC "-//W3C//DTD SVG 1.1//EN" "http://www.w3.org/Graphics/SVG/1.1/DTD/svg11.dtd">
<svg width="840" height="688" viewBox="0 0 840 688" style="fill:none;stroke:none;fill-rule:evenodd;clip-rule:evenodd;stroke-linecap:round;stroke-linejoin:round;stroke-miterlimit:1.5;" version="1.1" xmlns="http://www.w3.org/2000/svg" xmlns:xlink="http://www.w3.org/1999/xlink"><style class="text-font-style fontImports" data-font-family="Roboto">@import url('https://fonts.googleapis.com/css2?family=Roboto:wght@400;700&amp;display=block');</style><g id="items" style="isolation: isolate"><g id="blend" style="mix-blend-mode: normal"><g id="g-root-ro_zn5w3drtby10-fill" data-item-order="-29232" transform="translate(314, 284)"></g><g id="g-root-ro_4ik14prsv478-fill" data-item-order="-15552" transform="translate(450, 494)"></g><g id="g-root-ro_8vvmwprt3i8a-fill" data-item-order="-15552" transform="translate(58, 122)"></g><g id="g-root-ro_zlajztrss9hc-fill" data-item-order="-14904" transform="translate(530, 272)"></g><g id="g-root-ro_8wi3ztrsxvyg-fill" data-item-order="-14256" transform="translate(450, 122)"></g><g id="g-root-ro_1um5nllrt22a0-fill" data-item-order="-14256" transform="translate(82, 494)"></g><g id="g-root-ro_ddkkahrt0ow2-fill" data-item-order="-13608" transform="translate(14, 272)"></g><g id="g-root-cu_13zv3y1rt3h8i-fill" data-item-order="0" transform="translate(426, 149)"></g><g id="g-root-cu_1unelrtrt3jev-fill" data-item-order="0" transform="translate(304, 548)"></g><g id="g-root-tx_optimalp_1hhkd6hrsxxc9-fill" data-item-order="0" transform="translate(22, 188)"><g id="tx_optimalp_1hhkd6hrsxxc9-fill" stroke="none" fill="#484848"><g><text style="font: 20px &quot;Roboto&quot;, sans-serif; white-space: pre;" font-size="20px" font-family="'Roboto', sans-serif"><tspan x="16.23" y="33.83" dominant-baseline="ideographic">Optimal Policy Approximation</tspan></text></g></g></g><g id="g-root-cu_18gxk8prt3jep-fill" data-item-order="0" transform="translate(304, 176)"></g><g id="g-root-cu_zlx12xrt3h1o-fill" data-item-order="0" transform="translate(304, 176)"></g><g id="g-root-cu_magiplrt3imm-fill" data-item-order="0" transform="translate(474, 176)"></g><g id="g-root-cu_hun0l5rt3jex-fill" data-item-order="0" transform="translate(474, 176)"></g><g id="g-root-tx_uncertai_1q6c5h5rszbij-fill" data-item-order="0" transform="translate(498, 188)"><g id="tx_uncertai_1q6c5h5rszbij-fill" stroke="none" fill="#484848"><g><text style="font: 20px &quot;Roboto&quot;, sans-serif; white-space: pre;" font-size="20px" font-family="'Roboto', sans-serif"><tspan x="13.28" y="33.83" dominant-baseline="ideographic">Uncertainty Adjustment</tspan></text></g></g></g><g id="g-root-tx_neuralne_1lz9ak9rsxvka-fill" data-item-order="0" transform="translate(70, 224)"><g id="tx_neuralne_1lz9ak9rsxvka-fill" stroke="none" fill="#484848"><g><text style="font: 20px &quot;Roboto&quot;, sans-serif; white-space: pre;" font-size="20px" font-family="'Roboto', sans-serif"><tspan x="14.02" y="33.83" dominant-baseline="ideographic">Neural Network Learning</tspan></text></g></g></g><g id="g-root-tx_explorat_1q87kqhrszais-fill" data-item-order="0" transform="translate(498, 224)"><g id="tx_explorat_1q87kqhrszais-fill" stroke="none" fill="#484848"><g><text style="font: 20px &quot;Roboto&quot;, sans-serif; white-space: pre;" font-size="20px" font-family="'Roboto', sans-serif"><tspan x="15.97" y="33.83" dominant-baseline="ideographic">Exploration vs. Exploitation</tspan></text></g></g></g><g id="g-root-cu_1q87kqhrt3h1e-fill" data-item-order="0" transform="translate(304, 548)"></g><g id="g-root-cu_18f24zdrt3jlz-fill" data-item-order="0" transform="translate(346, 149)"></g><g id="g-root-tx_expected_v9udh5rsxv5s-fill" data-item-order="0" transform="translate(498, 596)"><g id="tx_expected_v9udh5rsxv5s-fill" stroke="none" fill="#484848"><g><text style="font: 20px &quot;Roboto&quot;, sans-serif; white-space: pre;" font-size="20px" font-family="'Roboto', sans-serif"><tspan x="14.39" y="33.83" dominant-baseline="ideographic">Expected Free Energy Estimation</tspan></text></g></g></g><g id="g-root-cu_1hckkhlrt3hu4-fill" data-item-order="0" transform="translate(474, 548)"></g><g id="g-root-cu_1ulj6ihrt3jm3-fill" data-item-order="0" transform="translate(266, 299)"></g><g id="g-root-cu_1414249rt3jf3-fill" data-item-order="0" transform="translate(474, 548)"></g><g id="g-root-cu_1q6c5h5rt3h8m-fill" data-item-order="0" transform="translate(482, 299)"></g><g id="g-root-tx_neuralne_1um5nllrsxxc9-fill" data-item-order="0" transform="translate(62, 338)"><g id="tx_neuralne_1um5nllrsxxc9-fill" stroke="none" fill="#484848"><g><text style="font: 20px &quot;Roboto&quot;, sans-serif; white-space: pre;" font-size="20px" font-family="'Roboto', sans-serif"><tspan x="13.96" y="33.83" dominant-baseline="ideographic">Neural Networks</tspan></text></g></g></g><g id="g-root-cu_v483p5rt3i19-fill" data-item-order="0" transform="translate(224, 326)"></g><g id="g-root-cu_m8l3g9rt3jls-fill" data-item-order="0" transform="translate(224, 326)"></g><g id="g-root-cu_ddkkahrt3h8q-fill" data-item-order="0" transform="translate(554, 326)"></g><g id="g-root-cu_241x5rt3itp-fill" data-item-order="0" transform="translate(554, 326)"></g><g id="g-root-tx_learning_1uo12uxrsxwcj-fill" data-item-order="0" transform="translate(578, 338)"><g id="tx_learning_1uo12uxrsxwcj-fill" stroke="none" fill="#484848"><g><text style="font: 20px &quot;Roboto&quot;, sans-serif; white-space: pre;" font-size="20px" font-family="'Roboto', sans-serif"><tspan x="16.75" y="33.83" dominant-baseline="ideographic">Learning Process</tspan></text></g></g></g><g id="g-root-tx_posterio_zko2wprsxuyq-fill" data-item-order="0" transform="translate(62, 374)"><g id="tx_posterio_zko2wprsxuyq-fill" stroke="none" fill="#484848"><g><text style="font: 20px &quot;Roboto&quot;, sans-serif; white-space: pre;" font-size="20px" font-family="'Roboto', sans-serif"><tspan x="14.59" y="33.83" dominant-baseline="ideographic">Posterior Beliefs</tspan></text></g></g></g><g id="g-root-tx_minimiza_141qj7drsxwck-fill" data-item-order="0" transform="translate(578, 374)"><g id="tx_minimiza_141qj7drsxwck-fill" stroke="none" fill="#484848"><g><text style="font: 20px &quot;Roboto&quot;, sans-serif; white-space: pre;" font-size="20px" font-family="'Roboto', sans-serif"><tspan x="12.34" y="33.83" dominant-baseline="ideographic">Minimization</tspan></text></g></g></g><g id="g-root-cu_1lqincprt3i0x-fill" data-item-order="0" transform="translate(346, 458)"></g><g id="g-root-cu_1cuvn3trt3ito-fill" data-item-order="0" transform="translate(426, 458)"></g><g id="g-root-tx_actionse_4loek9rsxw5j-fill" data-item-order="0" transform="translate(498, 560)"><g id="tx_actionse_4loek9rsxw5j-fill" stroke="none" fill="#484848"><g><text style="font: 20px &quot;Roboto&quot;, sans-serif; white-space: pre;" font-size="20px" font-family="'Roboto', sans-serif"><tspan x="13.87" y="33.83" dominant-baseline="ideographic">Action Sequences</tspan></text></g></g></g><g id="g-root-tx_informat_znsgc9rsxvda-fill" data-item-order="0" transform="translate(106, 596)"><g id="tx_informat_znsgc9rsxvda-fill" stroke="none" fill="#484848"><g><text style="font: 20px &quot;Roboto&quot;, sans-serif; white-space: pre;" font-size="20px" font-family="'Roboto', sans-serif"><tspan x="16.1" y="33.83" dominant-baseline="ideographic">Information-Seeking</tspan></text></g></g></g><g id="g-root-tx_deepacti_3zh6hrt3imb-fill" data-item-order="0" transform="translate(176, 26)"><g id="tx_deepacti_3zh6hrt3imb-fill" stroke="none" fill="#484848"><g><text style="font: 25px &quot;Roboto&quot;, sans-serif; white-space: pre;" font-size="25px" font-family="'Roboto', sans-serif"><tspan x="13.22" y="39.98" dominant-baseline="ideographic">Deep Active Inference Agent Architecture:</tspan><tspan x="179.29" y="69.98" dominant-baseline="ideographic">A Roadmap</tspan></text></g></g></g><g id="g-root-tx_rewardse_4ly9lrsxurp-fill" data-item-order="0" transform="translate(142, 560)"><g id="tx_rewardse_4ly9lrsxurp-fill" stroke="none" fill="#484848"><g><text style="font: 20px &quot;Roboto&quot;, sans-serif; white-space: pre;" font-size="20px" font-family="'Roboto', sans-serif"><tspan x="16.69" y="33.83" dominant-baseline="ideographic">Reward-Seeking</tspan></text></g></g></g><g id="g-root-tx_precisio_94ma49rswidq-fill" data-item-order="1000000000" transform="translate(498, 137)"><g id="tx_precisio_94ma49rswidq-fill" stroke="none" fill="#92bd39"><g><text style="font: 20px &quot;Roboto&quot;, sans-serif; white-space: pre;" font-size="20px" font-family="'Roboto', sans-serif"><tspan x="17.72" y="33.83" dominant-baseline="ideographic">Precision Modulation</tspan></text></g></g></g><g id="g-root-tx_amortize_1um5nllrt0ow0-fill" data-item-order="1000000000" transform="translate(26, 287)"><g id="tx_amortize_1um5nllrt0ow0-fill" stroke="none" fill="#de58a9"><g><text style="font: 20px &quot;Roboto&quot;, sans-serif; white-space: pre;" font-size="20px" font-family="'Roboto', sans-serif"><tspan x="15.8" y="33.83" dominant-baseline="ideographic">Amortized Inference</tspan></text></g></g></g><g id="g-root-ic_anch_qoelkprt0qgx-fill" data-item-order="1000000000" transform="translate(224, 284)"></g><g id="g-root-ic_bust_qn5nehrsxwr3-fill" data-item-order="1000000000" transform="translate(462, 134)"></g><g id="g-root-ic_fram_1hby3ehrssa9z-fill" data-item-order="1000000000" transform="translate(542, 284)"></g><g id="g-root-tx_variatio_dcy37drss9ou-fill" data-item-order="1000000000" transform="translate(578, 287)"><g id="tx_variatio_dcy37drss9ou-fill" stroke="none" fill="#ba5de5"><g><text style="font: 20px &quot;Roboto&quot;, sans-serif; white-space: pre;" font-size="20px" font-family="'Roboto', sans-serif"><tspan x="15.92" y="33.83" dominant-baseline="ideographic">Variational Free Energy</tspan></text></g></g></g><g id="g-root-ic_2_1q9gfqxrtby0z-fill" data-item-order="1000000000" transform="translate(374, 308)"></g><g id="g-root-tx_deepacti_1q7l0hlrtbz0q-fill" data-item-order="1000000000" transform="translate(338, 362)"><g id="tx_deepacti_1q7l0hlrtbz0q-fill" stroke="none" fill="#969696"><g><text style="font: 20px &quot;Roboto&quot;, sans-serif; white-space: pre;" font-size="20px" font-family="'Roboto', sans-serif"><tspan x="14.71" y="33.83" dominant-baseline="ideographic">Deep Active </tspan><tspan x="25.96" y="57.83" dominant-baseline="ideographic">Inference </tspan><tspan x="41.28" y="81.83" dominant-baseline="ideographic">Agent</tspan></text></g></g></g><g id="g-root-ic_shar_m7c5a1rt3gnd-fill" data-item-order="1000000000" transform="translate(304, 134)"></g><g id="g-root-tx_habitual_1d3mabdrt222w-fill" data-item-order="1000000000" transform="translate(70, 137)"><g id="tx_habitual_1d3mabdrt222w-fill" stroke="none" fill="#de8431"><g><text style="font: 20px &quot;Roboto&quot;, sans-serif; white-space: pre;" font-size="20px" font-family="'Roboto', sans-serif"><tspan x="17.58" y="33.83" dominant-baseline="ideographic">Habitual Policy Network</tspan></text></g></g></g><g id="g-root-tx_expected_1uu9tq1rt0opa-fill" data-item-order="1000000000" transform="translate(94, 509)"><g id="tx_expected_1uu9tq1rt0opa-fill" stroke="none" fill="#1eabda"><g><text style="font: 20px &quot;Roboto&quot;, sans-serif; white-space: pre;" font-size="20px" font-family="'Roboto', sans-serif"><tspan x="16.57" y="33.83" dominant-baseline="ideographic">Expected Free Energy</tspan></text></g></g></g><g id="g-root-ic_fsx_dbp515rt239r-fill" data-item-order="1000000000" transform="translate(304, 506)"></g><g id="g-root-ic_male_hu0ji1rsv2mb-fill" data-item-order="1000000000" transform="translate(462, 506)"></g><g id="g-root-tx_montecar_1cw4la1rsv1u2-fill" data-item-order="1000000000" transform="translate(498, 509)"><g id="tx_montecar_1cw4la1rsv1u2-fill" stroke="none" fill="#4e88e7"><g><text style="font: 20px &quot;Roboto&quot;, sans-serif; white-space: pre;" font-size="20px" font-family="'Roboto', sans-serif"><tspan x="14.32" y="33.83" dominant-baseline="ideographic">Monte Carlo Tree Search</tspan></text></g></g></g><g id="g-root-ro_zn5w3drtby10-stroke" data-item-order="-29232" transform="translate(314, 284)"><g id="ro_zn5w3drtby10-stroke" fill="none" stroke-linecap="round" stroke-linejoin="round" stroke-miterlimit="4" stroke="#808080" stroke-width="2"><g><path d="M 34 10L 154 10C 154 10 178 10 178 34L 178 160C 178 160 178 184 154 184L 34 184C 34 184 10 184 10 160L 10 34C 10 34 10 10 34 10"></path></g></g></g><g id="g-root-ro_4ik14prsv478-stroke" data-item-order="-15552" transform="translate(450, 494)"><g id="ro_4ik14prsv478-stroke" fill="none" stroke-linecap="round" stroke-linejoin="round" stroke-miterlimit="4" stroke="#4e88e7" stroke-width="2"><g><path d="M 22 10L 286 10C 286 10 298 10 298 22L 298 52C 298 52 298 64 286 64L 22 64C 22 64 10 64 10 52L 10 22C 10 22 10 10 22 10"></path></g></g></g><g id="g-root-ro_8vvmwprt3i8a-stroke" data-item-order="-15552" transform="translate(58, 122)"><g id="ro_8vvmwprt3i8a-stroke" fill="none" stroke-linecap="round" stroke-linejoin="round" stroke-miterlimit="4" stroke="#de8431" stroke-width="2"><g><path d="M 22 10L 286 10C 286 10 298 10 298 22L 298 52C 298 52 298 64 286 64L 22 64C 22 64 10 64 10 52L 10 22C 10 22 10 10 22 10"></path></g></g></g><g id="g-root-ro_zlajztrss9hc-stroke" data-item-order="-14904" transform="translate(530, 272)"><g id="ro_zlajztrss9hc-stroke" fill="none" stroke-linecap="round" stroke-linejoin="round" stroke-miterlimit="4" stroke="#ba5de5" stroke-width="2"><g><path d="M 22 10L 274 10C 274 10 286 10 286 22L 286 52C 286 52 286 64 274 64L 22 64C 22 64 10 64 10 52L 10 22C 10 22 10 10 22 10"></path></g></g></g><g id="g-root-ro_8wi3ztrsxvyg-stroke" data-item-order="-14256" transform="translate(450, 122)"><g id="ro_8wi3ztrsxvyg-stroke" fill="none" stroke-linecap="round" stroke-linejoin="round" stroke-miterlimit="4" stroke="#92bd39" stroke-width="2"><g><path d="M 22 10L 262 10C 262 10 274 10 274 22L 274 52C 274 52 274 64 262 64L 22 64C 22 64 10 64 10 52L 10 22C 10 22 10 10 22 10"></path></g></g></g><g id="g-root-ro_1um5nllrt22a0-stroke" data-item-order="-14256" transform="translate(82, 494)"><g id="ro_1um5nllrt22a0-stroke" fill="none" stroke-linecap="round" stroke-linejoin="round" stroke-miterlimit="4" stroke="#1eabda" stroke-width="2"><g><path d="M 22 10L 262 10C 262 10 274 10 274 22L 274 52C 274 52 274 64 262 64L 22 64C 22 64 10 64 10 52L 10 22C 10 22 10 10 22 10"></path></g></g></g><g id="g-root-ro_ddkkahrt0ow2-stroke" data-item-order="-13608" transform="translate(14, 272)"><g id="ro_ddkkahrt0ow2-stroke" fill="none" stroke-linecap="round" stroke-linejoin="round" stroke-miterlimit="4" stroke="#de58a9" stroke-width="2"><g><path d="M 22 10L 250 10C 250 10 262 10 262 22L 262 52C 262 52 262 64 250 64L 22 64C 22 64 10 64 10 52L 10 22C 10 22 10 10 22 10"></path></g></g></g><g id="g-root-cu_13zv3y1rt3h8i-stroke" data-item-order="0" transform="translate(426, 149)"><g id="cu_13zv3y1rt3h8i-stroke" fill="none" stroke-linecap="round" stroke-linejoin="round" stroke-miterlimit="4" stroke="#484848" stroke-width="2" stroke-dasharray="5.0, 7.0"><g><path d="M 10 145L 10 128.1L 10 30.9C 10 19.357248 19.357248 10 30.899998 10L 31 10L 34 10"></path></g></g></g><g id="g-root-cu_1unelrtrt3jev-stroke" data-item-order="0" transform="translate(304, 548)"><g id="cu_1unelrtrt3jev-stroke" fill="none" stroke-linecap="round" stroke-linejoin="round" stroke-miterlimit="4" stroke="#484848" stroke-width="2" stroke-dasharray="5.0, 7.0"><g><path d="M 28 10L 28 22L 28 34L 19 34L 10 34"></path></g></g></g><g id="g-root-tx_optimalp_1hhkd6hrsxxc9-stroke" data-item-order="0" transform="translate(22, 188)"></g><g id="g-root-cu_18gxk8prt3jep-stroke" data-item-order="0" transform="translate(304, 176)"><g id="cu_18gxk8prt3jep-stroke" fill="none" stroke-linecap="round" stroke-linejoin="round" stroke-miterlimit="4" stroke="#484848" stroke-width="2" stroke-dasharray="5.0, 7.0"><g><path d="M 28 10L 28 22L 28 34L 19 34L 10 34"></path></g></g></g><g id="g-root-cu_zlx12xrt3h1o-stroke" data-item-order="0" transform="translate(304, 176)"><g id="cu_zlx12xrt3h1o-stroke" fill="none" stroke-linecap="round" stroke-linejoin="round" stroke-miterlimit="4" stroke="#484848" stroke-width="2" stroke-dasharray="5.0, 7.0"><g><path d="M 28 10L 28 17.5L 28 58C 27.999999 64.627415 22.627416 69.999998 16 69.999998L 15.9 70L 10 70"></path></g></g></g><g id="g-root-cu_magiplrt3imm-stroke" data-item-order="0" transform="translate(474, 176)"><g id="cu_magiplrt3imm-stroke" fill="none" stroke-linecap="round" stroke-linejoin="round" stroke-miterlimit="4" stroke="#484848" stroke-width="2" stroke-dasharray="5.0, 7.0"><g><path d="M 10 10L 10 22L 10 34L 19 34L 28 34"></path></g></g></g><g id="g-root-cu_hun0l5rt3jex-stroke" data-item-order="0" transform="translate(474, 176)"><g id="cu_hun0l5rt3jex-stroke" fill="none" stroke-linecap="round" stroke-linejoin="round" stroke-miterlimit="4" stroke="#484848" stroke-width="2" stroke-dasharray="5.0, 7.0"><g><path d="M 10 10L 10 17.5L 10 58C 10.000002 64.627417 15.372585 70 22.000002 69.999999L 22.1 70L 28 70"></path></g></g></g><g id="g-root-tx_uncertai_1q6c5h5rszbij-stroke" data-item-order="0" transform="translate(498, 188)"></g><g id="g-root-tx_neuralne_1lz9ak9rsxvka-stroke" data-item-order="0" transform="translate(70, 224)"></g><g id="g-root-tx_explorat_1q87kqhrszais-stroke" data-item-order="0" transform="translate(498, 224)"></g><g id="g-root-cu_1q87kqhrt3h1e-stroke" data-item-order="0" transform="translate(304, 548)"><g id="cu_1q87kqhrt3h1e-stroke" fill="none" stroke-linecap="round" stroke-linejoin="round" stroke-miterlimit="4" stroke="#484848" stroke-width="2" stroke-dasharray="5.0, 7.0"><g><path d="M 28 10L 28 17.5L 28 58C 27.999999 64.627415 22.627416 69.999998 16 69.999998L 15.9 70L 10 70"></path></g></g></g><g id="g-root-cu_18f24zdrt3jlz-stroke" data-item-order="0" transform="translate(346, 149)"><g id="cu_18f24zdrt3jlz-stroke" fill="none" stroke-linecap="round" stroke-linejoin="round" stroke-miterlimit="4" stroke="#484848" stroke-width="2" stroke-dasharray="5.0, 7.0"><g><path d="M 34 145L 34 128.1L 34 30.9C 33.999998 19.357248 24.64275 10 13.1 10L 13 10L 10 10"></path></g></g></g><g id="g-root-tx_expected_v9udh5rsxv5s-stroke" data-item-order="0" transform="translate(498, 596)"></g><g id="g-root-cu_1hckkhlrt3hu4-stroke" data-item-order="0" transform="translate(474, 548)"><g id="cu_1hckkhlrt3hu4-stroke" fill="none" stroke-linecap="round" stroke-linejoin="round" stroke-miterlimit="4" stroke="#484848" stroke-width="2" stroke-dasharray="5.0, 7.0"><g><path d="M 10 10L 10 22L 10 34L 19 34L 28 34"></path></g></g></g><g id="g-root-cu_1ulj6ihrt3jm3-stroke" data-item-order="0" transform="translate(266, 299)"><g id="cu_1ulj6ihrt3jm3-stroke" fill="none" stroke-linecap="round" stroke-linejoin="round" stroke-miterlimit="4" stroke="#484848" stroke-width="2" stroke-dasharray="5.0, 7.0"><g><path d="M 58 53L 55 53L 54.9 53C 43.357252 53.000001 34.000002 43.642752 34.000002 32.1L 34 32L 34 30.9C 33.999998 19.357248 24.64275 10 13.1 10L 13 10L 10 10"></path></g></g></g><g id="g-root-cu_1414249rt3jf3-stroke" data-item-order="0" transform="translate(474, 548)"><g id="cu_1414249rt3jf3-stroke" fill="none" stroke-linecap="round" stroke-linejoin="round" stroke-miterlimit="4" stroke="#484848" stroke-width="2" stroke-dasharray="5.0, 7.0"><g><path d="M 10 10L 10 17.5L 10 58C 10.000002 64.627417 15.372585 70 22.000002 69.999999L 22.1 70L 28 70"></path></g></g></g><g id="g-root-cu_1q6c5h5rt3h8m-stroke" data-item-order="0" transform="translate(482, 299)"><g id="cu_1q6c5h5rt3h8m-stroke" fill="none" stroke-linecap="round" stroke-linejoin="round" stroke-miterlimit="4" stroke="#484848" stroke-width="2" stroke-dasharray="5.0, 7.0"><g><path d="M 10 53L 13 53L 13.1 53C 24.642753 52.999998 34.000001 43.642749 34 32.099998L 34 32L 34 30.9C 33.999999 19.357249 43.357248 10.000001 54.899999 10.000002L 55 10L 58 10"></path></g></g></g><g id="g-root-tx_neuralne_1um5nllrsxxc9-stroke" data-item-order="0" transform="translate(62, 338)"></g><g id="g-root-cu_v483p5rt3i19-stroke" data-item-order="0" transform="translate(224, 326)"><g id="cu_v483p5rt3i19-stroke" fill="none" stroke-linecap="round" stroke-linejoin="round" stroke-miterlimit="4" stroke="#484848" stroke-width="2" stroke-dasharray="5.0, 7.0"><g><path d="M 28 10L 28 22L 28 34L 19 34L 10 34"></path></g></g></g><g id="g-root-cu_m8l3g9rt3jls-stroke" data-item-order="0" transform="translate(224, 326)"><g id="cu_m8l3g9rt3jls-stroke" fill="none" stroke-linecap="round" stroke-linejoin="round" stroke-miterlimit="4" stroke="#484848" stroke-width="2" stroke-dasharray="5.0, 7.0"><g><path d="M 28 10L 28 17.5L 28 58C 27.999999 64.627415 22.627416 69.999998 16 69.999998L 15.9 70L 10 70"></path></g></g></g><g id="g-root-cu_ddkkahrt3h8q-stroke" data-item-order="0" transform="translate(554, 326)"><g id="cu_ddkkahrt3h8q-stroke" fill="none" stroke-linecap="round" stroke-linejoin="round" stroke-miterlimit="4" stroke="#484848" stroke-width="2" stroke-dasharray="5.0, 7.0"><g><path d="M 10 10L 10 22L 10 34L 19 34L 28 34"></path></g></g></g><g id="g-root-cu_241x5rt3itp-stroke" data-item-order="0" transform="translate(554, 326)"><g id="cu_241x5rt3itp-stroke" fill="none" stroke-linecap="round" stroke-linejoin="round" stroke-miterlimit="4" stroke="#484848" stroke-width="2" stroke-dasharray="5.0, 7.0"><g><path d="M 10 10L 10 17.5L 10 58C 10.000002 64.627417 15.372585 70 22.000002 69.999999L 22.1 70L 28 70"></path></g></g></g><g id="g-root-tx_learning_1uo12uxrsxwcj-stroke" data-item-order="0" transform="translate(578, 338)"></g><g id="g-root-tx_posterio_zko2wprsxuyq-stroke" data-item-order="0" transform="translate(62, 374)"></g><g id="g-root-tx_minimiza_141qj7drsxwck-stroke" data-item-order="0" transform="translate(578, 374)"></g><g id="g-root-cu_1lqincprt3i0x-stroke" data-item-order="0" transform="translate(346, 458)"><g id="cu_1lqincprt3i0x-stroke" fill="none" stroke-linecap="round" stroke-linejoin="round" stroke-miterlimit="4" stroke="#484848" stroke-width="2" stroke-dasharray="5.0, 7.0"><g><path d="M 34 10L 34 17.9L 34 52.1C 34 63.642753 24.64275 73.000002 13.099999 73.000001L 13 73L 10 73"></path></g></g></g><g id="g-root-cu_1cuvn3trt3ito-stroke" data-item-order="0" transform="translate(426, 458)"><g id="cu_1cuvn3trt3ito-stroke" fill="none" stroke-linecap="round" stroke-linejoin="round" stroke-miterlimit="4" stroke="#484848" stroke-width="2" stroke-dasharray="5.0, 7.0"><g><path d="M 10 10L 10 17.9L 10 52.1C 9.999998 63.64275 19.357246 72.999999 30.899997 72.999999L 31 73L 34 73"></path></g></g></g><g id="g-root-tx_actionse_4loek9rsxw5j-stroke" data-item-order="0" transform="translate(498, 560)"></g><g id="g-root-tx_informat_znsgc9rsxvda-stroke" data-item-order="0" transform="translate(106, 596)"></g><g id="g-root-tx_deepacti_3zh6hrt3imb-stroke" data-item-order="0" transform="translate(176, 26)"></g><g id="g-root-tx_rewardse_4ly9lrsxurp-stroke" data-item-order="0" transform="translate(142, 560)"></g><g id="g-root-tx_precisio_94ma49rswidq-stroke" data-item-order="1000000000" transform="translate(498, 137)"></g><g id="g-root-tx_amortize_1um5nllrt0ow0-stroke" data-item-order="1000000000" transform="translate(26, 287)"></g><g id="g-root-ic_anch_qoelkprt0qgx-stroke" data-item-order="1000000000" transform="translate(224, 284)"><g id="ic_anch_qoelkprt0qgx-stroke" fill="none" stroke-linecap="round" stroke-linejoin="round" stroke-miterlimit="4" stroke="#de58a9" stroke-width="2"><g><path d="M 10.625 36.6875C 11.495516 36.688328 12.363399 36.591896 13.212501 36.400002C 14.0375 36.125 11.25 26.25 12.7625 26.137501C 14.275 26.025 17.049999 36.4375 18.5 35.887497C 19.950001 35.337502 16.737499 20.325001 18.4625 19.9125C 20.1875 19.5 24.3375 34.912498 26.450001 34.612499C 28.5625 34.3125 23.724998 13.1125 25.7875 13.3625C 27.85 13.6125 33.162502 33.75 35.174999 33.887501C 37.1875 34.024998 33.512501 17.8125 39.375 20.137499"></path></g></g></g><g id="g-root-ic_bust_qn5nehrsxwr3-stroke" data-item-order="1000000000" transform="translate(462, 134)"><g id="ic_bust_qn5nehrsxwr3-stroke" fill="none" stroke-linecap="round" stroke-linejoin="round" stroke-miterlimit="4" stroke="#92bd39" stroke-width="2"><g><path d="M 24.9375 26.875C 25.973 26.875 26.8125 26.0355 26.8125 25C 26.8125 23.9645 25.973 23.125 24.9375 23.125C 23.901875 23.125 23.0625 23.9645 23.0625 25C 23.0625 26.0355 23.901875 26.875 24.9375 26.875ZM 20.937561 31.25C 18.937563 29.875 17.562563 27.625 17.562563 25C 17.562563 20.875 20.937561 17.5 25.0625 17.5C 27.1875 17.5 29.0625 18.375 30.3125 19.75L 26.3125 23.62475M 32.4375 25C 32.4375 25.5 32.4375 26 32.3125 26.5M 30.4375 30.1245C 29.0625 31.6245 27.1875 32.4995 24.9375 32.4995M 35.625 33.125C 35.625 34.5 34.5 35.625 33.125 35.625L 16.875 35.625C 15.5 35.625 14.375 34.5 14.375 33.125L 14.375 16.875C 14.375 15.5 15.5 14.375 16.875 14.375L 33.125 14.375C 34.5 14.375 35.625 15.5 35.625 16.875L 35.625 33.125ZM 10.9375 16.5625L 14.375 16.5625M 10.9375 22.1875L 14.375 22.1875M 10.9375 27.8125L 14.375 27.8125M 35.625 22.1875L 39.0625 22.1875M 35.625 27.8125L 39.0625 27.8125M 10.9375 33.4375L 14.375 33.4375M 39.0625 16.5625L 35.625 16.5625M 39.0625 33.4375L 35.625 33.4375M 33.374874 39.0625L 33.374874 35.625M 27.791626 39.0625L 27.791626 35.625M 22.208324 39.0625L 22.208324 35.625M 27.791626 14.375L 27.791626 10.9375M 22.208324 14.375L 22.208324 10.9375M 16.625063 39.0625L 16.625063 35.625M 33.374874 10.9375L 33.374874 14.375M 16.625063 10.9375L 16.625063 14.375"></path></g></g></g><g id="g-root-ic_fram_1hby3ehrssa9z-stroke" data-item-order="1000000000" transform="translate(542, 284)"><g id="ic_fram_1hby3ehrssa9z-stroke" fill="none" stroke-linecap="round" stroke-linejoin="round" stroke-miterlimit="4" stroke="#ba5de5" stroke-width="2"><g><path d="M 14.375 28.125C 16.100887 28.125 17.5 26.725876 17.5 25C 17.5 23.274124 16.100887 21.875 14.375 21.875C 12.649113 21.875 11.25 23.274124 11.25 25C 11.25 26.725876 12.649113 28.125 14.375 28.125ZM 25.625 20.625C 27.350876 20.625 28.75 19.225887 28.75 17.5C 28.75 15.774113 27.350876 14.375 25.625 14.375C 23.899124 14.375 22.5 15.774113 22.5 17.5C 22.5 19.225887 23.899124 20.625 25.625 20.625ZM 25.625 35.625C 27.350876 35.625 28.75 34.225876 28.75 32.5C 28.75 30.774126 27.350876 29.375 25.625 29.375C 23.899124 29.375 22.5 30.774126 22.5 32.5C 22.5 34.225876 23.899124 35.625 25.625 35.625ZM 35.625 38.75C 36.6605 38.75 37.5 37.9105 37.5 36.875C 37.5 35.8395 36.6605 35 35.625 35C 34.5895 35 33.75 35.8395 33.75 36.875C 33.75 37.9105 34.5895 38.75 35.625 38.75ZM 36.875 31.25C 37.9105 31.25 38.75 30.4105 38.75 29.375C 38.75 28.3395 37.9105 27.5 36.875 27.5C 35.8395 27.5 35 28.3395 35 29.375C 35 30.4105 35.8395 31.25 36.875 31.25ZM 35.625 15C 36.6605 15 37.5 14.160538 37.5 13.125C 37.5 12.089462 36.6605 11.25 35.625 11.25C 34.5895 11.25 33.75 12.089462 33.75 13.125C 33.75 14.160538 34.5895 15 35.625 15ZM 36.875 22.5C 37.9105 22.5 38.75 21.660538 38.75 20.625C 38.75 19.589462 37.9105 18.75 36.875 18.75C 35.8395 18.75 35 19.589462 35 20.625C 35 21.660538 35.8395 22.5 36.875 22.5ZM 10 10M 16.875 23.125126L 23.23 19.511412M 28.488874 16.254887L 33.92775 13.90625M 10 10M 28.625626 18.340763L 35.076252 20.111525M 10 10M 16.813963 26.965374L 23.15925 30.5735M 10 10M 28.5 33.75L 33.9235 36.091877M 10 10M 28.664749 31.774876L 35.076874 29.888876"></path></g></g></g><g id="g-root-tx_variatio_dcy37drss9ou-stroke" data-item-order="1000000000" transform="translate(578, 287)"></g><g id="g-root-ic_2_1q9gfqxrtby0z-stroke" data-item-order="1000000000" transform="translate(374, 308)"><g id="ic_2_1q9gfqxrtby0z-stroke" fill="none" stroke-linecap="round" stroke-linejoin="round" stroke-miterlimit="4" stroke="#969696" stroke-width="2"><g><path d="M 48.880001 27.218C 50.916275 30.004604 52.00938 33.368698 52.000004 36.82C 52.180305 42.275288 49.314098 47.378811 44.562 50.063999L 44.562 57M 27.200001 57L 27.200001 53.799999C 23.939999 53.818001 22.184 53.568001 20.976 52.358002C 19.425999 50.807999 19.76 43.854 19.76 43.854C 19.76 43.854 18.288 43.91 17.176001 43.854C 16.779097 43.841564 16.410118 43.646744 16.176001 43.326C 16.02034 42.989376 15.959488 42.616657 16 42.248001C 15.8 39.478001 19.514 35.344002 19.514 33.964001C 19.506046 32.362228 19.806866 30.77393 20.4 29.285999M 34 11L 34 30M 31 33C 31 34.656853 32.343147 36 34 36C 35.656853 36 37 34.656853 37 33C 37 31.343147 35.656853 30 34 30C 32.343147 30 31 31.343147 31 33ZM 39 25C 39 26.656855 40.343147 28 42 28C 43.656857 28 45 26.656855 45 25C 45 23.343147 43.656857 22 42 22C 40.343147 22 39 23.343147 39 25ZM 23 25C 23 26.656855 24.343147 28 26 28C 27.656855 28 29 26.656855 29 25C 29 23.343147 27.656855 22 26 22C 24.343147 22 23 23.343147 23 25ZM 34 17L 38 17C 40.209137 17 42 18.790861 42 21L 42 22M 34 17L 30 17C 27.790861 17 26 18.790861 26 21L 26 22"></path></g></g></g><g id="g-root-tx_deepacti_1q7l0hlrtbz0q-stroke" data-item-order="1000000000" transform="translate(338, 362)"></g><g id="g-root-ic_shar_m7c5a1rt3gnd-stroke" data-item-order="1000000000" transform="translate(304, 134)"><g id="ic_shar_m7c5a1rt3gnd-stroke" fill="none" stroke-linecap="round" stroke-linejoin="round" stroke-miterlimit="4" stroke="#de8431" stroke-width="2"><g><path d="M 23.591249 35.205124C 23.591249 37.280125 21.916311 38.955124 19.841312 38.955124C 17.766312 38.955124 16.091312 37.280125 16.091312 35.205124C 16.091312 34.955124 16.116312 34.717625 16.166313 34.480125C 15.941313 34.542625 15.716312 34.580124 15.466312 34.580124C 14.091312 34.580124 12.966312 33.455124 12.966312 32.080124C 12.966312 31.317625 13.303812 30.642624 13.841312 30.180126C 12.291312 29.992624 11.091309 28.680126 11.091309 27.080124C 11.091309 25.480125 12.291312 24.167625 13.841312 23.980125C 13.303812 23.517626 12.966312 22.842625 12.966312 22.080074C 12.966312 20.705074 14.091312 19.580074 15.466312 19.580074C 15.778812 19.580074 16.091312 19.642574 16.366312 19.742575C 16.191313 19.305075 16.091312 18.830074 16.091312 18.330074C 16.091312 16.255075 17.766312 14.580075 19.841312 14.580075C 21.916311 14.580075 23.591249 16.255075 23.591249 18.330074M 10 10M 23.591249 35.209999L 23.591249 17.929688M 13.784175 23.99675C 15.259 23.89275 16.051449 24.454376 16.58745 25.354M 16.154787 34.483749C 17.698063 34.069752 18.452299 33.108498 18.756563 32.236374M 31.027874 34.483749C 29.484499 34.069752 28.730375 33.108498 28.426001 32.236374M 23.591249 18.261724C 23.591249 20.373962 21.804213 21.547512 20.852049 21.655275M 30.924999 14.2575L 36.407501 14.2575C 36.407501 14.2575 38.907501 14.2575 38.907501 16.7575L 38.907501 19.9125C 38.907501 19.9125 38.907501 22.4125 36.407501 22.4125L 30.924999 22.4125C 30.924999 22.4125 28.424999 22.4125 28.424999 19.9125L 28.424999 16.7575C 28.424999 16.7575 28.424999 14.2575 30.924999 14.2575M 10 10M 33.667 11.041345L 33.667 14.257813M 10 10M 31.94825 17.61025L 31.94825 19.0625M 10 10M 35.38575 17.61025L 35.38575 19.0625M 23.591249 35.146873C 23.591249 37.221874 25.266251 38.896873 27.341249 38.896873C 29.41625 38.896873 31.091249 37.221874 31.091249 35.146873C 31.091249 34.896873 31.06625 34.659378 31.016251 34.421875C 31.241249 34.484375 31.466251 34.521873 31.716249 34.521873C 33.091248 34.521873 34.216248 33.396877 34.216248 32.021873C 34.216248 31.259375 33.87875 30.584375 33.341251 30.121876C 34.891251 29.934376 36.091248 28.621876 36.091248 27.021875C 36.091248 26.326124 35.864376 25.68475 35.480377 25.1665M 23.591249 18.271887C 23.591249 17.267063 23.984125 16.356037 24.624874 15.683599"></path></g></g></g><g id="g-root-tx_habitual_1d3mabdrt222w-stroke" data-item-order="1000000000" transform="translate(70, 137)"></g><g id="g-root-tx_expected_1uu9tq1rt0opa-stroke" data-item-order="1000000000" transform="translate(94, 509)"></g><g id="g-root-ic_fsx_dbp515rt239r-stroke" data-item-order="1000000000" transform="translate(304, 506)"><g id="ic_fsx_dbp515rt239r-stroke" fill="none" stroke-linecap="round" stroke-linejoin="round" stroke-miterlimit="4" stroke="#1eabda" stroke-width="2"><g><path d="M 18.088751 33.75L 31.838751 33.75C 32.529106 33.75 33.088753 34.309647 33.088753 35L 33.088753 38.125C 33.088753 38.470177 32.808929 38.75 32.463753 38.75L 17.463751 38.75C 17.118572 38.75 16.838751 38.470177 16.838751 38.125L 16.838751 35C 16.838751 34.309647 17.398394 33.75 18.088751 33.75ZM 32.463753 13.125C 32.463753 14.160534 31.624283 15 30.588751 15L 19.338751 15C 18.303217 15 17.463751 14.160534 17.463751 13.125C 17.463751 12.089466 18.303217 11.25 19.338751 11.25L 30.588751 11.25C 31.624283 11.25 32.463753 12.089466 32.463753 13.125ZM 22.463749 22.5L 27.463749 22.5M 22.463749 18.75L 27.463749 18.75M 22.463749 26.25L 27.463749 26.25M 22.463749 30L 27.463749 30M 15.58875 16.25L 11.40125 21.485001C 11.251494 21.672537 11.222348 21.92926 11.326253 22.145594C 11.430157 22.361927 11.648758 22.499659 11.88875 22.5L 14.33875 22.5L 14.33875 26.875L 18.616251 20.9925C 18.754404 20.802452 18.774302 20.550978 18.667751 20.34157C 18.561201 20.13216 18.346207 20.000202 18.11125 20L 15.58875 20ZM 35.588753 17.5L 31.401251 22.735001C 31.251495 22.922537 31.222347 23.17926 31.326254 23.395594C 31.430157 23.611927 31.648758 23.749659 31.88875 23.75L 34.338753 23.75L 34.338753 28.125L 38.616249 22.2425C 38.753891 22.053181 38.774208 21.80282 38.6689 21.593782C 38.563591 21.384743 38.350307 21.252068 38.116249 21.25L 35.588753 21.25ZM 29.963749 33.75L 32.463753 28.75M 19.963751 33.75L 17.463751 28.75"></path></g></g></g><g id="g-root-ic_male_hu0ji1rsv2mb-stroke" data-item-order="1000000000" transform="translate(462, 506)"><g id="ic_male_hu0ji1rsv2mb-stroke" fill="none" stroke-linecap="round" stroke-linejoin="round" stroke-miterlimit="4" stroke="#4e88e7" stroke-width="2"><g><path d="M 10 10M 22.03125 20.9375L 12.03125 20.9375C 11.513488 20.9375 11.09375 21.357237 11.09375 21.875L 11.09375 28.125C 11.09375 28.64275 11.513488 29.0625 12.03125 29.0625L 22.03125 29.0625C 22.549 29.0625 22.96875 28.64275 22.96875 28.125L 22.96875 21.875C 22.96875 21.357237 22.549 20.9375 22.03125 20.9375ZM 10 10M 22.96875 25L 33.28125 25M 10 10M 33.28125 36.25L 29.53125 36.25C 29.034 36.25 28.556999 36.052498 28.205374 35.700874C 27.85375 35.349251 27.65625 34.87225 27.65625 34.375L 27.65625 15.625C 27.65625 15.127725 27.85375 14.650812 28.205374 14.299175C 28.556999 13.94755 29.034 13.75 29.53125 13.75L 33.28125 13.75M 38.90625 36.25C 38.90625 34.696751 37.646999 33.4375 36.09375 33.4375C 34.540501 33.4375 33.28125 34.696751 33.28125 36.25C 33.28125 37.803249 34.540501 39.0625 36.09375 39.0625C 37.646999 39.0625 38.90625 37.803249 38.90625 36.25ZM 38.90625 25C 38.90625 23.446749 37.646999 22.1875 36.09375 22.1875C 34.540501 22.1875 33.28125 23.446749 33.28125 25C 33.28125 26.553251 34.540501 27.8125 36.09375 27.8125C 37.646999 27.8125 38.90625 26.553251 38.90625 25ZM 38.90625 13.75C 38.90625 12.1967 37.646999 10.9375 36.09375 10.9375C 34.540501 10.9375 33.28125 12.1967 33.28125 13.75C 33.28125 15.3033 34.540501 16.5625 36.09375 16.5625C 37.646999 16.5625 38.90625 15.3033 38.90625 13.75Z"></path></g></g></g><g id="g-root-tx_montecar_1cw4la1rsv1u2-stroke" data-item-order="1000000000" transform="translate(498, 509)"></g></g></g><path id="wmcczxluan6yz" d="M65.283 12.757a.35.35 0 0 0 .584.157l5.203-5.141-6.183 3.523.396 1.461zm-2.216-11.7a.35.35 0 0 0-.522.305v3.111l3.276-1.868-2.754-1.548zm3.728 2.105l-4.25 2.421v2.445l6.391-3.644-2.141-1.222zm4.708 3.303a.35.35 0 0 0 0-.609l-1.592-.9-7.365 4.199v1.782a.35.35 0 0 0 .523.305l8.435-4.777z M44.542 2.513c0-.433.355-.783.792-.783s.792.35.792.783-.355.783-.792.783-.792-.35-.792-.783zm59.171 0c0-.433.355-.783.792-.783s.792.35.792.783-.355.783-.792.783-.792-.35-.792-.783zm-85.951 7.636h-1.27v-.487c-.276.201-.864.609-1.881.609-1.202 0-2.274-.794-2.137-2.078.118-1.106 1.153-1.584 1.848-1.727l2.17-.345c0-.539-.29-.956-1.064-1.006s-1.21.305-1.571 1.017l-1.124-.605c1.218-2.631 5.029-1.764 5.029.414v4.207zm-1.27-2.86c.006.396-.062 1.112-.819 1.59-.587.37-1.841.299-1.903-.395-.049-.555.461-.791.906-.898l1.816-.297zm72.662 2.86h-1.27v-.487c-.276.201-.864.609-1.881.609-1.202 0-2.274-.794-2.137-2.078.118-1.106 1.153-1.584 1.848-1.727l2.17-.345c0-.539-.29-.956-1.064-1.006s-1.21.305-1.571 1.017l-1.124-.605c1.218-2.631 5.029-1.764 5.029.414v4.207zm-1.27-2.86c.006.396-.062 1.112-.82 1.59-.587.37-1.841.299-1.903-.395-.049-.555.461-.791.906-.898l1.816-.297zM99.096 10.149H97.85v-8.45h1.246v4.895l2.68-2.559h1.738l-2.633 2.535 2.715 3.578h-1.556l-2.077-2.707-.867.844v1.863zm6.053-6.114h-1.255v6.113h1.255V4.035zm-59.2 0h-1.255v6.113h1.255V4.035zm5.584 6.113V1.697h1.255v2.695c.361-.346 1-.485 1.47-.485 1.452 0 2.477 1.082 2.457 2.448v3.792h-1.27v-3.68c0-.408-.214-1.339-1.315-1.339-.968 0-1.342.756-1.342 1.339v3.681h-1.255zm-4.76-4.894V4.039h.621a.45.45 0 0 0 .45-.45v-.855h1.251v1.305h1.309v1.215h-1.309v3.109c0 .293.105.664.648.664.365 0 .531-.035.736-.07v1.137s-.361.113-.857.113c-1.398 0-1.777-1.051-1.777-1.788V5.254h-1.071zM36.528 4.039h-1.394l2.191 6.106h1.125l1.234-3.918 1.238 3.918h1.129l2.188-6.106h-1.383l-1.359 3.93-1.256-3.93h-1.124l-1.242 3.957-1.348-3.957zM26.212 7.141c-.02 1.566 1.187 3.129 3.223 3.129 1.566 0 2.383-.918 2.734-1.719L31.172 8c-.315.399-.801 1.094-1.738 1.094-1.145 0-1.825-.781-1.891-1.52h4.625c.074-.284.148-.995-.03-1.559-.336-1.064-1.221-2.102-2.839-2.102s-3.088 1.152-3.088 3.227zm1.363-.75h3.348c-.055-.43-.566-1.301-1.623-1.301a1.79 1.79 0 0 0-1.725 1.301zm-8.758.75c.038 1.758 1.277 3.133 3.145 3.133 1.074 0 1.723-.477 1.961-.672v.547h1.242V1.703h-1.258v2.888c-.414-.36-1.062-.68-1.93-.68-1.91 0-3.198 1.473-3.16 3.23zm1.309-.08c0 1.119.723 1.978 1.836 1.978a1.88 1.88 0 0 0 1.94-1.904c0-1.371-1.011-1.99-1.972-1.99s-1.805.798-1.805 1.916zm76.683-.028C96.771 5.275 95.532 3.9 93.664 3.9c-1.074 0-1.723.477-1.961.672v-.547h-1.242v8.22h1.258V9.583c.414.36 1.063.68 1.93.68 1.91 0 3.198-1.473 3.16-3.23zm-1.309.08c0-1.119-.723-1.978-1.836-1.978a1.88 1.88 0 0 0-1.94 1.904c0 1.371 1.011 1.99 1.972 1.99S95.5 8.231 95.5 7.113zM106.441 10.173V4.036h1.254v.382c.361-.346 1-.485 1.47-.485 1.452 0 2.477 1.082 2.457 2.448v3.792h-1.27V6.492c0-.408-.214-1.339-1.315-1.339-.969 0-1.342.756-1.342 1.339v3.681h-1.254zm-30.383-.021V1.824h1.084l4.215 5.777V1.824h1.32v8.328h-1.094l-4.207-5.796v5.796h-1.319zM5.24 10.149H4V2.377h1.014l2.664 3.597 2.654-3.592h1.03v7.766h-1.256V4.762L7.678 8.068 5.24 4.742v5.407z" transform="translate(714, 664)" fill="#80808088" stroke="none"></path></svg>